{
	"asset":{
		"generator":"Khronos glTF Blender I/O v3.5.30",
		"version":"2.0"
	},
	"scene":0,
	"scenes":[
		{
			"name":"Scene",
			"nodes":[
				0
			]
		}
	],
	"nodes":[
		{
			"mesh":0,
			"name":"Wall",
			"rotation":[
				0.5,
				0.5,
				-0.4999999701976776,
				0.5000001192092896
			],
			"scale":[
				29.815820693969727,
				29.815820693969727,
				29.815820693969727
			]
		}
	],
	"meshes":[
		{
			"name":"\u7acb\u65b9\u4f53.2418",
			"primitives":[
				{
					"attributes":{
						"POSITION":0,
						"NORMAL":1
					},
					"indices":2
				}
			]
		}
	],
	"accessors":[
		{
			"bufferView":0,
			"componentType":5126,
			"count":153600,
			"max":[
				5.099010467529297,
				0.49983394145965576,
				2.0997495651245117
			],
			"min":[
				-5.099624156951904,
				-0.49983394145965576,
				-2.097937822341919
			],
			"type":"VEC3"
		},
		{
			"bufferView":1,
			"componentType":5126,
			"count":153600,
			"type":"VEC3"
		},
		{
			"bufferView":2,
			"componentType":5125,
			"count":230400,
			"type":"SCALAR"
		}
	],
	"bufferViews":[
		{
			"buffer":0,
			"byteLength":1843200,
			"byteOffset":0,
			"target":34962
		},
		{
			"buffer":0,
			"byteLength":1843200,
			"byteOffset":1843200,
			"target":34962
		},
		{
			"buffer":0,
			"byteLength":921600,
			"byteOffset":3686400,
			"target":34963
		}
	],
	"buffers":[
		{
			"byteLength":4608000,
			"uri":"Wall.bin"
		}
	]
}
