{
	"asset":{
		"generator":"Khronos glTF Blender I/O v4.3.47",
		"version":"2.0"
	},
	"scene":0,
	"scenes":[
		{
			"name":"Scene",
			"nodes":[
				3
			]
		}
	],
	"nodes":[
		{
			"name":"Bone"
		},
		{
			"mesh":0,
			"name":"BuildingBase",
			"skin":0
		},
		{
			"mesh":1,
			"name":"BuildingTop",
			"skin":0
		},
		{
			"children":[
				1,
				2,
				0
			],
			"name":"Armature"
		}
	],
	"materials":[
		{
			"doubleSided":true,
			"name":"BuildingMaterial",
			"pbrMetallicRoughness":{
				"baseColorTexture":{
					"index":0
				},
				"metallicFactor":0,
				"roughnessFactor":0.5
			}
		}
	],
	"meshes":[
		{
			"name":"Cube.002",
			"primitives":[
				{
					"attributes":{
						"POSITION":0,
						"NORMAL":1,
						"TEXCOORD_0":2,
						"JOINTS_0":3,
						"WEIGHTS_0":4
					},
					"indices":5,
					"material":0
				}
			]
		},
		{
			"name":"Cube.003",
			"primitives":[
				{
					"attributes":{
						"POSITION":7,
						"NORMAL":8,
						"TEXCOORD_0":9,
						"JOINTS_0":10,
						"WEIGHTS_0":11
					},
					"indices":12,
					"material":0
				}
			]
		}
	],
	"textures":[
		{
			"sampler":0,
			"source":0
		}
	],
	"images":[
		{
			"mimeType":"image/png",
			"name":"BuildingTex",
			"uri":"BuildingTex.png"
		}
	],
	"skins":[
		{
			"inverseBindMatrices":6,
			"joints":[
				0
			],
			"name":"Armature"
		}
	],
	"accessors":[
		{
			"bufferView":0,
			"componentType":5126,
			"count":10747,
			"max":[
				14.999999046325684,
				150.00003051757812,
				15
			],
			"min":[
				-14.999999046325684,
				-4.470348358154297e-07,
				-15
			],
			"type":"VEC3"
		},
		{
			"bufferView":1,
			"componentType":5126,
			"count":10747,
			"type":"VEC3"
		},
		{
			"bufferView":2,
			"componentType":5126,
			"count":10747,
			"type":"VEC2"
		},
		{
			"bufferView":3,
			"componentType":5121,
			"count":10747,
			"type":"VEC4"
		},
		{
			"bufferView":4,
			"componentType":5126,
			"count":10747,
			"type":"VEC4"
		},
		{
			"bufferView":5,
			"componentType":5123,
			"count":17733,
			"type":"SCALAR"
		},
		{
			"bufferView":6,
			"componentType":5126,
			"count":1,
			"type":"MAT4"
		},
		{
			"bufferView":7,
			"componentType":5126,
			"count":368,
			"max":[
				14.999999046325684,
				154.50003051757812,
				15
			],
			"min":[
				-14.999999046325684,
				150.00003051757812,
				-15
			],
			"type":"VEC3"
		},
		{
			"bufferView":8,
			"componentType":5126,
			"count":368,
			"type":"VEC3"
		},
		{
			"bufferView":9,
			"componentType":5126,
			"count":368,
			"type":"VEC2"
		},
		{
			"bufferView":10,
			"componentType":5121,
			"count":368,
			"type":"VEC4"
		},
		{
			"bufferView":11,
			"componentType":5126,
			"count":368,
			"type":"VEC4"
		},
		{
			"bufferView":12,
			"componentType":5123,
			"count":666,
			"type":"SCALAR"
		}
	],
	"bufferViews":[
		{
			"buffer":0,
			"byteLength":128964,
			"byteOffset":0,
			"target":34962
		},
		{
			"buffer":0,
			"byteLength":128964,
			"byteOffset":128964,
			"target":34962
		},
		{
			"buffer":0,
			"byteLength":85976,
			"byteOffset":257928,
			"target":34962
		},
		{
			"buffer":0,
			"byteLength":42988,
			"byteOffset":343904,
			"target":34962
		},
		{
			"buffer":0,
			"byteLength":171952,
			"byteOffset":386892,
			"target":34962
		},
		{
			"buffer":0,
			"byteLength":35466,
			"byteOffset":558844,
			"target":34963
		},
		{
			"buffer":0,
			"byteLength":64,
			"byteOffset":594312
		},
		{
			"buffer":0,
			"byteLength":4416,
			"byteOffset":594376,
			"target":34962
		},
		{
			"buffer":0,
			"byteLength":4416,
			"byteOffset":598792,
			"target":34962
		},
		{
			"buffer":0,
			"byteLength":2944,
			"byteOffset":603208,
			"target":34962
		},
		{
			"buffer":0,
			"byteLength":1472,
			"byteOffset":606152,
			"target":34962
		},
		{
			"buffer":0,
			"byteLength":5888,
			"byteOffset":607624,
			"target":34962
		},
		{
			"buffer":0,
			"byteLength":1332,
			"byteOffset":613512,
			"target":34963
		}
	],
	"samplers":[
		{
			"magFilter":9729,
			"minFilter":9987
		}
	],
	"buffers":[
		{
			"byteLength":614844,
			"uri":"Building1.bin"
		}
	]
}
