{
	"asset":{
		"generator":"Khronos glTF Blender I/O v3.5.30",
		"version":"2.0"
	},
	"scene":0,
	"scenes":[
		{
			"name":"Scene",
			"nodes":[
				0
			]
		}
	],
	"nodes":[
		{
			"mesh":0,
			"name":"Building"
		}
	],
	"meshes":[
		{
			"name":"\u7acb\u65b9\u4f53.006",
			"primitives":[
				{
					"attributes":{
						"POSITION":0,
						"TEXCOORD_0":1,
						"NORMAL":2
					},
					"indices":3
				}
			]
		}
	],
	"accessors":[
		{
			"bufferView":0,
			"componentType":5126,
			"count":7978,
			"max":[
				0.8269197940826416,
				5.197513103485107,
				2.0839481353759766
			],
			"min":[
				-2.1838839054107666,
				-5.502486705780029,
				-2.0928287506103516
			],
			"type":"VEC3"
		},
		{
			"bufferView":1,
			"componentType":5126,
			"count":7978,
			"type":"VEC2"
		},
		{
			"bufferView":2,
			"componentType":5126,
			"count":7978,
			"type":"VEC3"
		},
		{
			"bufferView":3,
			"componentType":5123,
			"count":13296,
			"type":"SCALAR"
		}
	],
	"bufferViews":[
		{
			"buffer":0,
			"byteLength":95736,
			"byteOffset":0,
			"target":34962
		},
		{
			"buffer":0,
			"byteLength":63824,
			"byteOffset":95736,
			"target":34962
		},
		{
			"buffer":0,
			"byteLength":95736,
			"byteOffset":159560,
			"target":34962
		},
		{
			"buffer":0,
			"byteLength":26592,
			"byteOffset":255296,
			"target":34963
		}
	],
	"buffers":[
		{
			"byteLength":281888,
			"uri":"Building1.bin"
		}
	]
}
