{
	"asset":{
		"generator":"Khronos glTF Blender I/O v4.3.47",
		"version":"2.0"
	},
	"scene":0,
	"scenes":[
		{
			"name":"Scene",
			"nodes":[
				2
			]
		}
	],
	"nodes":[
		{
			"name":"Bone"
		},
		{
			"mesh":0,
			"name":"Barricades_Destruct",
			"skin":0
		},
		{
			"children":[
				1,
				0
			],
			"name":"Barricade_destruct"
		}
	],
	"materials":[
		{
			"doubleSided":true,
			"name":"BarricadeMaterial.001",
			"pbrMetallicRoughness":{
				"baseColorTexture":{
					"index":0
				},
				"metallicFactor":0,
				"roughnessFactor":0.5
			}
		}
	],
	"meshes":[
		{
			"name":"Cube.001",
			"primitives":[
				{
					"attributes":{
						"POSITION":0,
						"NORMAL":1,
						"TEXCOORD_0":2,
						"JOINTS_0":3,
						"WEIGHTS_0":4
					},
					"indices":5,
					"material":0
				}
			]
		}
	],
	"textures":[
		{
			"sampler":0,
			"source":0
		}
	],
	"images":[
		{
			"mimeType":"image/png",
			"name":"PropTex",
			"uri":"PropTex.png"
		}
	],
	"skins":[
		{
			"inverseBindMatrices":6,
			"joints":[
				0
			],
			"name":"Barricade_destruct"
		}
	],
	"accessors":[
		{
			"bufferView":0,
			"componentType":5126,
			"count":1580,
			"max":[
				3.805441379547119,
				2.6024463176727295,
				1.4911086559295654
			],
			"min":[
				-3.042854070663452,
				-0.4823862910270691,
				-3.2258026599884033
			],
			"type":"VEC3"
		},
		{
			"bufferView":1,
			"componentType":5126,
			"count":1580,
			"type":"VEC3"
		},
		{
			"bufferView":2,
			"componentType":5126,
			"count":1580,
			"type":"VEC2"
		},
		{
			"bufferView":3,
			"componentType":5121,
			"count":1580,
			"type":"VEC4"
		},
		{
			"bufferView":4,
			"componentType":5126,
			"count":1580,
			"type":"VEC4"
		},
		{
			"bufferView":5,
			"componentType":5123,
			"count":2544,
			"type":"SCALAR"
		},
		{
			"bufferView":6,
			"componentType":5126,
			"count":1,
			"type":"MAT4"
		}
	],
	"bufferViews":[
		{
			"buffer":0,
			"byteLength":18960,
			"byteOffset":0,
			"target":34962
		},
		{
			"buffer":0,
			"byteLength":18960,
			"byteOffset":18960,
			"target":34962
		},
		{
			"buffer":0,
			"byteLength":12640,
			"byteOffset":37920,
			"target":34962
		},
		{
			"buffer":0,
			"byteLength":6320,
			"byteOffset":50560,
			"target":34962
		},
		{
			"buffer":0,
			"byteLength":25280,
			"byteOffset":56880,
			"target":34962
		},
		{
			"buffer":0,
			"byteLength":5088,
			"byteOffset":82160,
			"target":34963
		},
		{
			"buffer":0,
			"byteLength":64,
			"byteOffset":87248
		}
	],
	"samplers":[
		{
			"magFilter":9729,
			"minFilter":9987
		}
	],
	"buffers":[
		{
			"byteLength":87312,
			"uri":"Barricades_Destruct.bin"
		}
	]
}
