{
	"asset":{
		"generator":"Khronos glTF Blender I/O v4.3.47",
		"version":"2.0"
	},
	"scene":0,
	"scenes":[
		{
			"name":"Scene",
			"nodes":[
				3
			]
		}
	],
	"nodes":[
		{
			"name":"Bone"
		},
		{
			"mesh":0,
			"name":"Container",
			"skin":0
		},
		{
			"mesh":1,
			"name":"DrumCans",
			"skin":0
		},
		{
			"children":[
				1,
				2,
				0
			],
			"name":"DrumTower"
		}
	],
	"materials":[
		{
			"doubleSided":true,
			"name":"PropMaterial",
			"pbrMetallicRoughness":{
				"baseColorTexture":{
					"index":0
				},
				"metallicFactor":0,
				"roughnessFactor":0.5
			}
		},
		{
			"doubleSided":true,
			"name":"PropMaterial.001",
			"pbrMetallicRoughness":{
				"baseColorTexture":{
					"index":1
				},
				"metallicFactor":0,
				"roughnessFactor":0.5
			}
		}
	],
	"meshes":[
		{
			"name":"Plane",
			"primitives":[
				{
					"attributes":{
						"POSITION":0,
						"NORMAL":1,
						"TEXCOORD_0":2,
						"JOINTS_0":3,
						"WEIGHTS_0":4
					},
					"indices":5,
					"material":0
				}
			]
		},
		{
			"name":"DrumCan.001",
			"primitives":[
				{
					"attributes":{
						"POSITION":7,
						"NORMAL":8,
						"TEXCOORD_0":9,
						"JOINTS_0":10,
						"WEIGHTS_0":11
					},
					"indices":12,
					"material":1
				}
			]
		}
	],
	"textures":[
		{
			"sampler":0,
			"source":0
		},
		{
			"sampler":0,
			"source":1
		}
	],
	"images":[
		{
			"mimeType":"image/png",
			"name":"PropTex",
			"uri":"PropTex.png"
		},
		{
			"mimeType":"image/png",
			"name":"PropTex.png",
			"uri":"PropTex_png.png"
		}
	],
	"skins":[
		{
			"inverseBindMatrices":6,
			"joints":[
				0
			],
			"name":"DrumTower"
		}
	],
	"accessors":[
		{
			"bufferView":0,
			"componentType":5126,
			"count":96,
			"max":[
				0.7919999957084656,
				2.148829698562622,
				0.7919999957084656
			],
			"min":[
				-0.7919999957084656,
				1.0250401496887207,
				-0.7919999957084656
			],
			"type":"VEC3"
		},
		{
			"bufferView":1,
			"componentType":5126,
			"count":96,
			"type":"VEC3"
		},
		{
			"bufferView":2,
			"componentType":5126,
			"count":96,
			"type":"VEC2"
		},
		{
			"bufferView":3,
			"componentType":5121,
			"count":96,
			"type":"VEC4"
		},
		{
			"bufferView":4,
			"componentType":5126,
			"count":96,
			"type":"VEC4"
		},
		{
			"bufferView":5,
			"componentType":5123,
			"count":168,
			"type":"SCALAR"
		},
		{
			"bufferView":6,
			"componentType":5126,
			"count":1,
			"type":"MAT4"
		},
		{
			"bufferView":7,
			"componentType":5126,
			"count":11364,
			"max":[
				0.7122372388839722,
				3.1743550300598145,
				0.7151811122894287
			],
			"min":[
				-0.7122372388839722,
				-8.323657141318108e-08,
				-0.7128190994262695
			],
			"type":"VEC3"
		},
		{
			"bufferView":8,
			"componentType":5126,
			"count":11364,
			"type":"VEC3"
		},
		{
			"bufferView":9,
			"componentType":5126,
			"count":11364,
			"type":"VEC2"
		},
		{
			"bufferView":10,
			"componentType":5121,
			"count":11364,
			"type":"VEC4"
		},
		{
			"bufferView":11,
			"componentType":5126,
			"count":11364,
			"type":"VEC4"
		},
		{
			"bufferView":12,
			"componentType":5123,
			"count":41256,
			"type":"SCALAR"
		}
	],
	"bufferViews":[
		{
			"buffer":0,
			"byteLength":1152,
			"byteOffset":0,
			"target":34962
		},
		{
			"buffer":0,
			"byteLength":1152,
			"byteOffset":1152,
			"target":34962
		},
		{
			"buffer":0,
			"byteLength":768,
			"byteOffset":2304,
			"target":34962
		},
		{
			"buffer":0,
			"byteLength":384,
			"byteOffset":3072,
			"target":34962
		},
		{
			"buffer":0,
			"byteLength":1536,
			"byteOffset":3456,
			"target":34962
		},
		{
			"buffer":0,
			"byteLength":336,
			"byteOffset":4992,
			"target":34963
		},
		{
			"buffer":0,
			"byteLength":64,
			"byteOffset":5328
		},
		{
			"buffer":0,
			"byteLength":136368,
			"byteOffset":5392,
			"target":34962
		},
		{
			"buffer":0,
			"byteLength":136368,
			"byteOffset":141760,
			"target":34962
		},
		{
			"buffer":0,
			"byteLength":90912,
			"byteOffset":278128,
			"target":34962
		},
		{
			"buffer":0,
			"byteLength":45456,
			"byteOffset":369040,
			"target":34962
		},
		{
			"buffer":0,
			"byteLength":181824,
			"byteOffset":414496,
			"target":34962
		},
		{
			"buffer":0,
			"byteLength":82512,
			"byteOffset":596320,
			"target":34963
		}
	],
	"samplers":[
		{
			"magFilter":9729,
			"minFilter":9987
		}
	],
	"buffers":[
		{
			"byteLength":678832,
			"uri":"DrumTower.bin"
		}
	]
}
