{
	"asset":{
		"generator":"Khronos glTF Blender I/O v4.3.47",
		"version":"2.0"
	},
	"scene":0,
	"scenes":[
		{
			"name":"Scene",
			"nodes":[
				3
			]
		}
	],
	"nodes":[
		{
			"name":"Bone"
		},
		{
			"mesh":0,
			"name":"Container.001",
			"skin":0
		},
		{
			"mesh":1,
			"name":"DrumCans.001",
			"skin":0
		},
		{
			"children":[
				1,
				2,
				0
			],
			"name":"DrumTower_Destruct"
		}
	],
	"materials":[
		{
			"doubleSided":true,
			"name":"PropMaterial.003",
			"pbrMetallicRoughness":{
				"baseColorTexture":{
					"index":0
				},
				"metallicFactor":0,
				"roughnessFactor":0.5
			}
		},
		{
			"doubleSided":true,
			"name":"PropMaterial.002",
			"pbrMetallicRoughness":{
				"baseColorTexture":{
					"index":1
				},
				"metallicFactor":0,
				"roughnessFactor":0.5
			}
		}
	],
	"meshes":[
		{
			"name":"Plane.001",
			"primitives":[
				{
					"attributes":{
						"POSITION":0,
						"NORMAL":1,
						"TEXCOORD_0":2,
						"JOINTS_0":3,
						"WEIGHTS_0":4
					},
					"indices":5,
					"material":0
				}
			]
		},
		{
			"name":"DrumCan.002",
			"primitives":[
				{
					"attributes":{
						"POSITION":7,
						"NORMAL":8,
						"TEXCOORD_0":9,
						"JOINTS_0":10,
						"WEIGHTS_0":11
					},
					"indices":12,
					"material":1
				}
			]
		}
	],
	"textures":[
		{
			"sampler":0,
			"source":0
		},
		{
			"sampler":0,
			"source":0
		}
	],
	"images":[
		{
			"mimeType":"image/png",
			"name":"PropTex.png",
			"uri":"PropTex.png"
		}
	],
	"skins":[
		{
			"inverseBindMatrices":6,
			"joints":[
				0
			],
			"name":"DrumTower_Destruct"
		}
	],
	"accessors":[
		{
			"bufferView":0,
			"componentType":5126,
			"count":96,
			"max":[
				0.8808215856552124,
				1.669075608253479,
				0.803310751914978
			],
			"min":[
				-0.8418022394180298,
				0.1799182891845703,
				-0.7698924541473389
			],
			"type":"VEC3"
		},
		{
			"bufferView":1,
			"componentType":5126,
			"count":96,
			"type":"VEC3"
		},
		{
			"bufferView":2,
			"componentType":5126,
			"count":96,
			"type":"VEC2"
		},
		{
			"bufferView":3,
			"componentType":5121,
			"count":96,
			"type":"VEC4"
		},
		{
			"bufferView":4,
			"componentType":5126,
			"count":96,
			"type":"VEC4"
		},
		{
			"bufferView":5,
			"componentType":5123,
			"count":168,
			"type":"SCALAR"
		},
		{
			"bufferView":6,
			"componentType":5126,
			"count":1,
			"type":"MAT4"
		},
		{
			"bufferView":7,
			"componentType":5126,
			"count":5682,
			"max":[
				0.8249104022979736,
				1.3701443672180176,
				1.24138343334198
			],
			"min":[
				-0.9618885517120361,
				-0.14120526611804962,
				-0.9075061082839966
			],
			"type":"VEC3"
		},
		{
			"bufferView":8,
			"componentType":5126,
			"count":5682,
			"type":"VEC3"
		},
		{
			"bufferView":9,
			"componentType":5126,
			"count":5682,
			"type":"VEC2"
		},
		{
			"bufferView":10,
			"componentType":5121,
			"count":5682,
			"type":"VEC4"
		},
		{
			"bufferView":11,
			"componentType":5126,
			"count":5682,
			"type":"VEC4"
		},
		{
			"bufferView":12,
			"componentType":5123,
			"count":20628,
			"type":"SCALAR"
		}
	],
	"bufferViews":[
		{
			"buffer":0,
			"byteLength":1152,
			"byteOffset":0,
			"target":34962
		},
		{
			"buffer":0,
			"byteLength":1152,
			"byteOffset":1152,
			"target":34962
		},
		{
			"buffer":0,
			"byteLength":768,
			"byteOffset":2304,
			"target":34962
		},
		{
			"buffer":0,
			"byteLength":384,
			"byteOffset":3072,
			"target":34962
		},
		{
			"buffer":0,
			"byteLength":1536,
			"byteOffset":3456,
			"target":34962
		},
		{
			"buffer":0,
			"byteLength":336,
			"byteOffset":4992,
			"target":34963
		},
		{
			"buffer":0,
			"byteLength":64,
			"byteOffset":5328
		},
		{
			"buffer":0,
			"byteLength":68184,
			"byteOffset":5392,
			"target":34962
		},
		{
			"buffer":0,
			"byteLength":68184,
			"byteOffset":73576,
			"target":34962
		},
		{
			"buffer":0,
			"byteLength":45456,
			"byteOffset":141760,
			"target":34962
		},
		{
			"buffer":0,
			"byteLength":22728,
			"byteOffset":187216,
			"target":34962
		},
		{
			"buffer":0,
			"byteLength":90912,
			"byteOffset":209944,
			"target":34962
		},
		{
			"buffer":0,
			"byteLength":41256,
			"byteOffset":300856,
			"target":34963
		}
	],
	"samplers":[
		{
			"magFilter":9729,
			"minFilter":9987
		}
	],
	"buffers":[
		{
			"byteLength":342112,
			"uri":"DrumTower_Destruct.bin"
		}
	]
}
