{
	"asset":{
		"generator":"Khronos glTF Blender I/O v4.3.47",
		"version":"2.0"
	},
	"scene":0,
	"scenes":[
		{
			"name":"Scene",
			"nodes":[
				2
			]
		}
	],
	"nodes":[
		{
			"name":"Bone"
		},
		{
			"mesh":0,
			"name":"Building3",
			"skin":0
		},
		{
			"children":[
				1,
				0
			],
			"name":"Building3_Armature"
		}
	],
	"materials":[
		{
			"doubleSided":true,
			"name":"BuildingMaterial",
			"pbrMetallicRoughness":{
				"baseColorTexture":{
					"index":0
				},
				"metallicFactor":0,
				"roughnessFactor":0.5
			}
		}
	],
	"meshes":[
		{
			"name":"Cube",
			"primitives":[
				{
					"attributes":{
						"POSITION":0,
						"NORMAL":1,
						"TEXCOORD_0":2,
						"JOINTS_0":3,
						"WEIGHTS_0":4
					},
					"indices":5,
					"material":0
				}
			]
		}
	],
	"textures":[
		{
			"sampler":0,
			"source":0
		}
	],
	"images":[
		{
			"mimeType":"image/png",
			"name":"BuildingTex",
			"uri":"BuildingTex.png"
		}
	],
	"skins":[
		{
			"inverseBindMatrices":6,
			"joints":[
				0
			],
			"name":"Building3_Armature"
		}
	],
	"accessors":[
		{
			"bufferView":0,
			"componentType":5126,
			"count":775,
			"max":[
				61.25,
				20,
				10.75
			],
			"min":[
				-61.25,
				-5.960464477539063e-08,
				-10.75
			],
			"type":"VEC3"
		},
		{
			"bufferView":1,
			"componentType":5126,
			"count":775,
			"type":"VEC3"
		},
		{
			"bufferView":2,
			"componentType":5126,
			"count":775,
			"type":"VEC2"
		},
		{
			"bufferView":3,
			"componentType":5121,
			"count":775,
			"type":"VEC4"
		},
		{
			"bufferView":4,
			"componentType":5126,
			"count":775,
			"type":"VEC4"
		},
		{
			"bufferView":5,
			"componentType":5123,
			"count":1572,
			"type":"SCALAR"
		},
		{
			"bufferView":6,
			"componentType":5126,
			"count":1,
			"type":"MAT4"
		}
	],
	"bufferViews":[
		{
			"buffer":0,
			"byteLength":9300,
			"byteOffset":0,
			"target":34962
		},
		{
			"buffer":0,
			"byteLength":9300,
			"byteOffset":9300,
			"target":34962
		},
		{
			"buffer":0,
			"byteLength":6200,
			"byteOffset":18600,
			"target":34962
		},
		{
			"buffer":0,
			"byteLength":3100,
			"byteOffset":24800,
			"target":34962
		},
		{
			"buffer":0,
			"byteLength":12400,
			"byteOffset":27900,
			"target":34962
		},
		{
			"buffer":0,
			"byteLength":3144,
			"byteOffset":40300,
			"target":34963
		},
		{
			"buffer":0,
			"byteLength":64,
			"byteOffset":43444
		}
	],
	"samplers":[
		{
			"magFilter":9729,
			"minFilter":9987
		}
	],
	"buffers":[
		{
			"byteLength":43508,
			"uri":"Building3.bin"
		}
	]
}
