{
	"asset":{
		"generator":"Khronos glTF Blender I/O v4.3.47",
		"version":"2.0"
	},
	"scene":0,
	"scenes":[
		{
			"name":"Scene",
			"nodes":[
				3
			]
		}
	],
	"nodes":[
		{
			"name":"Bone"
		},
		{
			"name":"neutral_bone",
			"rotation":[
				-0.7071067690849304,
				0,
				0,
				0.7071067690849304
			]
		},
		{
			"mesh":0,
			"name":"Building",
			"skin":0
		},
		{
			"children":[
				2,
				0,
				1
			],
			"name":"Armature"
		}
	],
	"materials":[
		{
			"doubleSided":true,
			"name":"Material",
			"pbrMetallicRoughness":{
				"baseColorFactor":[
					0.800000011920929,
					0.800000011920929,
					0.800000011920929,
					1
				],
				"metallicFactor":0,
				"roughnessFactor":0.5
			}
		}
	],
	"meshes":[
		{
			"name":"\u7acb\u65b9\u4f53.006",
			"primitives":[
				{
					"attributes":{
						"POSITION":0,
						"NORMAL":1,
						"TEXCOORD_0":2,
						"JOINTS_0":3,
						"WEIGHTS_0":4
					},
					"indices":5,
					"material":0
				}
			]
		}
	],
	"skins":[
		{
			"inverseBindMatrices":6,
			"joints":[
				0,
				1
			],
			"name":"Armature"
		}
	],
	"accessors":[
		{
			"bufferView":0,
			"componentType":5126,
			"count":7303,
			"max":[
				18.788965225219727,
				107,
				20.88388442993164
			],
			"min":[
				-11.319072723388672,
				0,
				-20.88388442993164
			],
			"type":"VEC3"
		},
		{
			"bufferView":1,
			"componentType":5126,
			"count":7303,
			"type":"VEC3"
		},
		{
			"bufferView":2,
			"componentType":5126,
			"count":7303,
			"type":"VEC2"
		},
		{
			"bufferView":3,
			"componentType":5121,
			"count":7303,
			"type":"VEC4"
		},
		{
			"bufferView":4,
			"componentType":5126,
			"count":7303,
			"type":"VEC4"
		},
		{
			"bufferView":5,
			"componentType":5123,
			"count":13296,
			"type":"SCALAR"
		},
		{
			"bufferView":6,
			"componentType":5126,
			"count":2,
			"type":"MAT4"
		}
	],
	"bufferViews":[
		{
			"buffer":0,
			"byteLength":87636,
			"byteOffset":0,
			"target":34962
		},
		{
			"buffer":0,
			"byteLength":87636,
			"byteOffset":87636,
			"target":34962
		},
		{
			"buffer":0,
			"byteLength":58424,
			"byteOffset":175272,
			"target":34962
		},
		{
			"buffer":0,
			"byteLength":29212,
			"byteOffset":233696,
			"target":34962
		},
		{
			"buffer":0,
			"byteLength":116848,
			"byteOffset":262908,
			"target":34962
		},
		{
			"buffer":0,
			"byteLength":26592,
			"byteOffset":379756,
			"target":34963
		},
		{
			"buffer":0,
			"byteLength":128,
			"byteOffset":406348
		}
	],
	"buffers":[
		{
			"byteLength":406476,
			"uri":"Building2.bin"
		}
	]
}
