{
	"asset":{
		"generator":"Khronos glTF Blender I/O v4.3.47",
		"version":"2.0"
	},
	"scene":0,
	"scenes":[
		{
			"name":"Scene",
			"nodes":[
				6
			]
		}
	],
	"nodes":[
		{
			"name":"Muzzle",
			"rotation":[
				0.7071067690849304,
				-3.90559847573968e-07,
				-3.90559847573968e-07,
				0.7071067690849304
			],
			"translation":[
				-0.8999997973442078,
				0.07630503177642822,
				2.071280002593994
			]
		},
		{
			"children":[
				0
			],
			"name":"Grip"
		},
		{
			"mesh":0,
			"name":"M_Body",
			"skin":0
		},
		{
			"mesh":1,
			"name":"M_Body2",
			"skin":0
		},
		{
			"mesh":2,
			"name":"M_Grip",
			"skin":0
		},
		{
			"mesh":3,
			"name":"M_MissleMag",
			"skin":0
		},
		{
			"children":[
				2,
				3,
				4,
				5,
				1
			],
			"name":"MissilePod"
		}
	],
	"materials":[
		{
			"doubleSided":true,
			"name":"GunMaterial",
			"pbrMetallicRoughness":{
				"baseColorTexture":{
					"index":0
				},
				"metallicFactor":0,
				"roughnessFactor":0.5
			}
		}
	],
	"meshes":[
		{
			"name":"Cube.002",
			"primitives":[
				{
					"attributes":{
						"POSITION":0,
						"NORMAL":1,
						"TEXCOORD_0":2,
						"JOINTS_0":3,
						"WEIGHTS_0":4
					},
					"indices":5,
					"material":0
				}
			]
		},
		{
			"name":"Cube.003",
			"primitives":[
				{
					"attributes":{
						"POSITION":7,
						"NORMAL":8,
						"TEXCOORD_0":9,
						"JOINTS_0":10,
						"WEIGHTS_0":11
					},
					"indices":12,
					"material":0
				}
			]
		},
		{
			"name":"Cube",
			"primitives":[
				{
					"attributes":{
						"POSITION":13,
						"NORMAL":14,
						"TEXCOORD_0":15,
						"JOINTS_0":16,
						"WEIGHTS_0":17
					},
					"indices":18,
					"material":0
				}
			]
		},
		{
			"name":"Cube.001",
			"primitives":[
				{
					"attributes":{
						"POSITION":19,
						"NORMAL":20,
						"TEXCOORD_0":21,
						"JOINTS_0":22,
						"WEIGHTS_0":23
					},
					"indices":24,
					"material":0
				}
			]
		}
	],
	"textures":[
		{
			"sampler":0,
			"source":0
		}
	],
	"images":[
		{
			"mimeType":"image/png",
			"name":"MissilePodTex",
			"uri":"MissilePodTex.png"
		}
	],
	"skins":[
		{
			"inverseBindMatrices":6,
			"joints":[
				1,
				0
			],
			"name":"MissilePod"
		}
	],
	"accessors":[
		{
			"bufferView":0,
			"componentType":5126,
			"count":152,
			"max":[
				-0.36000001430511475,
				0.9137510657310486,
				0.839215874671936
			],
			"min":[
				-1.440000057220459,
				-0.8999999761581421,
				-0.20078441500663757
			],
			"type":"VEC3"
		},
		{
			"bufferView":1,
			"componentType":5126,
			"count":152,
			"type":"VEC3"
		},
		{
			"bufferView":2,
			"componentType":5126,
			"count":152,
			"type":"VEC2"
		},
		{
			"bufferView":3,
			"componentType":5121,
			"count":152,
			"type":"VEC4"
		},
		{
			"bufferView":4,
			"componentType":5126,
			"count":152,
			"type":"VEC4"
		},
		{
			"bufferView":5,
			"componentType":5123,
			"count":276,
			"type":"SCALAR"
		},
		{
			"bufferView":6,
			"componentType":5126,
			"count":2,
			"type":"MAT4"
		},
		{
			"bufferView":7,
			"componentType":5126,
			"count":1791,
			"max":[
				-0.31800001859664917,
				1.077832579612732,
				1.684882640838623
			],
			"min":[
				-1.4820001125335693,
				-0.8500001430511475,
				-1.03811776638031
			],
			"type":"VEC3"
		},
		{
			"bufferView":8,
			"componentType":5126,
			"count":1791,
			"type":"VEC3"
		},
		{
			"bufferView":9,
			"componentType":5126,
			"count":1791,
			"type":"VEC2"
		},
		{
			"bufferView":10,
			"componentType":5121,
			"count":1791,
			"type":"VEC4"
		},
		{
			"bufferView":11,
			"componentType":5126,
			"count":1791,
			"type":"VEC4"
		},
		{
			"bufferView":12,
			"componentType":5123,
			"count":3072,
			"type":"SCALAR"
		},
		{
			"bufferView":13,
			"componentType":5126,
			"count":312,
			"max":[
				0.10000002384185791,
				0.44700002670288086,
				0.8403669595718384
			],
			"min":[
				-0.3600000739097595,
				-0.5869999527931213,
				-0.10713794827461243
			],
			"type":"VEC3"
		},
		{
			"bufferView":14,
			"componentType":5126,
			"count":312,
			"type":"VEC3"
		},
		{
			"bufferView":15,
			"componentType":5126,
			"count":312,
			"type":"VEC2"
		},
		{
			"bufferView":16,
			"componentType":5121,
			"count":312,
			"type":"VEC4"
		},
		{
			"bufferView":17,
			"componentType":5126,
			"count":312,
			"type":"VEC4"
		},
		{
			"bufferView":18,
			"componentType":5123,
			"count":648,
			"type":"SCALAR"
		},
		{
			"bufferView":19,
			"componentType":5126,
			"count":3360,
			"max":[
				-0.5966718792915344,
				0.8833270072937012,
				2.099438428878784
			],
			"min":[
				-1.2133268117904663,
				-0.7331966757774353,
				-1.3391178846359253
			],
			"type":"VEC3"
		},
		{
			"bufferView":20,
			"componentType":5126,
			"count":3360,
			"type":"VEC3"
		},
		{
			"bufferView":21,
			"componentType":5126,
			"count":3360,
			"type":"VEC2"
		},
		{
			"bufferView":22,
			"componentType":5121,
			"count":3360,
			"type":"VEC4"
		},
		{
			"bufferView":23,
			"componentType":5126,
			"count":3360,
			"type":"VEC4"
		},
		{
			"bufferView":24,
			"componentType":5123,
			"count":7008,
			"type":"SCALAR"
		}
	],
	"bufferViews":[
		{
			"buffer":0,
			"byteLength":1824,
			"byteOffset":0,
			"target":34962
		},
		{
			"buffer":0,
			"byteLength":1824,
			"byteOffset":1824,
			"target":34962
		},
		{
			"buffer":0,
			"byteLength":1216,
			"byteOffset":3648,
			"target":34962
		},
		{
			"buffer":0,
			"byteLength":608,
			"byteOffset":4864,
			"target":34962
		},
		{
			"buffer":0,
			"byteLength":2432,
			"byteOffset":5472,
			"target":34962
		},
		{
			"buffer":0,
			"byteLength":552,
			"byteOffset":7904,
			"target":34963
		},
		{
			"buffer":0,
			"byteLength":128,
			"byteOffset":8456
		},
		{
			"buffer":0,
			"byteLength":21492,
			"byteOffset":8584,
			"target":34962
		},
		{
			"buffer":0,
			"byteLength":21492,
			"byteOffset":30076,
			"target":34962
		},
		{
			"buffer":0,
			"byteLength":14328,
			"byteOffset":51568,
			"target":34962
		},
		{
			"buffer":0,
			"byteLength":7164,
			"byteOffset":65896,
			"target":34962
		},
		{
			"buffer":0,
			"byteLength":28656,
			"byteOffset":73060,
			"target":34962
		},
		{
			"buffer":0,
			"byteLength":6144,
			"byteOffset":101716,
			"target":34963
		},
		{
			"buffer":0,
			"byteLength":3744,
			"byteOffset":107860,
			"target":34962
		},
		{
			"buffer":0,
			"byteLength":3744,
			"byteOffset":111604,
			"target":34962
		},
		{
			"buffer":0,
			"byteLength":2496,
			"byteOffset":115348,
			"target":34962
		},
		{
			"buffer":0,
			"byteLength":1248,
			"byteOffset":117844,
			"target":34962
		},
		{
			"buffer":0,
			"byteLength":4992,
			"byteOffset":119092,
			"target":34962
		},
		{
			"buffer":0,
			"byteLength":1296,
			"byteOffset":124084,
			"target":34963
		},
		{
			"buffer":0,
			"byteLength":40320,
			"byteOffset":125380,
			"target":34962
		},
		{
			"buffer":0,
			"byteLength":40320,
			"byteOffset":165700,
			"target":34962
		},
		{
			"buffer":0,
			"byteLength":26880,
			"byteOffset":206020,
			"target":34962
		},
		{
			"buffer":0,
			"byteLength":13440,
			"byteOffset":232900,
			"target":34962
		},
		{
			"buffer":0,
			"byteLength":53760,
			"byteOffset":246340,
			"target":34962
		},
		{
			"buffer":0,
			"byteLength":14016,
			"byteOffset":300100,
			"target":34963
		}
	],
	"samplers":[
		{
			"magFilter":9729,
			"minFilter":9987
		}
	],
	"buffers":[
		{
			"byteLength":314116,
			"uri":"MissilePod_R.bin"
		}
	]
}
