{
	"asset":{
		"generator":"Khronos glTF Blender I/O v4.3.47",
		"version":"2.0"
	},
	"scene":0,
	"scenes":[
		{
			"name":"Scene",
			"nodes":[
				6
			]
		}
	],
	"nodes":[
		{
			"name":"Muzzle",
			"rotation":[
				0.7071067690849304,
				-3.6808341974392533e-07,
				-3.6808341974392533e-07,
				0.7071067690849304
			],
			"translation":[
				0.8999997973442078,
				0.07630503177642822,
				2.071280002593994
			]
		},
		{
			"children":[
				0
			],
			"name":"Grip"
		},
		{
			"mesh":0,
			"name":"M_Body",
			"skin":0
		},
		{
			"mesh":1,
			"name":"M_Body2",
			"skin":0
		},
		{
			"mesh":2,
			"name":"M_Grip",
			"skin":0
		},
		{
			"mesh":3,
			"name":"M_MissleMag",
			"skin":0
		},
		{
			"children":[
				2,
				3,
				4,
				5,
				1
			],
			"name":"MissilePod"
		}
	],
	"materials":[
		{
			"doubleSided":true,
			"name":"GunMaterial",
			"pbrMetallicRoughness":{
				"baseColorTexture":{
					"index":0
				},
				"metallicFactor":0,
				"roughnessFactor":0.5
			}
		}
	],
	"meshes":[
		{
			"name":"Cube.002",
			"primitives":[
				{
					"attributes":{
						"POSITION":0,
						"NORMAL":1,
						"TEXCOORD_0":2,
						"JOINTS_0":3,
						"WEIGHTS_0":4
					},
					"indices":5,
					"material":0
				}
			]
		},
		{
			"name":"Cube.003",
			"primitives":[
				{
					"attributes":{
						"POSITION":7,
						"NORMAL":8,
						"TEXCOORD_0":9,
						"JOINTS_0":10,
						"WEIGHTS_0":11
					},
					"indices":12,
					"material":0
				}
			]
		},
		{
			"name":"Cube",
			"primitives":[
				{
					"attributes":{
						"POSITION":13,
						"NORMAL":14,
						"TEXCOORD_0":15,
						"JOINTS_0":16,
						"WEIGHTS_0":17
					},
					"indices":18,
					"material":0
				}
			]
		},
		{
			"name":"Cube.001",
			"primitives":[
				{
					"attributes":{
						"POSITION":19,
						"NORMAL":20,
						"TEXCOORD_0":21,
						"JOINTS_0":22,
						"WEIGHTS_0":23
					},
					"indices":24,
					"material":0
				}
			]
		}
	],
	"textures":[
		{
			"sampler":0,
			"source":0
		}
	],
	"images":[
		{
			"mimeType":"image/png",
			"name":"MissilePodTex",
			"uri":"MissilePodTex.png"
		}
	],
	"skins":[
		{
			"inverseBindMatrices":6,
			"joints":[
				1,
				0
			],
			"name":"MissilePod"
		}
	],
	"accessors":[
		{
			"bufferView":0,
			"componentType":5126,
			"count":152,
			"max":[
				1.440000057220459,
				0.9137510061264038,
				0.8392158150672913
			],
			"min":[
				0.36000001430511475,
				-0.8999999761581421,
				-0.2007843405008316
			],
			"type":"VEC3"
		},
		{
			"bufferView":1,
			"componentType":5126,
			"count":152,
			"type":"VEC3"
		},
		{
			"bufferView":2,
			"componentType":5126,
			"count":152,
			"type":"VEC2"
		},
		{
			"bufferView":3,
			"componentType":5121,
			"count":152,
			"type":"VEC4"
		},
		{
			"bufferView":4,
			"componentType":5126,
			"count":152,
			"type":"VEC4"
		},
		{
			"bufferView":5,
			"componentType":5123,
			"count":276,
			"type":"SCALAR"
		},
		{
			"bufferView":6,
			"componentType":5126,
			"count":2,
			"type":"MAT4"
		},
		{
			"bufferView":7,
			"componentType":5126,
			"count":1788,
			"max":[
				1.4820001125335693,
				1.0778324604034424,
				1.6848825216293335
			],
			"min":[
				0.31800001859664917,
				-0.8500000834465027,
				-1.0381176471710205
			],
			"type":"VEC3"
		},
		{
			"bufferView":8,
			"componentType":5126,
			"count":1788,
			"type":"VEC3"
		},
		{
			"bufferView":9,
			"componentType":5126,
			"count":1788,
			"type":"VEC2"
		},
		{
			"bufferView":10,
			"componentType":5121,
			"count":1788,
			"type":"VEC4"
		},
		{
			"bufferView":11,
			"componentType":5126,
			"count":1788,
			"type":"VEC4"
		},
		{
			"bufferView":12,
			"componentType":5123,
			"count":3072,
			"type":"SCALAR"
		},
		{
			"bufferView":13,
			"componentType":5126,
			"count":312,
			"max":[
				0.3600000739097595,
				0.4469999670982361,
				0.8403668999671936
			],
			"min":[
				-0.10000002384185791,
				-0.5869999527931213,
				-0.10713793337345123
			],
			"type":"VEC3"
		},
		{
			"bufferView":14,
			"componentType":5126,
			"count":312,
			"type":"VEC3"
		},
		{
			"bufferView":15,
			"componentType":5126,
			"count":312,
			"type":"VEC2"
		},
		{
			"bufferView":16,
			"componentType":5121,
			"count":312,
			"type":"VEC4"
		},
		{
			"bufferView":17,
			"componentType":5126,
			"count":312,
			"type":"VEC4"
		},
		{
			"bufferView":18,
			"componentType":5123,
			"count":648,
			"type":"SCALAR"
		},
		{
			"bufferView":19,
			"componentType":5126,
			"count":3360,
			"max":[
				1.2133268117904663,
				0.8833268284797668,
				2.099438428878784
			],
			"min":[
				0.5966718792915344,
				-0.7331968545913696,
				-1.3391177654266357
			],
			"type":"VEC3"
		},
		{
			"bufferView":20,
			"componentType":5126,
			"count":3360,
			"type":"VEC3"
		},
		{
			"bufferView":21,
			"componentType":5126,
			"count":3360,
			"type":"VEC2"
		},
		{
			"bufferView":22,
			"componentType":5121,
			"count":3360,
			"type":"VEC4"
		},
		{
			"bufferView":23,
			"componentType":5126,
			"count":3360,
			"type":"VEC4"
		},
		{
			"bufferView":24,
			"componentType":5123,
			"count":7008,
			"type":"SCALAR"
		}
	],
	"bufferViews":[
		{
			"buffer":0,
			"byteLength":1824,
			"byteOffset":0,
			"target":34962
		},
		{
			"buffer":0,
			"byteLength":1824,
			"byteOffset":1824,
			"target":34962
		},
		{
			"buffer":0,
			"byteLength":1216,
			"byteOffset":3648,
			"target":34962
		},
		{
			"buffer":0,
			"byteLength":608,
			"byteOffset":4864,
			"target":34962
		},
		{
			"buffer":0,
			"byteLength":2432,
			"byteOffset":5472,
			"target":34962
		},
		{
			"buffer":0,
			"byteLength":552,
			"byteOffset":7904,
			"target":34963
		},
		{
			"buffer":0,
			"byteLength":128,
			"byteOffset":8456
		},
		{
			"buffer":0,
			"byteLength":21456,
			"byteOffset":8584,
			"target":34962
		},
		{
			"buffer":0,
			"byteLength":21456,
			"byteOffset":30040,
			"target":34962
		},
		{
			"buffer":0,
			"byteLength":14304,
			"byteOffset":51496,
			"target":34962
		},
		{
			"buffer":0,
			"byteLength":7152,
			"byteOffset":65800,
			"target":34962
		},
		{
			"buffer":0,
			"byteLength":28608,
			"byteOffset":72952,
			"target":34962
		},
		{
			"buffer":0,
			"byteLength":6144,
			"byteOffset":101560,
			"target":34963
		},
		{
			"buffer":0,
			"byteLength":3744,
			"byteOffset":107704,
			"target":34962
		},
		{
			"buffer":0,
			"byteLength":3744,
			"byteOffset":111448,
			"target":34962
		},
		{
			"buffer":0,
			"byteLength":2496,
			"byteOffset":115192,
			"target":34962
		},
		{
			"buffer":0,
			"byteLength":1248,
			"byteOffset":117688,
			"target":34962
		},
		{
			"buffer":0,
			"byteLength":4992,
			"byteOffset":118936,
			"target":34962
		},
		{
			"buffer":0,
			"byteLength":1296,
			"byteOffset":123928,
			"target":34963
		},
		{
			"buffer":0,
			"byteLength":40320,
			"byteOffset":125224,
			"target":34962
		},
		{
			"buffer":0,
			"byteLength":40320,
			"byteOffset":165544,
			"target":34962
		},
		{
			"buffer":0,
			"byteLength":26880,
			"byteOffset":205864,
			"target":34962
		},
		{
			"buffer":0,
			"byteLength":13440,
			"byteOffset":232744,
			"target":34962
		},
		{
			"buffer":0,
			"byteLength":53760,
			"byteOffset":246184,
			"target":34962
		},
		{
			"buffer":0,
			"byteLength":14016,
			"byteOffset":299944,
			"target":34963
		}
	],
	"samplers":[
		{
			"magFilter":9729,
			"minFilter":9987
		}
	],
	"buffers":[
		{
			"byteLength":313960,
			"uri":"MissilePod_L.bin"
		}
	]
}
