{
	"asset":{
		"generator":"Khronos glTF Blender I/O v4.3.47",
		"version":"2.0"
	},
	"scene":0,
	"scenes":[
		{
			"name":"Scene",
			"nodes":[
				2
			]
		}
	],
	"nodes":[
		{
			"name":"Bone"
		},
		{
			"mesh":0,
			"name":"M_CurveRoad",
			"skin":0
		},
		{
			"children":[
				1,
				0
			],
			"name":"CurveRoad"
		}
	],
	"materials":[
		{
			"doubleSided":true,
			"name":"RoadMaterial",
			"pbrMetallicRoughness":{
				"baseColorTexture":{
					"index":0
				},
				"metallicFactor":0,
				"roughnessFactor":0.5
			}
		}
	],
	"meshes":[
		{
			"name":"Plane.001",
			"primitives":[
				{
					"attributes":{
						"POSITION":0,
						"NORMAL":1,
						"TEXCOORD_0":2,
						"JOINTS_0":3,
						"WEIGHTS_0":4
					},
					"indices":5,
					"material":0
				}
			]
		}
	],
	"textures":[
		{
			"sampler":0,
			"source":0
		}
	],
	"images":[
		{
			"mimeType":"image/png",
			"name":"RoadTex",
			"uri":"RoadTex.png"
		}
	],
	"skins":[
		{
			"inverseBindMatrices":6,
			"joints":[
				0
			],
			"name":"CurveRoad"
		}
	],
	"accessors":[
		{
			"bufferView":0,
			"componentType":5126,
			"count":88,
			"max":[
				24,
				2.0000014305114746,
				0
			],
			"min":[
				-4,
				-3.8146965835039737e-06,
				-28
			],
			"type":"VEC3"
		},
		{
			"bufferView":1,
			"componentType":5126,
			"count":88,
			"type":"VEC3"
		},
		{
			"bufferView":2,
			"componentType":5126,
			"count":88,
			"type":"VEC2"
		},
		{
			"bufferView":3,
			"componentType":5121,
			"count":88,
			"type":"VEC4"
		},
		{
			"bufferView":4,
			"componentType":5126,
			"count":88,
			"type":"VEC4"
		},
		{
			"bufferView":5,
			"componentType":5123,
			"count":204,
			"type":"SCALAR"
		},
		{
			"bufferView":6,
			"componentType":5126,
			"count":1,
			"type":"MAT4"
		}
	],
	"bufferViews":[
		{
			"buffer":0,
			"byteLength":1056,
			"byteOffset":0,
			"target":34962
		},
		{
			"buffer":0,
			"byteLength":1056,
			"byteOffset":1056,
			"target":34962
		},
		{
			"buffer":0,
			"byteLength":704,
			"byteOffset":2112,
			"target":34962
		},
		{
			"buffer":0,
			"byteLength":352,
			"byteOffset":2816,
			"target":34962
		},
		{
			"buffer":0,
			"byteLength":1408,
			"byteOffset":3168,
			"target":34962
		},
		{
			"buffer":0,
			"byteLength":408,
			"byteOffset":4576,
			"target":34963
		},
		{
			"buffer":0,
			"byteLength":64,
			"byteOffset":4984
		}
	],
	"samplers":[
		{
			"magFilter":9729,
			"minFilter":9987
		}
	],
	"buffers":[
		{
			"byteLength":5048,
			"uri":"CurveRoad.bin"
		}
	]
}
