{
	"asset":{
		"generator":"Khronos glTF Blender I/O v4.3.47",
		"version":"2.0"
	},
	"scene":0,
	"scenes":[
		{
			"name":"Scene",
			"nodes":[
				2
			]
		}
	],
	"nodes":[
		{
			"name":"Bone"
		},
		{
			"mesh":0,
			"name":"M_StraightRoad_75",
			"skin":0
		},
		{
			"children":[
				1,
				0
			],
			"name":"StraightRoad_75"
		}
	],
	"materials":[
		{
			"doubleSided":true,
			"name":"RoadMaterial.001",
			"pbrMetallicRoughness":{
				"baseColorTexture":{
					"index":0
				},
				"metallicFactor":0,
				"roughnessFactor":0.5
			}
		}
	],
	"meshes":[
		{
			"name":"Plane.001",
			"primitives":[
				{
					"attributes":{
						"POSITION":0,
						"NORMAL":1,
						"TEXCOORD_0":2,
						"JOINTS_0":3,
						"WEIGHTS_0":4
					},
					"indices":5,
					"material":0
				}
			]
		}
	],
	"textures":[
		{
			"sampler":0,
			"source":0
		}
	],
	"images":[
		{
			"mimeType":"image/png",
			"name":"RoadTex",
			"uri":"RoadTex.png"
		}
	],
	"skins":[
		{
			"inverseBindMatrices":6,
			"joints":[
				0
			],
			"name":"StraightRoad_75"
		}
	],
	"accessors":[
		{
			"bufferView":0,
			"componentType":5126,
			"count":40,
			"max":[
				8,
				0,
				37.500003814697266
			],
			"min":[
				-8,
				0,
				-37.500003814697266
			],
			"type":"VEC3"
		},
		{
			"bufferView":1,
			"componentType":5126,
			"count":40,
			"type":"VEC3"
		},
		{
			"bufferView":2,
			"componentType":5126,
			"count":40,
			"type":"VEC2"
		},
		{
			"bufferView":3,
			"componentType":5121,
			"count":40,
			"type":"VEC4"
		},
		{
			"bufferView":4,
			"componentType":5126,
			"count":40,
			"type":"VEC4"
		},
		{
			"bufferView":5,
			"componentType":5123,
			"count":168,
			"type":"SCALAR"
		},
		{
			"bufferView":6,
			"componentType":5126,
			"count":1,
			"type":"MAT4"
		}
	],
	"bufferViews":[
		{
			"buffer":0,
			"byteLength":480,
			"byteOffset":0,
			"target":34962
		},
		{
			"buffer":0,
			"byteLength":480,
			"byteOffset":480,
			"target":34962
		},
		{
			"buffer":0,
			"byteLength":320,
			"byteOffset":960,
			"target":34962
		},
		{
			"buffer":0,
			"byteLength":160,
			"byteOffset":1280,
			"target":34962
		},
		{
			"buffer":0,
			"byteLength":640,
			"byteOffset":1440,
			"target":34962
		},
		{
			"buffer":0,
			"byteLength":336,
			"byteOffset":2080,
			"target":34963
		},
		{
			"buffer":0,
			"byteLength":64,
			"byteOffset":2416
		}
	],
	"samplers":[
		{
			"magFilter":9729,
			"minFilter":9987
		}
	],
	"buffers":[
		{
			"byteLength":2480,
			"uri":"Road_75m.bin"
		}
	]
}
