{
	"asset":{
		"generator":"Khronos glTF Blender I/O v4.3.47",
		"version":"2.0"
	},
	"scene":0,
	"scenes":[
		{
			"name":"Scene",
			"nodes":[
				11
			]
		}
	],
	"nodes":[
		{
			"name":"Muzzle",
			"rotation":[
				0.7071067094802856,
				-1.9949595753132598e-07,
				-1.9949595753132598e-07,
				0.7071068286895752
			],
			"scale":[
				1,
				0.9999999403953552,
				0.9999999403953552
			],
			"translation":[
				0,
				0.630806028842926,
				5.834670066833496
			]
		},
		{
			"name":"CartEject",
			"rotation":[
				0.7071067690849304,
				-1.9949601437474485e-07,
				-1.9949601437474485e-07,
				0.7071067690849304
			],
			"translation":[
				0,
				0.630806028842926,
				1.2000000476837158
			]
		},
		{
			"children":[
				0,
				1
			],
			"name":"Grip"
		},
		{
			"mesh":0,
			"name":"Barrel",
			"skin":0
		},
		{
			"mesh":1,
			"name":"BarrelCover",
			"skin":0
		},
		{
			"mesh":2,
			"name":"Body",
			"skin":0
		},
		{
			"mesh":3,
			"name":"Grip",
			"skin":0
		},
		{
			"mesh":4,
			"name":"Lazer",
			"skin":0
		},
		{
			"mesh":5,
			"name":"LazerMount",
			"skin":0
		},
		{
			"mesh":6,
			"name":"Magazine",
			"skin":0
		},
		{
			"mesh":7,
			"name":"SightMount",
			"skin":0
		},
		{
			"children":[
				3,
				4,
				5,
				6,
				7,
				8,
				9,
				10,
				2
			],
			"name":"MachinGun"
		}
	],
	"materials":[
		{
			"doubleSided":true,
			"name":"GunMaterial",
			"pbrMetallicRoughness":{
				"baseColorFactor":[
					0.800000011920929,
					0.800000011920929,
					0.800000011920929,
					1
				],
				"metallicFactor":0,
				"roughnessFactor":0.5
			}
		}
	],
	"meshes":[
		{
			"name":"Cylinder.001",
			"primitives":[
				{
					"attributes":{
						"POSITION":0,
						"NORMAL":1,
						"TEXCOORD_0":2,
						"JOINTS_0":3,
						"WEIGHTS_0":4
					},
					"indices":5,
					"material":0
				}
			]
		},
		{
			"name":"Cylinder",
			"primitives":[
				{
					"attributes":{
						"POSITION":7,
						"NORMAL":8,
						"TEXCOORD_0":9,
						"JOINTS_0":10,
						"WEIGHTS_0":11
					},
					"indices":12,
					"material":0
				}
			]
		},
		{
			"name":"Cube",
			"primitives":[
				{
					"attributes":{
						"POSITION":13,
						"NORMAL":14,
						"TEXCOORD_0":15,
						"JOINTS_0":16,
						"WEIGHTS_0":17
					},
					"indices":18,
					"material":0
				}
			]
		},
		{
			"name":"Cube.003",
			"primitives":[
				{
					"attributes":{
						"POSITION":19,
						"NORMAL":20,
						"TEXCOORD_0":21,
						"JOINTS_0":22,
						"WEIGHTS_0":23
					},
					"indices":24,
					"material":0
				}
			]
		},
		{
			"name":"Cylinder.002",
			"primitives":[
				{
					"attributes":{
						"POSITION":25,
						"NORMAL":26,
						"TEXCOORD_0":27,
						"JOINTS_0":28,
						"WEIGHTS_0":29
					},
					"indices":30,
					"material":0
				}
			]
		},
		{
			"name":"Cube.002",
			"primitives":[
				{
					"attributes":{
						"POSITION":31,
						"NORMAL":32,
						"TEXCOORD_0":33,
						"JOINTS_0":34,
						"WEIGHTS_0":35
					},
					"indices":36,
					"material":0
				}
			]
		},
		{
			"name":"Cube.001",
			"primitives":[
				{
					"attributes":{
						"POSITION":37,
						"NORMAL":38,
						"TEXCOORD_0":39,
						"JOINTS_0":40,
						"WEIGHTS_0":41
					},
					"indices":42,
					"material":0
				}
			]
		},
		{
			"name":"Cube.004",
			"primitives":[
				{
					"attributes":{
						"POSITION":43,
						"NORMAL":44,
						"TEXCOORD_0":45,
						"JOINTS_0":46,
						"WEIGHTS_0":47
					},
					"indices":48,
					"material":0
				}
			]
		}
	],
	"skins":[
		{
			"inverseBindMatrices":6,
			"joints":[
				2,
				0,
				1
			],
			"name":"MachinGun"
		}
	],
	"accessors":[
		{
			"bufferView":0,
			"componentType":5126,
			"count":1737,
			"max":[
				0.15430223941802979,
				0.9018280506134033,
				5.834670066833496
			],
			"min":[
				-0.1542913168668747,
				0.476508229970932,
				1.7655712366104126
			],
			"type":"VEC3"
		},
		{
			"bufferView":1,
			"componentType":5126,
			"count":1737,
			"type":"VEC3"
		},
		{
			"bufferView":2,
			"componentType":5126,
			"count":1737,
			"type":"VEC2"
		},
		{
			"bufferView":3,
			"componentType":5121,
			"count":1737,
			"type":"VEC4"
		},
		{
			"bufferView":4,
			"componentType":5126,
			"count":1737,
			"type":"VEC4"
		},
		{
			"bufferView":5,
			"componentType":5123,
			"count":6180,
			"type":"SCALAR"
		},
		{
			"bufferView":6,
			"componentType":5126,
			"count":3,
			"type":"MAT4"
		},
		{
			"bufferView":7,
			"componentType":5126,
			"count":557,
			"max":[
				0.14830529689788818,
				0.7791106104850769,
				4.819999694824219
			],
			"min":[
				-0.14830538630485535,
				0.15766409039497375,
				2.8299999237060547
			],
			"type":"VEC3"
		},
		{
			"bufferView":8,
			"componentType":5126,
			"count":557,
			"type":"VEC3"
		},
		{
			"bufferView":9,
			"componentType":5126,
			"count":557,
			"type":"VEC2"
		},
		{
			"bufferView":10,
			"componentType":5121,
			"count":557,
			"type":"VEC4"
		},
		{
			"bufferView":11,
			"componentType":5126,
			"count":557,
			"type":"VEC4"
		},
		{
			"bufferView":12,
			"componentType":5123,
			"count":1728,
			"type":"SCALAR"
		},
		{
			"bufferView":13,
			"componentType":5126,
			"count":460,
			"max":[
				0.15839999914169312,
				0.9130269885063171,
				3.0999999046325684
			],
			"min":[
				-0.15839999914169312,
				0.14000004529953003,
				-0.10000254958868027
			],
			"type":"VEC3"
		},
		{
			"bufferView":14,
			"componentType":5126,
			"count":460,
			"type":"VEC3"
		},
		{
			"bufferView":15,
			"componentType":5126,
			"count":460,
			"type":"VEC2"
		},
		{
			"bufferView":16,
			"componentType":5121,
			"count":460,
			"type":"VEC4"
		},
		{
			"bufferView":17,
			"componentType":5126,
			"count":460,
			"type":"VEC4"
		},
		{
			"bufferView":18,
			"componentType":5123,
			"count":1032,
			"type":"SCALAR"
		},
		{
			"bufferView":19,
			"componentType":5126,
			"count":82,
			"max":[
				0.14303302764892578,
				0.30000001192092896,
				0.2750209867954254
			],
			"min":[
				-0.14303302764892578,
				-0.582101047039032,
				-0.2669781446456909
			],
			"type":"VEC3"
		},
		{
			"bufferView":20,
			"componentType":5126,
			"count":82,
			"type":"VEC3"
		},
		{
			"bufferView":21,
			"componentType":5126,
			"count":82,
			"type":"VEC2"
		},
		{
			"bufferView":22,
			"componentType":5121,
			"count":82,
			"type":"VEC4"
		},
		{
			"bufferView":23,
			"componentType":5126,
			"count":82,
			"type":"VEC4"
		},
		{
			"bufferView":24,
			"componentType":5123,
			"count":168,
			"type":"SCALAR"
		},
		{
			"bufferView":25,
			"componentType":5126,
			"count":684,
			"max":[
				0.08925149589776993,
				1.1619999408721924,
				3.034818649291992
			],
			"min":[
				-0.08925147354602814,
				0.9007485508918762,
				1.3499999046325684
			],
			"type":"VEC3"
		},
		{
			"bufferView":26,
			"componentType":5126,
			"count":684,
			"type":"VEC3"
		},
		{
			"bufferView":27,
			"componentType":5126,
			"count":684,
			"type":"VEC2"
		},
		{
			"bufferView":28,
			"componentType":5121,
			"count":684,
			"type":"VEC4"
		},
		{
			"bufferView":29,
			"componentType":5126,
			"count":684,
			"type":"VEC4"
		},
		{
			"bufferView":30,
			"componentType":5123,
			"count":1908,
			"type":"SCALAR"
		},
		{
			"bufferView":31,
			"componentType":5126,
			"count":410,
			"max":[
				0.1579478681087494,
				1.220702886581421,
				2.129999876022339
			],
			"min":[
				-0.1579478681087494,
				0.6621279716491699,
				1.399999976158142
			],
			"type":"VEC3"
		},
		{
			"bufferView":32,
			"componentType":5126,
			"count":410,
			"type":"VEC3"
		},
		{
			"bufferView":33,
			"componentType":5126,
			"count":410,
			"type":"VEC2"
		},
		{
			"bufferView":34,
			"componentType":5121,
			"count":410,
			"type":"VEC4"
		},
		{
			"bufferView":35,
			"componentType":5126,
			"count":410,
			"type":"VEC4"
		},
		{
			"bufferView":36,
			"componentType":5123,
			"count":900,
			"type":"SCALAR"
		},
		{
			"bufferView":37,
			"componentType":5126,
			"count":72,
			"max":[
				0.15000000596046448,
				0.30000001192092896,
				2.599705457687378
			],
			"min":[
				-0.15000000596046448,
				-0.46000000834465027,
				0.7500000596046448
			],
			"type":"VEC3"
		},
		{
			"bufferView":38,
			"componentType":5126,
			"count":72,
			"type":"VEC3"
		},
		{
			"bufferView":39,
			"componentType":5126,
			"count":72,
			"type":"VEC2"
		},
		{
			"bufferView":40,
			"componentType":5121,
			"count":72,
			"type":"VEC4"
		},
		{
			"bufferView":41,
			"componentType":5126,
			"count":72,
			"type":"VEC4"
		},
		{
			"bufferView":42,
			"componentType":5123,
			"count":144,
			"type":"SCALAR"
		},
		{
			"bufferView":43,
			"componentType":5126,
			"count":465,
			"max":[
				0.17500001192092896,
				1.0299999713897705,
				0.6300000548362732
			],
			"min":[
				-0.17500001192092896,
				0.5616500973701477,
				-0.16999997198581696
			],
			"type":"VEC3"
		},
		{
			"bufferView":44,
			"componentType":5126,
			"count":465,
			"type":"VEC3"
		},
		{
			"bufferView":45,
			"componentType":5126,
			"count":465,
			"type":"VEC2"
		},
		{
			"bufferView":46,
			"componentType":5121,
			"count":465,
			"type":"VEC4"
		},
		{
			"bufferView":47,
			"componentType":5126,
			"count":465,
			"type":"VEC4"
		},
		{
			"bufferView":48,
			"componentType":5123,
			"count":1152,
			"type":"SCALAR"
		}
	],
	"bufferViews":[
		{
			"buffer":0,
			"byteLength":20844,
			"byteOffset":0,
			"target":34962
		},
		{
			"buffer":0,
			"byteLength":20844,
			"byteOffset":20844,
			"target":34962
		},
		{
			"buffer":0,
			"byteLength":13896,
			"byteOffset":41688,
			"target":34962
		},
		{
			"buffer":0,
			"byteLength":6948,
			"byteOffset":55584,
			"target":34962
		},
		{
			"buffer":0,
			"byteLength":27792,
			"byteOffset":62532,
			"target":34962
		},
		{
			"buffer":0,
			"byteLength":12360,
			"byteOffset":90324,
			"target":34963
		},
		{
			"buffer":0,
			"byteLength":192,
			"byteOffset":102684
		},
		{
			"buffer":0,
			"byteLength":6684,
			"byteOffset":102876,
			"target":34962
		},
		{
			"buffer":0,
			"byteLength":6684,
			"byteOffset":109560,
			"target":34962
		},
		{
			"buffer":0,
			"byteLength":4456,
			"byteOffset":116244,
			"target":34962
		},
		{
			"buffer":0,
			"byteLength":2228,
			"byteOffset":120700,
			"target":34962
		},
		{
			"buffer":0,
			"byteLength":8912,
			"byteOffset":122928,
			"target":34962
		},
		{
			"buffer":0,
			"byteLength":3456,
			"byteOffset":131840,
			"target":34963
		},
		{
			"buffer":0,
			"byteLength":5520,
			"byteOffset":135296,
			"target":34962
		},
		{
			"buffer":0,
			"byteLength":5520,
			"byteOffset":140816,
			"target":34962
		},
		{
			"buffer":0,
			"byteLength":3680,
			"byteOffset":146336,
			"target":34962
		},
		{
			"buffer":0,
			"byteLength":1840,
			"byteOffset":150016,
			"target":34962
		},
		{
			"buffer":0,
			"byteLength":7360,
			"byteOffset":151856,
			"target":34962
		},
		{
			"buffer":0,
			"byteLength":2064,
			"byteOffset":159216,
			"target":34963
		},
		{
			"buffer":0,
			"byteLength":984,
			"byteOffset":161280,
			"target":34962
		},
		{
			"buffer":0,
			"byteLength":984,
			"byteOffset":162264,
			"target":34962
		},
		{
			"buffer":0,
			"byteLength":656,
			"byteOffset":163248,
			"target":34962
		},
		{
			"buffer":0,
			"byteLength":328,
			"byteOffset":163904,
			"target":34962
		},
		{
			"buffer":0,
			"byteLength":1312,
			"byteOffset":164232,
			"target":34962
		},
		{
			"buffer":0,
			"byteLength":336,
			"byteOffset":165544,
			"target":34963
		},
		{
			"buffer":0,
			"byteLength":8208,
			"byteOffset":165880,
			"target":34962
		},
		{
			"buffer":0,
			"byteLength":8208,
			"byteOffset":174088,
			"target":34962
		},
		{
			"buffer":0,
			"byteLength":5472,
			"byteOffset":182296,
			"target":34962
		},
		{
			"buffer":0,
			"byteLength":2736,
			"byteOffset":187768,
			"target":34962
		},
		{
			"buffer":0,
			"byteLength":10944,
			"byteOffset":190504,
			"target":34962
		},
		{
			"buffer":0,
			"byteLength":3816,
			"byteOffset":201448,
			"target":34963
		},
		{
			"buffer":0,
			"byteLength":4920,
			"byteOffset":205264,
			"target":34962
		},
		{
			"buffer":0,
			"byteLength":4920,
			"byteOffset":210184,
			"target":34962
		},
		{
			"buffer":0,
			"byteLength":3280,
			"byteOffset":215104,
			"target":34962
		},
		{
			"buffer":0,
			"byteLength":1640,
			"byteOffset":218384,
			"target":34962
		},
		{
			"buffer":0,
			"byteLength":6560,
			"byteOffset":220024,
			"target":34962
		},
		{
			"buffer":0,
			"byteLength":1800,
			"byteOffset":226584,
			"target":34963
		},
		{
			"buffer":0,
			"byteLength":864,
			"byteOffset":228384,
			"target":34962
		},
		{
			"buffer":0,
			"byteLength":864,
			"byteOffset":229248,
			"target":34962
		},
		{
			"buffer":0,
			"byteLength":576,
			"byteOffset":230112,
			"target":34962
		},
		{
			"buffer":0,
			"byteLength":288,
			"byteOffset":230688,
			"target":34962
		},
		{
			"buffer":0,
			"byteLength":1152,
			"byteOffset":230976,
			"target":34962
		},
		{
			"buffer":0,
			"byteLength":288,
			"byteOffset":232128,
			"target":34963
		},
		{
			"buffer":0,
			"byteLength":5580,
			"byteOffset":232416,
			"target":34962
		},
		{
			"buffer":0,
			"byteLength":5580,
			"byteOffset":237996,
			"target":34962
		},
		{
			"buffer":0,
			"byteLength":3720,
			"byteOffset":243576,
			"target":34962
		},
		{
			"buffer":0,
			"byteLength":1860,
			"byteOffset":247296,
			"target":34962
		},
		{
			"buffer":0,
			"byteLength":7440,
			"byteOffset":249156,
			"target":34962
		},
		{
			"buffer":0,
			"byteLength":2304,
			"byteOffset":256596,
			"target":34963
		}
	],
	"buffers":[
		{
			"byteLength":258900,
			"uri":"MachineGun.bin"
		}
	]
}
