{
	"asset":{
		"generator":"Khronos glTF Blender I/O v4.3.47",
		"version":"2.0"
	},
	"scene":0,
	"scenes":[
		{
			"name":"Scene",
			"nodes":[
				10
			]
		}
	],
	"nodes":[
		{
			"name":"Hinge",
			"rotation":[
				0.7071067690849304,
				-1.9949601437474485e-07,
				-1.9949601437474485e-07,
				0.7071067690849304
			],
			"translation":[
				0,
				-1.108549952507019,
				0.993399977684021
			]
		},
		{
			"name":"Muzzle",
			"rotation":[
				0.7071067094802856,
				-1.9949595753132598e-07,
				-1.9949595753132598e-07,
				0.7071068286895752
			],
			"scale":[
				1,
				0.9999999403953552,
				0.9999999403953552
			],
			"translation":[
				0,
				-0.5039479732513428,
				2.9155399799346924
			]
		},
		{
			"children":[
				0,
				1
			],
			"name":"Grip"
		},
		{
			"mesh":0,
			"name":"Barrel",
			"skin":0
		},
		{
			"mesh":1,
			"name":"BarrelBase",
			"skin":0
		},
		{
			"mesh":2,
			"name":"Grip",
			"skin":0
		},
		{
			"mesh":3,
			"name":"GripParts",
			"skin":0
		},
		{
			"mesh":4,
			"name":"Hinge",
			"skin":0
		},
		{
			"mesh":5,
			"name":"HingeBase",
			"skin":0
		},
		{
			"mesh":6,
			"name":"Magazine",
			"skin":0
		},
		{
			"children":[
				3,
				4,
				5,
				6,
				7,
				8,
				9,
				2
			],
			"name":"LoutusShotGun"
		}
	],
	"materials":[
		{
			"doubleSided":true,
			"name":"GunMaterial",
			"pbrMetallicRoughness":{
				"baseColorTexture":{
					"index":0
				},
				"metallicFactor":0,
				"roughnessFactor":0.5
			}
		}
	],
	"meshes":[
		{
			"name":"Cylinder.001",
			"primitives":[
				{
					"attributes":{
						"POSITION":0,
						"NORMAL":1,
						"TEXCOORD_0":2,
						"JOINTS_0":3,
						"WEIGHTS_0":4
					},
					"indices":5,
					"material":0
				}
			]
		},
		{
			"name":"Cylinder",
			"primitives":[
				{
					"attributes":{
						"POSITION":7,
						"NORMAL":8,
						"TEXCOORD_0":9,
						"JOINTS_0":10,
						"WEIGHTS_0":11
					},
					"indices":12,
					"material":0
				}
			]
		},
		{
			"name":"Cube",
			"primitives":[
				{
					"attributes":{
						"POSITION":13,
						"NORMAL":14,
						"TEXCOORD_0":15,
						"JOINTS_0":16,
						"WEIGHTS_0":17
					},
					"indices":18,
					"material":0
				}
			]
		},
		{
			"name":"Cube.002",
			"primitives":[
				{
					"attributes":{
						"POSITION":19,
						"NORMAL":20,
						"TEXCOORD_0":21,
						"JOINTS_0":22,
						"WEIGHTS_0":23
					},
					"indices":24,
					"material":0
				}
			]
		},
		{
			"name":"Cylinder.007",
			"primitives":[
				{
					"attributes":{
						"POSITION":25,
						"NORMAL":26,
						"TEXCOORD_0":27,
						"JOINTS_0":28,
						"WEIGHTS_0":29
					},
					"indices":30,
					"material":0
				}
			]
		},
		{
			"name":"Cylinder.006",
			"primitives":[
				{
					"attributes":{
						"POSITION":31,
						"NORMAL":32,
						"TEXCOORD_0":33,
						"JOINTS_0":34,
						"WEIGHTS_0":35
					},
					"indices":36,
					"material":0
				}
			]
		},
		{
			"name":"Cube.005",
			"primitives":[
				{
					"attributes":{
						"POSITION":37,
						"NORMAL":38,
						"TEXCOORD_0":39,
						"JOINTS_0":40,
						"WEIGHTS_0":41
					},
					"indices":42,
					"material":0
				}
			]
		}
	],
	"textures":[
		{
			"sampler":0,
			"source":0
		}
	],
	"images":[
		{
			"mimeType":"image/png",
			"name":"LoutusShotGunTex",
			"uri":"LoutusShotGunTex.png"
		}
	],
	"skins":[
		{
			"inverseBindMatrices":6,
			"joints":[
				2,
				0,
				1
			],
			"name":"LoutusShotGun"
		}
	],
	"accessors":[
		{
			"bufferView":0,
			"componentType":5126,
			"count":3224,
			"max":[
				0.6786611676216125,
				0.13254976272583008,
				2.950847864151001
			],
			"min":[
				-0.6779446601867676,
				-1.1404459476470947,
				2.442065715789795
			],
			"type":"VEC3"
		},
		{
			"bufferView":1,
			"componentType":5126,
			"count":3224,
			"type":"VEC3"
		},
		{
			"bufferView":2,
			"componentType":5126,
			"count":3224,
			"type":"VEC2"
		},
		{
			"bufferView":3,
			"componentType":5121,
			"count":3224,
			"type":"VEC4"
		},
		{
			"bufferView":4,
			"componentType":5126,
			"count":3224,
			"type":"VEC4"
		},
		{
			"bufferView":5,
			"componentType":5123,
			"count":9822,
			"type":"SCALAR"
		},
		{
			"bufferView":6,
			"componentType":5126,
			"count":3,
			"type":"MAT4"
		},
		{
			"bufferView":7,
			"componentType":5126,
			"count":1617,
			"max":[
				0.667736291885376,
				0.16192489862442017,
				2.8725645542144775
			],
			"min":[
				-0.667736291885376,
				-1.1698195934295654,
				1.1007360219955444
			],
			"type":"VEC3"
		},
		{
			"bufferView":8,
			"componentType":5126,
			"count":1617,
			"type":"VEC3"
		},
		{
			"bufferView":9,
			"componentType":5126,
			"count":1617,
			"type":"VEC2"
		},
		{
			"bufferView":10,
			"componentType":5121,
			"count":1617,
			"type":"VEC4"
		},
		{
			"bufferView":11,
			"componentType":5126,
			"count":1617,
			"type":"VEC4"
		},
		{
			"bufferView":12,
			"componentType":5123,
			"count":4554,
			"type":"SCALAR"
		},
		{
			"bufferView":13,
			"componentType":5126,
			"count":899,
			"max":[
				0.21432116627693176,
				0.4699999690055847,
				1.100736379623413
			],
			"min":[
				-0.21432116627693176,
				-0.7134710550308228,
				-0.28720706701278687
			],
			"type":"VEC3"
		},
		{
			"bufferView":14,
			"componentType":5126,
			"count":899,
			"type":"VEC3"
		},
		{
			"bufferView":15,
			"componentType":5126,
			"count":899,
			"type":"VEC2"
		},
		{
			"bufferView":16,
			"componentType":5121,
			"count":899,
			"type":"VEC4"
		},
		{
			"bufferView":17,
			"componentType":5126,
			"count":899,
			"type":"VEC4"
		},
		{
			"bufferView":18,
			"componentType":5123,
			"count":1848,
			"type":"SCALAR"
		},
		{
			"bufferView":19,
			"componentType":5126,
			"count":252,
			"max":[
				0.14000000059604645,
				0.29188424348831177,
				0.9207351207733154
			],
			"min":[
				-0.14000000059604645,
				0.07999998331069946,
				0.7007350921630859
			],
			"type":"VEC3"
		},
		{
			"bufferView":20,
			"componentType":5126,
			"count":252,
			"type":"VEC3"
		},
		{
			"bufferView":21,
			"componentType":5126,
			"count":252,
			"type":"VEC2"
		},
		{
			"bufferView":22,
			"componentType":5121,
			"count":252,
			"type":"VEC4"
		},
		{
			"bufferView":23,
			"componentType":5126,
			"count":252,
			"type":"VEC4"
		},
		{
			"bufferView":24,
			"componentType":5123,
			"count":480,
			"type":"SCALAR"
		},
		{
			"bufferView":25,
			"componentType":5126,
			"count":251,
			"max":[
				0.17136003077030182,
				-1.018868327140808,
				2.382950782775879
			],
			"min":[
				-0.1713601052761078,
				-1.330718994140625,
				0.9037184715270996
			],
			"type":"VEC3"
		},
		{
			"bufferView":26,
			"componentType":5126,
			"count":251,
			"type":"VEC3"
		},
		{
			"bufferView":27,
			"componentType":5126,
			"count":251,
			"type":"VEC2"
		},
		{
			"bufferView":28,
			"componentType":5121,
			"count":251,
			"type":"VEC4"
		},
		{
			"bufferView":29,
			"componentType":5126,
			"count":251,
			"type":"VEC4"
		},
		{
			"bufferView":30,
			"componentType":5123,
			"count":483,
			"type":"SCALAR"
		},
		{
			"bufferView":31,
			"componentType":5126,
			"count":176,
			"max":[
				0.23408004641532898,
				-1.0050009489059448,
				1.0969491004943848
			],
			"min":[
				-0.23408004641532898,
				-1.2120994329452515,
				0.8898507952690125
			],
			"type":"VEC3"
		},
		{
			"bufferView":32,
			"componentType":5126,
			"count":176,
			"type":"VEC3"
		},
		{
			"bufferView":33,
			"componentType":5126,
			"count":176,
			"type":"VEC2"
		},
		{
			"bufferView":34,
			"componentType":5121,
			"count":176,
			"type":"VEC4"
		},
		{
			"bufferView":35,
			"componentType":5126,
			"count":176,
			"type":"VEC4"
		},
		{
			"bufferView":36,
			"componentType":5123,
			"count":324,
			"type":"SCALAR"
		},
		{
			"bufferView":37,
			"componentType":5126,
			"count":631,
			"max":[
				0.27244117856025696,
				-0.6681247353553772,
				1.0999999046325684
			],
			"min":[
				-0.27244117856025696,
				-1.350000023841858,
				-0.26249995827674866
			],
			"type":"VEC3"
		},
		{
			"bufferView":38,
			"componentType":5126,
			"count":631,
			"type":"VEC3"
		},
		{
			"bufferView":39,
			"componentType":5126,
			"count":631,
			"type":"VEC2"
		},
		{
			"bufferView":40,
			"componentType":5121,
			"count":631,
			"type":"VEC4"
		},
		{
			"bufferView":41,
			"componentType":5126,
			"count":631,
			"type":"VEC4"
		},
		{
			"bufferView":42,
			"componentType":5123,
			"count":1536,
			"type":"SCALAR"
		}
	],
	"bufferViews":[
		{
			"buffer":0,
			"byteLength":38688,
			"byteOffset":0,
			"target":34962
		},
		{
			"buffer":0,
			"byteLength":38688,
			"byteOffset":38688,
			"target":34962
		},
		{
			"buffer":0,
			"byteLength":25792,
			"byteOffset":77376,
			"target":34962
		},
		{
			"buffer":0,
			"byteLength":12896,
			"byteOffset":103168,
			"target":34962
		},
		{
			"buffer":0,
			"byteLength":51584,
			"byteOffset":116064,
			"target":34962
		},
		{
			"buffer":0,
			"byteLength":19644,
			"byteOffset":167648,
			"target":34963
		},
		{
			"buffer":0,
			"byteLength":192,
			"byteOffset":187292
		},
		{
			"buffer":0,
			"byteLength":19404,
			"byteOffset":187484,
			"target":34962
		},
		{
			"buffer":0,
			"byteLength":19404,
			"byteOffset":206888,
			"target":34962
		},
		{
			"buffer":0,
			"byteLength":12936,
			"byteOffset":226292,
			"target":34962
		},
		{
			"buffer":0,
			"byteLength":6468,
			"byteOffset":239228,
			"target":34962
		},
		{
			"buffer":0,
			"byteLength":25872,
			"byteOffset":245696,
			"target":34962
		},
		{
			"buffer":0,
			"byteLength":9108,
			"byteOffset":271568,
			"target":34963
		},
		{
			"buffer":0,
			"byteLength":10788,
			"byteOffset":280676,
			"target":34962
		},
		{
			"buffer":0,
			"byteLength":10788,
			"byteOffset":291464,
			"target":34962
		},
		{
			"buffer":0,
			"byteLength":7192,
			"byteOffset":302252,
			"target":34962
		},
		{
			"buffer":0,
			"byteLength":3596,
			"byteOffset":309444,
			"target":34962
		},
		{
			"buffer":0,
			"byteLength":14384,
			"byteOffset":313040,
			"target":34962
		},
		{
			"buffer":0,
			"byteLength":3696,
			"byteOffset":327424,
			"target":34963
		},
		{
			"buffer":0,
			"byteLength":3024,
			"byteOffset":331120,
			"target":34962
		},
		{
			"buffer":0,
			"byteLength":3024,
			"byteOffset":334144,
			"target":34962
		},
		{
			"buffer":0,
			"byteLength":2016,
			"byteOffset":337168,
			"target":34962
		},
		{
			"buffer":0,
			"byteLength":1008,
			"byteOffset":339184,
			"target":34962
		},
		{
			"buffer":0,
			"byteLength":4032,
			"byteOffset":340192,
			"target":34962
		},
		{
			"buffer":0,
			"byteLength":960,
			"byteOffset":344224,
			"target":34963
		},
		{
			"buffer":0,
			"byteLength":3012,
			"byteOffset":345184,
			"target":34962
		},
		{
			"buffer":0,
			"byteLength":3012,
			"byteOffset":348196,
			"target":34962
		},
		{
			"buffer":0,
			"byteLength":2008,
			"byteOffset":351208,
			"target":34962
		},
		{
			"buffer":0,
			"byteLength":1004,
			"byteOffset":353216,
			"target":34962
		},
		{
			"buffer":0,
			"byteLength":4016,
			"byteOffset":354220,
			"target":34962
		},
		{
			"buffer":0,
			"byteLength":966,
			"byteOffset":358236,
			"target":34963
		},
		{
			"buffer":0,
			"byteLength":2112,
			"byteOffset":359204,
			"target":34962
		},
		{
			"buffer":0,
			"byteLength":2112,
			"byteOffset":361316,
			"target":34962
		},
		{
			"buffer":0,
			"byteLength":1408,
			"byteOffset":363428,
			"target":34962
		},
		{
			"buffer":0,
			"byteLength":704,
			"byteOffset":364836,
			"target":34962
		},
		{
			"buffer":0,
			"byteLength":2816,
			"byteOffset":365540,
			"target":34962
		},
		{
			"buffer":0,
			"byteLength":648,
			"byteOffset":368356,
			"target":34963
		},
		{
			"buffer":0,
			"byteLength":7572,
			"byteOffset":369004,
			"target":34962
		},
		{
			"buffer":0,
			"byteLength":7572,
			"byteOffset":376576,
			"target":34962
		},
		{
			"buffer":0,
			"byteLength":5048,
			"byteOffset":384148,
			"target":34962
		},
		{
			"buffer":0,
			"byteLength":2524,
			"byteOffset":389196,
			"target":34962
		},
		{
			"buffer":0,
			"byteLength":10096,
			"byteOffset":391720,
			"target":34962
		},
		{
			"buffer":0,
			"byteLength":3072,
			"byteOffset":401816,
			"target":34963
		}
	],
	"samplers":[
		{
			"magFilter":9729,
			"minFilter":9987
		}
	],
	"buffers":[
		{
			"byteLength":404888,
			"uri":"LoutusShotGun.bin"
		}
	]
}
