{
	"asset":{
		"generator":"Khronos glTF Blender I/O v4.3.47",
		"version":"2.0"
	},
	"scene":0,
	"scenes":[
		{
			"name":"Scene",
			"nodes":[
				9
			]
		}
	],
	"nodes":[
		{
			"name":"Muzzle",
			"rotation":[
				0.7071067094802856,
				-4.523769803199684e-07,
				-4.523769803199684e-07,
				0.7071068286895752
			],
			"scale":[
				1,
				0.9999999403953552,
				0.9999999403953552
			],
			"translation":[
				0,
				0.6546819806098938,
				4.990000247955322
			]
		},
		{
			"name":"CartEject",
			"rotation":[
				0.7071067690849304,
				-2.837897170593351e-07,
				-2.837897170593351e-07,
				0.7071067690849304
			],
			"translation":[
				0,
				0.6663920283317566,
				1.2639191150665283
			]
		},
		{
			"children":[
				0,
				1
			],
			"name":"Grip"
		},
		{
			"mesh":0,
			"name":"Barrel",
			"skin":0
		},
		{
			"mesh":1,
			"name":"Body",
			"skin":0
		},
		{
			"mesh":2,
			"name":"Bolt",
			"skin":0
		},
		{
			"mesh":3,
			"name":"Grip",
			"skin":0
		},
		{
			"mesh":4,
			"name":"HandGaurd",
			"skin":0
		},
		{
			"mesh":5,
			"name":"ShelCarrer",
			"skin":0
		},
		{
			"children":[
				3,
				4,
				5,
				6,
				7,
				8,
				2
			],
			"name":"ShotGun1"
		}
	],
	"materials":[
		{
			"doubleSided":true,
			"name":"GunMaterial",
			"pbrMetallicRoughness":{
				"baseColorTexture":{
					"index":0
				},
				"metallicFactor":0,
				"roughnessFactor":0.5
			}
		}
	],
	"meshes":[
		{
			"name":"Cylinder",
			"primitives":[
				{
					"attributes":{
						"POSITION":0,
						"NORMAL":1,
						"TEXCOORD_0":2,
						"JOINTS_0":3,
						"WEIGHTS_0":4
					},
					"indices":5,
					"material":0
				}
			]
		},
		{
			"name":"Cube.001",
			"primitives":[
				{
					"attributes":{
						"POSITION":7,
						"NORMAL":8,
						"TEXCOORD_0":9,
						"JOINTS_0":10,
						"WEIGHTS_0":11
					},
					"indices":12,
					"material":0
				}
			]
		},
		{
			"name":"Cylinder.002",
			"primitives":[
				{
					"attributes":{
						"POSITION":13,
						"NORMAL":14,
						"TEXCOORD_0":15,
						"JOINTS_0":16,
						"WEIGHTS_0":17
					},
					"indices":18,
					"material":0
				}
			]
		},
		{
			"name":"Cube.005",
			"primitives":[
				{
					"attributes":{
						"POSITION":19,
						"NORMAL":20,
						"TEXCOORD_0":21,
						"JOINTS_0":22,
						"WEIGHTS_0":23
					},
					"indices":24,
					"material":0
				}
			]
		},
		{
			"name":"Cube.002",
			"primitives":[
				{
					"attributes":{
						"POSITION":25,
						"NORMAL":26,
						"TEXCOORD_0":27,
						"JOINTS_0":28,
						"WEIGHTS_0":29
					},
					"indices":30,
					"material":0
				}
			]
		},
		{
			"name":"Cube.003",
			"primitives":[
				{
					"attributes":{
						"POSITION":31,
						"NORMAL":32,
						"TEXCOORD_0":33,
						"JOINTS_0":34,
						"WEIGHTS_0":35
					},
					"indices":36,
					"material":0
				}
			]
		}
	],
	"textures":[
		{
			"sampler":0,
			"source":0
		}
	],
	"images":[
		{
			"mimeType":"image/png",
			"name":"ShotGunTex",
			"uri":"ShotGunTex.png"
		}
	],
	"skins":[
		{
			"inverseBindMatrices":6,
			"joints":[
				2,
				0,
				1
			],
			"name":"ShotGun1"
		}
	],
	"accessors":[
		{
			"bufferView":0,
			"componentType":5126,
			"count":856,
			"max":[
				0.12417688965797424,
				0.7749865651130676,
				5.020994663238525
			],
			"min":[
				-0.12417484074831009,
				0.3156112730503082,
				1.9856587648391724
			],
			"type":"VEC3"
		},
		{
			"bufferView":1,
			"componentType":5126,
			"count":856,
			"type":"VEC3"
		},
		{
			"bufferView":2,
			"componentType":5126,
			"count":856,
			"type":"VEC2"
		},
		{
			"bufferView":3,
			"componentType":5121,
			"count":856,
			"type":"VEC4"
		},
		{
			"bufferView":4,
			"componentType":5126,
			"count":856,
			"type":"VEC4"
		},
		{
			"bufferView":5,
			"componentType":5123,
			"count":2724,
			"type":"SCALAR"
		},
		{
			"bufferView":6,
			"componentType":5126,
			"count":3,
			"type":"MAT4"
		},
		{
			"bufferView":7,
			"componentType":5126,
			"count":888,
			"max":[
				0.13611266016960144,
				0.8638249039649963,
				3.805375576019287
			],
			"min":[
				-0.1360398232936859,
				0.26581108570098877,
				-0.08300571143627167
			],
			"type":"VEC3"
		},
		{
			"bufferView":8,
			"componentType":5126,
			"count":888,
			"type":"VEC3"
		},
		{
			"bufferView":9,
			"componentType":5126,
			"count":888,
			"type":"VEC2"
		},
		{
			"bufferView":10,
			"componentType":5121,
			"count":888,
			"type":"VEC4"
		},
		{
			"bufferView":11,
			"componentType":5126,
			"count":888,
			"type":"VEC4"
		},
		{
			"bufferView":12,
			"componentType":5123,
			"count":2118,
			"type":"SCALAR"
		},
		{
			"bufferView":13,
			"componentType":5126,
			"count":160,
			"max":[
				0.08318017423152924,
				0.7495359778404236,
				1.52241849899292
			],
			"min":[
				-0.08310752362012863,
				0.5832482576370239,
				0.9757582545280457
			],
			"type":"VEC3"
		},
		{
			"bufferView":14,
			"componentType":5126,
			"count":160,
			"type":"VEC3"
		},
		{
			"bufferView":15,
			"componentType":5126,
			"count":160,
			"type":"VEC2"
		},
		{
			"bufferView":16,
			"componentType":5121,
			"count":160,
			"type":"VEC4"
		},
		{
			"bufferView":17,
			"componentType":5126,
			"count":160,
			"type":"VEC4"
		},
		{
			"bufferView":18,
			"componentType":5123,
			"count":480,
			"type":"SCALAR"
		},
		{
			"bufferView":19,
			"componentType":5126,
			"count":150,
			"max":[
				0.12159504741430283,
				0.320811003446579,
				0.2747287154197693
			],
			"min":[
				-0.1215222030878067,
				-0.5041890740394592,
				-0.2265642285346985
			],
			"type":"VEC3"
		},
		{
			"bufferView":20,
			"componentType":5126,
			"count":150,
			"type":"VEC3"
		},
		{
			"bufferView":21,
			"componentType":5126,
			"count":150,
			"type":"VEC2"
		},
		{
			"bufferView":22,
			"componentType":5121,
			"count":150,
			"type":"VEC4"
		},
		{
			"bufferView":23,
			"componentType":5126,
			"count":150,
			"type":"VEC4"
		},
		{
			"bufferView":24,
			"componentType":5123,
			"count":330,
			"type":"SCALAR"
		},
		{
			"bufferView":25,
			"componentType":5126,
			"count":96,
			"max":[
				0.17603641748428345,
				0.5738109946250916,
				3.3379945755004883
			],
			"min":[
				-0.17596358060836792,
				0.2438110113143921,
				1.610994577407837
			],
			"type":"VEC3"
		},
		{
			"bufferView":26,
			"componentType":5126,
			"count":96,
			"type":"VEC3"
		},
		{
			"bufferView":27,
			"componentType":5126,
			"count":96,
			"type":"VEC2"
		},
		{
			"bufferView":28,
			"componentType":5121,
			"count":96,
			"type":"VEC4"
		},
		{
			"bufferView":29,
			"componentType":5126,
			"count":96,
			"type":"VEC4"
		},
		{
			"bufferView":30,
			"componentType":5123,
			"count":180,
			"type":"SCALAR"
		},
		{
			"bufferView":31,
			"componentType":5126,
			"count":80,
			"max":[
				0.10482242703437805,
				0.34063825011253357,
				1.0215461254119873
			],
			"min":[
				-0.1047496497631073,
				0.2708687484264374,
				0.5380397439002991
			],
			"type":"VEC3"
		},
		{
			"bufferView":32,
			"componentType":5126,
			"count":80,
			"type":"VEC3"
		},
		{
			"bufferView":33,
			"componentType":5126,
			"count":80,
			"type":"VEC2"
		},
		{
			"bufferView":34,
			"componentType":5121,
			"count":80,
			"type":"VEC4"
		},
		{
			"bufferView":35,
			"componentType":5126,
			"count":80,
			"type":"VEC4"
		},
		{
			"bufferView":36,
			"componentType":5123,
			"count":132,
			"type":"SCALAR"
		}
	],
	"bufferViews":[
		{
			"buffer":0,
			"byteLength":10272,
			"byteOffset":0,
			"target":34962
		},
		{
			"buffer":0,
			"byteLength":10272,
			"byteOffset":10272,
			"target":34962
		},
		{
			"buffer":0,
			"byteLength":6848,
			"byteOffset":20544,
			"target":34962
		},
		{
			"buffer":0,
			"byteLength":3424,
			"byteOffset":27392,
			"target":34962
		},
		{
			"buffer":0,
			"byteLength":13696,
			"byteOffset":30816,
			"target":34962
		},
		{
			"buffer":0,
			"byteLength":5448,
			"byteOffset":44512,
			"target":34963
		},
		{
			"buffer":0,
			"byteLength":192,
			"byteOffset":49960
		},
		{
			"buffer":0,
			"byteLength":10656,
			"byteOffset":50152,
			"target":34962
		},
		{
			"buffer":0,
			"byteLength":10656,
			"byteOffset":60808,
			"target":34962
		},
		{
			"buffer":0,
			"byteLength":7104,
			"byteOffset":71464,
			"target":34962
		},
		{
			"buffer":0,
			"byteLength":3552,
			"byteOffset":78568,
			"target":34962
		},
		{
			"buffer":0,
			"byteLength":14208,
			"byteOffset":82120,
			"target":34962
		},
		{
			"buffer":0,
			"byteLength":4236,
			"byteOffset":96328,
			"target":34963
		},
		{
			"buffer":0,
			"byteLength":1920,
			"byteOffset":100564,
			"target":34962
		},
		{
			"buffer":0,
			"byteLength":1920,
			"byteOffset":102484,
			"target":34962
		},
		{
			"buffer":0,
			"byteLength":1280,
			"byteOffset":104404,
			"target":34962
		},
		{
			"buffer":0,
			"byteLength":640,
			"byteOffset":105684,
			"target":34962
		},
		{
			"buffer":0,
			"byteLength":2560,
			"byteOffset":106324,
			"target":34962
		},
		{
			"buffer":0,
			"byteLength":960,
			"byteOffset":108884,
			"target":34963
		},
		{
			"buffer":0,
			"byteLength":1800,
			"byteOffset":109844,
			"target":34962
		},
		{
			"buffer":0,
			"byteLength":1800,
			"byteOffset":111644,
			"target":34962
		},
		{
			"buffer":0,
			"byteLength":1200,
			"byteOffset":113444,
			"target":34962
		},
		{
			"buffer":0,
			"byteLength":600,
			"byteOffset":114644,
			"target":34962
		},
		{
			"buffer":0,
			"byteLength":2400,
			"byteOffset":115244,
			"target":34962
		},
		{
			"buffer":0,
			"byteLength":660,
			"byteOffset":117644,
			"target":34963
		},
		{
			"buffer":0,
			"byteLength":1152,
			"byteOffset":118304,
			"target":34962
		},
		{
			"buffer":0,
			"byteLength":1152,
			"byteOffset":119456,
			"target":34962
		},
		{
			"buffer":0,
			"byteLength":768,
			"byteOffset":120608,
			"target":34962
		},
		{
			"buffer":0,
			"byteLength":384,
			"byteOffset":121376,
			"target":34962
		},
		{
			"buffer":0,
			"byteLength":1536,
			"byteOffset":121760,
			"target":34962
		},
		{
			"buffer":0,
			"byteLength":360,
			"byteOffset":123296,
			"target":34963
		},
		{
			"buffer":0,
			"byteLength":960,
			"byteOffset":123656,
			"target":34962
		},
		{
			"buffer":0,
			"byteLength":960,
			"byteOffset":124616,
			"target":34962
		},
		{
			"buffer":0,
			"byteLength":640,
			"byteOffset":125576,
			"target":34962
		},
		{
			"buffer":0,
			"byteLength":320,
			"byteOffset":126216,
			"target":34962
		},
		{
			"buffer":0,
			"byteLength":1280,
			"byteOffset":126536,
			"target":34962
		},
		{
			"buffer":0,
			"byteLength":264,
			"byteOffset":127816,
			"target":34963
		}
	],
	"samplers":[
		{
			"magFilter":9729,
			"minFilter":9987
		}
	],
	"buffers":[
		{
			"byteLength":128080,
			"uri":"ShotGun.bin"
		}
	]
}
