{
	"asset":{
		"generator":"Khronos glTF Blender I/O v4.3.47",
		"version":"2.0"
	},
	"scene":0,
	"scenes":[
		{
			"name":"Scene",
			"nodes":[
				9
			]
		}
	],
	"nodes":[
		{
			"name":"Muzzle",
			"rotation":[
				0.7071067094802856,
				-4.523769803199684e-07,
				-4.523769803199684e-07,
				0.7071068286895752
			],
			"scale":[
				1,
				0.9999999403953552,
				0.9999999403953552
			],
			"translation":[
				0,
				0.6546819806098938,
				4.990000247955322
			]
		},
		{
			"name":"CartEject",
			"rotation":[
				0.7071067690849304,
				-2.837897170593351e-07,
				-2.837897170593351e-07,
				0.7071067690849304
			],
			"translation":[
				0,
				0.6663920283317566,
				1.2639191150665283
			]
		},
		{
			"children":[
				0,
				1
			],
			"name":"Grip"
		},
		{
			"mesh":0,
			"name":"Barrel",
			"skin":0
		},
		{
			"mesh":1,
			"name":"Body",
			"skin":0
		},
		{
			"mesh":2,
			"name":"Bolt",
			"skin":0
		},
		{
			"mesh":3,
			"name":"Grip",
			"skin":0
		},
		{
			"mesh":4,
			"name":"HandGaurd",
			"skin":0
		},
		{
			"mesh":5,
			"name":"ShelCarrer",
			"skin":0
		},
		{
			"children":[
				3,
				4,
				5,
				6,
				7,
				8,
				2
			],
			"name":"ShotGun1"
		}
	],
	"meshes":[
		{
			"name":"Cylinder",
			"primitives":[
				{
					"attributes":{
						"POSITION":0,
						"NORMAL":1,
						"TEXCOORD_0":2,
						"JOINTS_0":3,
						"WEIGHTS_0":4
					},
					"indices":5
				}
			]
		},
		{
			"name":"Cube.001",
			"primitives":[
				{
					"attributes":{
						"POSITION":7,
						"NORMAL":8,
						"TEXCOORD_0":9,
						"JOINTS_0":10,
						"WEIGHTS_0":11
					},
					"indices":12
				}
			]
		},
		{
			"name":"Cylinder.002",
			"primitives":[
				{
					"attributes":{
						"POSITION":13,
						"NORMAL":14,
						"TEXCOORD_0":15,
						"JOINTS_0":16,
						"WEIGHTS_0":17
					},
					"indices":18
				}
			]
		},
		{
			"name":"Cube.005",
			"primitives":[
				{
					"attributes":{
						"POSITION":19,
						"NORMAL":20,
						"TEXCOORD_0":21,
						"JOINTS_0":22,
						"WEIGHTS_0":23
					},
					"indices":24
				}
			]
		},
		{
			"name":"Cube.002",
			"primitives":[
				{
					"attributes":{
						"POSITION":25,
						"NORMAL":26,
						"TEXCOORD_0":27,
						"JOINTS_0":28,
						"WEIGHTS_0":29
					},
					"indices":30
				}
			]
		},
		{
			"name":"Cube.003",
			"primitives":[
				{
					"attributes":{
						"POSITION":31,
						"NORMAL":32,
						"TEXCOORD_0":33,
						"JOINTS_0":34,
						"WEIGHTS_0":35
					},
					"indices":36
				}
			]
		}
	],
	"skins":[
		{
			"inverseBindMatrices":6,
			"joints":[
				2,
				0,
				1
			],
			"name":"ShotGun1"
		}
	],
	"accessors":[
		{
			"bufferView":0,
			"componentType":5126,
			"count":892,
			"max":[
				0.12417688965797424,
				0.7749865651130676,
				5.020994663238525
			],
			"min":[
				-0.12417484074831009,
				0.3156112730503082,
				1.9856587648391724
			],
			"type":"VEC3"
		},
		{
			"bufferView":1,
			"componentType":5126,
			"count":892,
			"type":"VEC3"
		},
		{
			"bufferView":2,
			"componentType":5126,
			"count":892,
			"type":"VEC2"
		},
		{
			"bufferView":3,
			"componentType":5121,
			"count":892,
			"type":"VEC4"
		},
		{
			"bufferView":4,
			"componentType":5126,
			"count":892,
			"type":"VEC4"
		},
		{
			"bufferView":5,
			"componentType":5123,
			"count":2724,
			"type":"SCALAR"
		},
		{
			"bufferView":6,
			"componentType":5126,
			"count":3,
			"type":"MAT4"
		},
		{
			"bufferView":7,
			"componentType":5126,
			"count":847,
			"max":[
				0.13611266016960144,
				0.8638249039649963,
				3.805375576019287
			],
			"min":[
				-0.1360398232936859,
				0.26581108570098877,
				-0.08300571143627167
			],
			"type":"VEC3"
		},
		{
			"bufferView":8,
			"componentType":5126,
			"count":847,
			"type":"VEC3"
		},
		{
			"bufferView":9,
			"componentType":5126,
			"count":847,
			"type":"VEC2"
		},
		{
			"bufferView":10,
			"componentType":5121,
			"count":847,
			"type":"VEC4"
		},
		{
			"bufferView":11,
			"componentType":5126,
			"count":847,
			"type":"VEC4"
		},
		{
			"bufferView":12,
			"componentType":5123,
			"count":2022,
			"type":"SCALAR"
		},
		{
			"bufferView":13,
			"componentType":5126,
			"count":170,
			"max":[
				0.08318017423152924,
				0.7495359778404236,
				1.52241849899292
			],
			"min":[
				-0.08310752362012863,
				0.5832482576370239,
				0.9757582545280457
			],
			"type":"VEC3"
		},
		{
			"bufferView":14,
			"componentType":5126,
			"count":170,
			"type":"VEC3"
		},
		{
			"bufferView":15,
			"componentType":5126,
			"count":170,
			"type":"VEC2"
		},
		{
			"bufferView":16,
			"componentType":5121,
			"count":170,
			"type":"VEC4"
		},
		{
			"bufferView":17,
			"componentType":5126,
			"count":170,
			"type":"VEC4"
		},
		{
			"bufferView":18,
			"componentType":5123,
			"count":480,
			"type":"SCALAR"
		},
		{
			"bufferView":19,
			"componentType":5126,
			"count":166,
			"max":[
				0.12159504741430283,
				0.320811003446579,
				0.2747287154197693
			],
			"min":[
				-0.1215222030878067,
				-0.5041890740394592,
				-0.2265642285346985
			],
			"type":"VEC3"
		},
		{
			"bufferView":20,
			"componentType":5126,
			"count":166,
			"type":"VEC3"
		},
		{
			"bufferView":21,
			"componentType":5126,
			"count":166,
			"type":"VEC2"
		},
		{
			"bufferView":22,
			"componentType":5121,
			"count":166,
			"type":"VEC4"
		},
		{
			"bufferView":23,
			"componentType":5126,
			"count":166,
			"type":"VEC4"
		},
		{
			"bufferView":24,
			"componentType":5123,
			"count":330,
			"type":"SCALAR"
		},
		{
			"bufferView":25,
			"componentType":5126,
			"count":96,
			"max":[
				0.17603641748428345,
				0.5738109946250916,
				3.3379945755004883
			],
			"min":[
				-0.17596358060836792,
				0.2438110113143921,
				1.610994577407837
			],
			"type":"VEC3"
		},
		{
			"bufferView":26,
			"componentType":5126,
			"count":96,
			"type":"VEC3"
		},
		{
			"bufferView":27,
			"componentType":5126,
			"count":96,
			"type":"VEC2"
		},
		{
			"bufferView":28,
			"componentType":5121,
			"count":96,
			"type":"VEC4"
		},
		{
			"bufferView":29,
			"componentType":5126,
			"count":96,
			"type":"VEC4"
		},
		{
			"bufferView":30,
			"componentType":5123,
			"count":180,
			"type":"SCALAR"
		},
		{
			"bufferView":31,
			"componentType":5126,
			"count":82,
			"max":[
				0.10482242703437805,
				0.34063825011253357,
				1.0215461254119873
			],
			"min":[
				-0.1047496497631073,
				0.2708687484264374,
				0.5380397439002991
			],
			"type":"VEC3"
		},
		{
			"bufferView":32,
			"componentType":5126,
			"count":82,
			"type":"VEC3"
		},
		{
			"bufferView":33,
			"componentType":5126,
			"count":82,
			"type":"VEC2"
		},
		{
			"bufferView":34,
			"componentType":5121,
			"count":82,
			"type":"VEC4"
		},
		{
			"bufferView":35,
			"componentType":5126,
			"count":82,
			"type":"VEC4"
		},
		{
			"bufferView":36,
			"componentType":5123,
			"count":132,
			"type":"SCALAR"
		}
	],
	"bufferViews":[
		{
			"buffer":0,
			"byteLength":10704,
			"byteOffset":0,
			"target":34962
		},
		{
			"buffer":0,
			"byteLength":10704,
			"byteOffset":10704,
			"target":34962
		},
		{
			"buffer":0,
			"byteLength":7136,
			"byteOffset":21408,
			"target":34962
		},
		{
			"buffer":0,
			"byteLength":3568,
			"byteOffset":28544,
			"target":34962
		},
		{
			"buffer":0,
			"byteLength":14272,
			"byteOffset":32112,
			"target":34962
		},
		{
			"buffer":0,
			"byteLength":5448,
			"byteOffset":46384,
			"target":34963
		},
		{
			"buffer":0,
			"byteLength":192,
			"byteOffset":51832
		},
		{
			"buffer":0,
			"byteLength":10164,
			"byteOffset":52024,
			"target":34962
		},
		{
			"buffer":0,
			"byteLength":10164,
			"byteOffset":62188,
			"target":34962
		},
		{
			"buffer":0,
			"byteLength":6776,
			"byteOffset":72352,
			"target":34962
		},
		{
			"buffer":0,
			"byteLength":3388,
			"byteOffset":79128,
			"target":34962
		},
		{
			"buffer":0,
			"byteLength":13552,
			"byteOffset":82516,
			"target":34962
		},
		{
			"buffer":0,
			"byteLength":4044,
			"byteOffset":96068,
			"target":34963
		},
		{
			"buffer":0,
			"byteLength":2040,
			"byteOffset":100112,
			"target":34962
		},
		{
			"buffer":0,
			"byteLength":2040,
			"byteOffset":102152,
			"target":34962
		},
		{
			"buffer":0,
			"byteLength":1360,
			"byteOffset":104192,
			"target":34962
		},
		{
			"buffer":0,
			"byteLength":680,
			"byteOffset":105552,
			"target":34962
		},
		{
			"buffer":0,
			"byteLength":2720,
			"byteOffset":106232,
			"target":34962
		},
		{
			"buffer":0,
			"byteLength":960,
			"byteOffset":108952,
			"target":34963
		},
		{
			"buffer":0,
			"byteLength":1992,
			"byteOffset":109912,
			"target":34962
		},
		{
			"buffer":0,
			"byteLength":1992,
			"byteOffset":111904,
			"target":34962
		},
		{
			"buffer":0,
			"byteLength":1328,
			"byteOffset":113896,
			"target":34962
		},
		{
			"buffer":0,
			"byteLength":664,
			"byteOffset":115224,
			"target":34962
		},
		{
			"buffer":0,
			"byteLength":2656,
			"byteOffset":115888,
			"target":34962
		},
		{
			"buffer":0,
			"byteLength":660,
			"byteOffset":118544,
			"target":34963
		},
		{
			"buffer":0,
			"byteLength":1152,
			"byteOffset":119204,
			"target":34962
		},
		{
			"buffer":0,
			"byteLength":1152,
			"byteOffset":120356,
			"target":34962
		},
		{
			"buffer":0,
			"byteLength":768,
			"byteOffset":121508,
			"target":34962
		},
		{
			"buffer":0,
			"byteLength":384,
			"byteOffset":122276,
			"target":34962
		},
		{
			"buffer":0,
			"byteLength":1536,
			"byteOffset":122660,
			"target":34962
		},
		{
			"buffer":0,
			"byteLength":360,
			"byteOffset":124196,
			"target":34963
		},
		{
			"buffer":0,
			"byteLength":984,
			"byteOffset":124556,
			"target":34962
		},
		{
			"buffer":0,
			"byteLength":984,
			"byteOffset":125540,
			"target":34962
		},
		{
			"buffer":0,
			"byteLength":656,
			"byteOffset":126524,
			"target":34962
		},
		{
			"buffer":0,
			"byteLength":328,
			"byteOffset":127180,
			"target":34962
		},
		{
			"buffer":0,
			"byteLength":1312,
			"byteOffset":127508,
			"target":34962
		},
		{
			"buffer":0,
			"byteLength":264,
			"byteOffset":128820,
			"target":34963
		}
	],
	"buffers":[
		{
			"byteLength":129084,
			"uri":"ShotGun1.bin"
		}
	]
}
