{
	"asset":{
		"generator":"Khronos glTF Blender I/O v4.3.47",
		"version":"2.0"
	},
	"scene":0,
	"scenes":[
		{
			"name":"Scene",
			"nodes":[
				4
			]
		}
	],
	"nodes":[
		{
			"name":"Sheath",
			"translation":[
				0,
				0.11761239171028137,
				0
			]
		},
		{
			"children":[
				0
			],
			"name":"Grip"
		},
		{
			"mesh":0,
			"name":"Katana",
			"skin":0
		},
		{
			"mesh":1,
			"name":"TsubaHimo",
			"skin":0
		},
		{
			"children":[
				2,
				3,
				1
			],
			"name":"Katana_Armature"
		}
	],
	"materials":[
		{
			"doubleSided":true,
			"name":"KatanaMaterial",
			"pbrMetallicRoughness":{
				"baseColorTexture":{
					"index":0
				},
				"metallicFactor":0,
				"roughnessFactor":0.5
			}
		}
	],
	"meshes":[
		{
			"name":"Cube.002",
			"primitives":[
				{
					"attributes":{
						"POSITION":0,
						"NORMAL":1,
						"TEXCOORD_0":2,
						"JOINTS_0":3,
						"WEIGHTS_0":4
					},
					"indices":5,
					"material":0
				}
			]
		},
		{
			"name":"Cylinder",
			"primitives":[
				{
					"attributes":{
						"POSITION":7,
						"NORMAL":8,
						"TEXCOORD_0":9,
						"JOINTS_0":10,
						"WEIGHTS_0":11
					},
					"indices":12,
					"material":0
				}
			]
		}
	],
	"textures":[
		{
			"sampler":0,
			"source":0
		}
	],
	"images":[
		{
			"mimeType":"image/png",
			"name":"KatanaTex",
			"uri":"KatanaTex.png"
		}
	],
	"skins":[
		{
			"inverseBindMatrices":6,
			"joints":[
				1,
				0
			],
			"name":"Katana_Armature"
		}
	],
	"accessors":[
		{
			"bufferView":0,
			"componentType":5126,
			"count":3350,
			"max":[
				0.11550292372703552,
				0.8327689170837402,
				0.043171487748622894
			],
			"min":[
				-0.04675621539354324,
				-0.15075764060020447,
				-0.04317237436771393
			],
			"type":"VEC3"
		},
		{
			"bufferView":1,
			"componentType":5126,
			"count":3350,
			"type":"VEC3"
		},
		{
			"bufferView":2,
			"componentType":5126,
			"count":3350,
			"type":"VEC2"
		},
		{
			"bufferView":3,
			"componentType":5121,
			"count":3350,
			"type":"VEC4"
		},
		{
			"bufferView":4,
			"componentType":5126,
			"count":3350,
			"type":"VEC4"
		},
		{
			"bufferView":5,
			"componentType":5123,
			"count":6285,
			"type":"SCALAR"
		},
		{
			"bufferView":6,
			"componentType":5126,
			"count":2,
			"type":"MAT4"
		},
		{
			"bufferView":7,
			"componentType":5126,
			"count":68,
			"max":[
				0.040725693106651306,
				0.10280793160200119,
				0.03669920191168785
			],
			"min":[
				-0.04072568565607071,
				0.08880792558193207,
				0.01572686806321144
			],
			"type":"VEC3"
		},
		{
			"bufferView":8,
			"componentType":5126,
			"count":68,
			"type":"VEC3"
		},
		{
			"bufferView":9,
			"componentType":5126,
			"count":68,
			"type":"VEC2"
		},
		{
			"bufferView":10,
			"componentType":5121,
			"count":68,
			"type":"VEC4"
		},
		{
			"bufferView":11,
			"componentType":5126,
			"count":68,
			"type":"VEC4"
		},
		{
			"bufferView":12,
			"componentType":5123,
			"count":168,
			"type":"SCALAR"
		}
	],
	"bufferViews":[
		{
			"buffer":0,
			"byteLength":40200,
			"byteOffset":0,
			"target":34962
		},
		{
			"buffer":0,
			"byteLength":40200,
			"byteOffset":40200,
			"target":34962
		},
		{
			"buffer":0,
			"byteLength":26800,
			"byteOffset":80400,
			"target":34962
		},
		{
			"buffer":0,
			"byteLength":13400,
			"byteOffset":107200,
			"target":34962
		},
		{
			"buffer":0,
			"byteLength":53600,
			"byteOffset":120600,
			"target":34962
		},
		{
			"buffer":0,
			"byteLength":12570,
			"byteOffset":174200,
			"target":34963
		},
		{
			"buffer":0,
			"byteLength":128,
			"byteOffset":186772
		},
		{
			"buffer":0,
			"byteLength":816,
			"byteOffset":186900,
			"target":34962
		},
		{
			"buffer":0,
			"byteLength":816,
			"byteOffset":187716,
			"target":34962
		},
		{
			"buffer":0,
			"byteLength":544,
			"byteOffset":188532,
			"target":34962
		},
		{
			"buffer":0,
			"byteLength":272,
			"byteOffset":189076,
			"target":34962
		},
		{
			"buffer":0,
			"byteLength":1088,
			"byteOffset":189348,
			"target":34962
		},
		{
			"buffer":0,
			"byteLength":336,
			"byteOffset":190436,
			"target":34963
		}
	],
	"samplers":[
		{
			"magFilter":9729,
			"minFilter":9987
		}
	],
	"buffers":[
		{
			"byteLength":190772,
			"uri":"Katana.bin"
		}
	]
}
