{
	"asset":{
		"generator":"Khronos glTF Blender I/O v4.3.47",
		"version":"2.0"
	},
	"scene":0,
	"scenes":[
		{
			"name":"Scene",
			"nodes":[
				5
			]
		}
	],
	"nodes":[
		{
			"name":"Muzzle",
			"rotation":[
				0.7071067690849304,
				-1.1520231879558196e-07,
				-1.1520231879558196e-07,
				0.7071067690849304
			],
			"translation":[
				1.4141700267791748,
				0.015518993139266968,
				0
			]
		},
		{
			"children":[
				0
			],
			"name":"Grip"
		},
		{
			"mesh":0,
			"name":"Body",
			"skin":0
		},
		{
			"mesh":1,
			"name":"Grip",
			"skin":0
		},
		{
			"mesh":2,
			"name":"Pile",
			"skin":0
		},
		{
			"children":[
				2,
				3,
				4,
				1
			],
			"name":"PileBunker"
		}
	],
	"materials":[
		{
			"doubleSided":true,
			"name":"GunMaterial",
			"pbrMetallicRoughness":{
				"baseColorFactor":[
					0.800000011920929,
					0.800000011920929,
					0.800000011920929,
					1
				],
				"metallicFactor":0,
				"roughnessFactor":0.5
			}
		}
	],
	"meshes":[
		{
			"name":"Cylinder",
			"primitives":[
				{
					"attributes":{
						"POSITION":0,
						"NORMAL":1,
						"TEXCOORD_0":2,
						"JOINTS_0":3,
						"WEIGHTS_0":4
					},
					"indices":5,
					"material":0
				}
			]
		},
		{
			"name":"Cube",
			"primitives":[
				{
					"attributes":{
						"POSITION":7,
						"NORMAL":8,
						"TEXCOORD_0":9,
						"JOINTS_0":10,
						"WEIGHTS_0":11
					},
					"indices":12,
					"material":0
				}
			]
		},
		{
			"name":"Cylinder.001",
			"primitives":[
				{
					"attributes":{
						"POSITION":13,
						"NORMAL":14,
						"TEXCOORD_0":15,
						"JOINTS_0":16,
						"WEIGHTS_0":17
					},
					"indices":18,
					"material":0
				}
			]
		}
	],
	"skins":[
		{
			"inverseBindMatrices":6,
			"joints":[
				1,
				0
			],
			"name":"PileBunker"
		}
	],
	"accessors":[
		{
			"bufferView":0,
			"componentType":5126,
			"count":1887,
			"max":[
				2.220710277557373,
				0.7471823692321777,
				2.069999933242798
			],
			"min":[
				0.6000000834465027,
				-0.7500004768371582,
				-2.630000114440918
			],
			"type":"VEC3"
		},
		{
			"bufferView":1,
			"componentType":5126,
			"count":1887,
			"type":"VEC3"
		},
		{
			"bufferView":2,
			"componentType":5126,
			"count":1887,
			"type":"VEC2"
		},
		{
			"bufferView":3,
			"componentType":5121,
			"count":1887,
			"type":"VEC4"
		},
		{
			"bufferView":4,
			"componentType":5126,
			"count":1887,
			"type":"VEC4"
		},
		{
			"bufferView":5,
			"componentType":5123,
			"count":4665,
			"type":"SCALAR"
		},
		{
			"bufferView":6,
			"componentType":5126,
			"count":2,
			"type":"MAT4"
		},
		{
			"bufferView":7,
			"componentType":5126,
			"count":325,
			"max":[
				0.7500000596046448,
				0.6499999761581421,
				0.8399999737739563
			],
			"min":[
				-0.3500000536441803,
				-0.48500001430511475,
				-0.23999997973442078
			],
			"type":"VEC3"
		},
		{
			"bufferView":8,
			"componentType":5126,
			"count":325,
			"type":"VEC3"
		},
		{
			"bufferView":9,
			"componentType":5126,
			"count":325,
			"type":"VEC2"
		},
		{
			"bufferView":10,
			"componentType":5121,
			"count":325,
			"type":"VEC4"
		},
		{
			"bufferView":11,
			"componentType":5126,
			"count":325,
			"type":"VEC4"
		},
		{
			"bufferView":12,
			"componentType":5123,
			"count":642,
			"type":"SCALAR"
		},
		{
			"bufferView":13,
			"componentType":5126,
			"count":721,
			"max":[
				1.7230268716812134,
				0.3000001311302185,
				3.4300010204315186
			],
			"min":[
				1.0999995470046997,
				-0.2999999523162842,
				-4.64000129699707
			],
			"type":"VEC3"
		},
		{
			"bufferView":14,
			"componentType":5126,
			"count":721,
			"type":"VEC3"
		},
		{
			"bufferView":15,
			"componentType":5126,
			"count":721,
			"type":"VEC2"
		},
		{
			"bufferView":16,
			"componentType":5121,
			"count":721,
			"type":"VEC4"
		},
		{
			"bufferView":17,
			"componentType":5126,
			"count":721,
			"type":"VEC4"
		},
		{
			"bufferView":18,
			"componentType":5123,
			"count":2028,
			"type":"SCALAR"
		}
	],
	"bufferViews":[
		{
			"buffer":0,
			"byteLength":22644,
			"byteOffset":0,
			"target":34962
		},
		{
			"buffer":0,
			"byteLength":22644,
			"byteOffset":22644,
			"target":34962
		},
		{
			"buffer":0,
			"byteLength":15096,
			"byteOffset":45288,
			"target":34962
		},
		{
			"buffer":0,
			"byteLength":7548,
			"byteOffset":60384,
			"target":34962
		},
		{
			"buffer":0,
			"byteLength":30192,
			"byteOffset":67932,
			"target":34962
		},
		{
			"buffer":0,
			"byteLength":9330,
			"byteOffset":98124,
			"target":34963
		},
		{
			"buffer":0,
			"byteLength":128,
			"byteOffset":107456
		},
		{
			"buffer":0,
			"byteLength":3900,
			"byteOffset":107584,
			"target":34962
		},
		{
			"buffer":0,
			"byteLength":3900,
			"byteOffset":111484,
			"target":34962
		},
		{
			"buffer":0,
			"byteLength":2600,
			"byteOffset":115384,
			"target":34962
		},
		{
			"buffer":0,
			"byteLength":1300,
			"byteOffset":117984,
			"target":34962
		},
		{
			"buffer":0,
			"byteLength":5200,
			"byteOffset":119284,
			"target":34962
		},
		{
			"buffer":0,
			"byteLength":1284,
			"byteOffset":124484,
			"target":34963
		},
		{
			"buffer":0,
			"byteLength":8652,
			"byteOffset":125768,
			"target":34962
		},
		{
			"buffer":0,
			"byteLength":8652,
			"byteOffset":134420,
			"target":34962
		},
		{
			"buffer":0,
			"byteLength":5768,
			"byteOffset":143072,
			"target":34962
		},
		{
			"buffer":0,
			"byteLength":2884,
			"byteOffset":148840,
			"target":34962
		},
		{
			"buffer":0,
			"byteLength":11536,
			"byteOffset":151724,
			"target":34962
		},
		{
			"buffer":0,
			"byteLength":4056,
			"byteOffset":163260,
			"target":34963
		}
	],
	"buffers":[
		{
			"byteLength":167316,
			"uri":"PileBunker.bin"
		}
	]
}
