{
	"asset":{
		"generator":"Khronos glTF Blender I/O v4.3.47",
		"version":"2.0"
	},
	"scene":0,
	"scenes":[
		{
			"name":"Scene",
			"nodes":[
				5
			]
		}
	],
	"nodes":[
		{
			"name":"Muzzle",
			"rotation":[
				0.7071067690849304,
				-1.376787679419067e-07,
				-1.376787679419067e-07,
				0.7071067690849304
			],
			"translation":[
				-1.4141700267791748,
				0.015518993139266968,
				0
			]
		},
		{
			"children":[
				0
			],
			"name":"Grip"
		},
		{
			"mesh":0,
			"name":"Body",
			"skin":0
		},
		{
			"mesh":1,
			"name":"Grip",
			"skin":0
		},
		{
			"mesh":2,
			"name":"Pile",
			"skin":0
		},
		{
			"children":[
				2,
				3,
				4,
				1
			],
			"name":"PileBunker"
		}
	],
	"animations":[
		{
			"channels":[
				{
					"sampler":0,
					"target":{
						"node":0,
						"path":"translation"
					}
				},
				{
					"sampler":1,
					"target":{
						"node":0,
						"path":"rotation"
					}
				},
				{
					"sampler":2,
					"target":{
						"node":0,
						"path":"scale"
					}
				}
			],
			"name":"Idle",
			"samplers":[
				{
					"input":19,
					"interpolation":"STEP",
					"output":20
				},
				{
					"input":19,
					"interpolation":"STEP",
					"output":21
				},
				{
					"input":19,
					"interpolation":"STEP",
					"output":22
				}
			]
		},
		{
			"channels":[
				{
					"sampler":0,
					"target":{
						"node":0,
						"path":"translation"
					}
				},
				{
					"sampler":1,
					"target":{
						"node":0,
						"path":"rotation"
					}
				},
				{
					"sampler":2,
					"target":{
						"node":0,
						"path":"scale"
					}
				}
			],
			"name":"Attack",
			"samplers":[
				{
					"input":23,
					"interpolation":"LINEAR",
					"output":24
				},
				{
					"input":25,
					"interpolation":"STEP",
					"output":26
				},
				{
					"input":25,
					"interpolation":"STEP",
					"output":27
				}
			]
		}
	],
	"materials":[
		{
			"doubleSided":true,
			"name":"GunMaterial",
			"pbrMetallicRoughness":{
				"baseColorTexture":{
					"index":0
				},
				"metallicFactor":0,
				"roughnessFactor":0.5
			}
		}
	],
	"meshes":[
		{
			"name":"Cylinder",
			"primitives":[
				{
					"attributes":{
						"POSITION":0,
						"NORMAL":1,
						"TEXCOORD_0":2,
						"JOINTS_0":3,
						"WEIGHTS_0":4
					},
					"indices":5,
					"material":0
				}
			]
		},
		{
			"name":"Cube",
			"primitives":[
				{
					"attributes":{
						"POSITION":7,
						"NORMAL":8,
						"TEXCOORD_0":9,
						"JOINTS_0":10,
						"WEIGHTS_0":11
					},
					"indices":12,
					"material":0
				}
			]
		},
		{
			"name":"Cylinder.001",
			"primitives":[
				{
					"attributes":{
						"POSITION":13,
						"NORMAL":14,
						"TEXCOORD_0":15,
						"JOINTS_0":16,
						"WEIGHTS_0":17
					},
					"indices":18,
					"material":0
				}
			]
		}
	],
	"textures":[
		{
			"sampler":0,
			"source":0
		}
	],
	"images":[
		{
			"mimeType":"image/png",
			"name":"PileBunkerTex",
			"uri":"PileBunkerTex.png"
		}
	],
	"skins":[
		{
			"inverseBindMatrices":6,
			"joints":[
				1,
				0
			],
			"name":"PileBunker"
		}
	],
	"accessors":[
		{
			"bufferView":0,
			"componentType":5126,
			"count":1711,
			"max":[
				-0.6000000834465027,
				0.7471825480461121,
				2.069999933242798
			],
			"min":[
				-2.220710277557373,
				-0.7500006556510925,
				-2.630000114440918
			],
			"type":"VEC3"
		},
		{
			"bufferView":1,
			"componentType":5126,
			"count":1711,
			"type":"VEC3"
		},
		{
			"bufferView":2,
			"componentType":5126,
			"count":1711,
			"type":"VEC2"
		},
		{
			"bufferView":3,
			"componentType":5121,
			"count":1711,
			"type":"VEC4"
		},
		{
			"bufferView":4,
			"componentType":5126,
			"count":1711,
			"type":"VEC4"
		},
		{
			"bufferView":5,
			"componentType":5123,
			"count":4683,
			"type":"SCALAR"
		},
		{
			"bufferView":6,
			"componentType":5126,
			"count":2,
			"type":"MAT4"
		},
		{
			"bufferView":7,
			"componentType":5126,
			"count":286,
			"max":[
				0.3500000536441803,
				0.6500001549720764,
				0.8399999737739563
			],
			"min":[
				-0.7500000596046448,
				-0.4850001037120819,
				-0.2400001585483551
			],
			"type":"VEC3"
		},
		{
			"bufferView":8,
			"componentType":5126,
			"count":286,
			"type":"VEC3"
		},
		{
			"bufferView":9,
			"componentType":5126,
			"count":286,
			"type":"VEC2"
		},
		{
			"bufferView":10,
			"componentType":5121,
			"count":286,
			"type":"VEC4"
		},
		{
			"bufferView":11,
			"componentType":5126,
			"count":286,
			"type":"VEC4"
		},
		{
			"bufferView":12,
			"componentType":5123,
			"count":642,
			"type":"SCALAR"
		},
		{
			"bufferView":13,
			"componentType":5126,
			"count":636,
			"max":[
				-1.0999995470046997,
				0.3000008463859558,
				3.4300010204315186
			],
			"min":[
				-1.7230268716812134,
				-0.30000102519989014,
				-4.64000129699707
			],
			"type":"VEC3"
		},
		{
			"bufferView":14,
			"componentType":5126,
			"count":636,
			"type":"VEC3"
		},
		{
			"bufferView":15,
			"componentType":5126,
			"count":636,
			"type":"VEC2"
		},
		{
			"bufferView":16,
			"componentType":5121,
			"count":636,
			"type":"VEC4"
		},
		{
			"bufferView":17,
			"componentType":5126,
			"count":636,
			"type":"VEC4"
		},
		{
			"bufferView":18,
			"componentType":5123,
			"count":2028,
			"type":"SCALAR"
		},
		{
			"bufferView":19,
			"componentType":5126,
			"count":2,
			"max":[
				0.016666666666666666
			],
			"min":[
				0
			],
			"type":"SCALAR"
		},
		{
			"bufferView":20,
			"componentType":5126,
			"count":2,
			"type":"VEC3"
		},
		{
			"bufferView":21,
			"componentType":5126,
			"count":2,
			"type":"VEC4"
		},
		{
			"bufferView":22,
			"componentType":5126,
			"count":2,
			"type":"VEC3"
		},
		{
			"bufferView":23,
			"componentType":5126,
			"count":46,
			"max":[
				0.75
			],
			"min":[
				0
			],
			"type":"SCALAR"
		},
		{
			"bufferView":24,
			"componentType":5126,
			"count":46,
			"type":"VEC3"
		},
		{
			"bufferView":25,
			"componentType":5126,
			"count":2,
			"max":[
				0.75
			],
			"min":[
				0
			],
			"type":"SCALAR"
		},
		{
			"bufferView":26,
			"componentType":5126,
			"count":2,
			"type":"VEC4"
		},
		{
			"bufferView":27,
			"componentType":5126,
			"count":2,
			"type":"VEC3"
		}
	],
	"bufferViews":[
		{
			"buffer":0,
			"byteLength":20532,
			"byteOffset":0,
			"target":34962
		},
		{
			"buffer":0,
			"byteLength":20532,
			"byteOffset":20532,
			"target":34962
		},
		{
			"buffer":0,
			"byteLength":13688,
			"byteOffset":41064,
			"target":34962
		},
		{
			"buffer":0,
			"byteLength":6844,
			"byteOffset":54752,
			"target":34962
		},
		{
			"buffer":0,
			"byteLength":27376,
			"byteOffset":61596,
			"target":34962
		},
		{
			"buffer":0,
			"byteLength":9366,
			"byteOffset":88972,
			"target":34963
		},
		{
			"buffer":0,
			"byteLength":128,
			"byteOffset":98340
		},
		{
			"buffer":0,
			"byteLength":3432,
			"byteOffset":98468,
			"target":34962
		},
		{
			"buffer":0,
			"byteLength":3432,
			"byteOffset":101900,
			"target":34962
		},
		{
			"buffer":0,
			"byteLength":2288,
			"byteOffset":105332,
			"target":34962
		},
		{
			"buffer":0,
			"byteLength":1144,
			"byteOffset":107620,
			"target":34962
		},
		{
			"buffer":0,
			"byteLength":4576,
			"byteOffset":108764,
			"target":34962
		},
		{
			"buffer":0,
			"byteLength":1284,
			"byteOffset":113340,
			"target":34963
		},
		{
			"buffer":0,
			"byteLength":7632,
			"byteOffset":114624,
			"target":34962
		},
		{
			"buffer":0,
			"byteLength":7632,
			"byteOffset":122256,
			"target":34962
		},
		{
			"buffer":0,
			"byteLength":5088,
			"byteOffset":129888,
			"target":34962
		},
		{
			"buffer":0,
			"byteLength":2544,
			"byteOffset":134976,
			"target":34962
		},
		{
			"buffer":0,
			"byteLength":10176,
			"byteOffset":137520,
			"target":34962
		},
		{
			"buffer":0,
			"byteLength":4056,
			"byteOffset":147696,
			"target":34963
		},
		{
			"buffer":0,
			"byteLength":8,
			"byteOffset":151752
		},
		{
			"buffer":0,
			"byteLength":24,
			"byteOffset":151760
		},
		{
			"buffer":0,
			"byteLength":32,
			"byteOffset":151784
		},
		{
			"buffer":0,
			"byteLength":24,
			"byteOffset":151816
		},
		{
			"buffer":0,
			"byteLength":184,
			"byteOffset":151840
		},
		{
			"buffer":0,
			"byteLength":552,
			"byteOffset":152024
		},
		{
			"buffer":0,
			"byteLength":8,
			"byteOffset":152576
		},
		{
			"buffer":0,
			"byteLength":32,
			"byteOffset":152584
		},
		{
			"buffer":0,
			"byteLength":24,
			"byteOffset":152616
		}
	],
	"samplers":[
		{
			"magFilter":9729,
			"minFilter":9987
		}
	],
	"buffers":[
		{
			"byteLength":152640,
			"uri":"PileBunker_R.bin"
		}
	]
}
