{
	"asset":{
		"generator":"Khronos glTF Blender I/O v4.3.47",
		"version":"2.0"
	},
	"scene":0,
	"scenes":[
		{
			"name":"Scene",
			"nodes":[
				5
			]
		}
	],
	"nodes":[
		{
			"name":"Muzzle",
			"rotation":[
				0.7071067690849304,
				-1.1520231879558196e-07,
				-1.1520231879558196e-07,
				0.7071067690849304
			],
			"translation":[
				-1.4141700267791748,
				0.015518993139266968,
				0
			]
		},
		{
			"children":[
				0
			],
			"name":"Grip"
		},
		{
			"mesh":0,
			"name":"Body",
			"skin":0
		},
		{
			"mesh":1,
			"name":"Grip",
			"skin":0
		},
		{
			"mesh":2,
			"name":"Pile",
			"skin":0
		},
		{
			"children":[
				2,
				3,
				4,
				1
			],
			"name":"PileBunker"
		}
	],
	"materials":[
		{
			"doubleSided":true,
			"name":"GunMaterial",
			"pbrMetallicRoughness":{
				"baseColorFactor":[
					0.800000011920929,
					0.800000011920929,
					0.800000011920929,
					1
				],
				"metallicFactor":0,
				"roughnessFactor":0.5
			}
		}
	],
	"meshes":[
		{
			"name":"Cylinder",
			"primitives":[
				{
					"attributes":{
						"POSITION":0,
						"NORMAL":1,
						"TEXCOORD_0":2,
						"JOINTS_0":3,
						"WEIGHTS_0":4
					},
					"indices":5,
					"material":0
				}
			]
		},
		{
			"name":"Cube",
			"primitives":[
				{
					"attributes":{
						"POSITION":7,
						"NORMAL":8,
						"TEXCOORD_0":9,
						"JOINTS_0":10,
						"WEIGHTS_0":11
					},
					"indices":12,
					"material":0
				}
			]
		},
		{
			"name":"Cylinder.001",
			"primitives":[
				{
					"attributes":{
						"POSITION":13,
						"NORMAL":14,
						"TEXCOORD_0":15,
						"JOINTS_0":16,
						"WEIGHTS_0":17
					},
					"indices":18,
					"material":0
				}
			]
		}
	],
	"skins":[
		{
			"inverseBindMatrices":6,
			"joints":[
				1,
				0
			],
			"name":"PileBunker"
		}
	],
	"accessors":[
		{
			"bufferView":0,
			"componentType":5126,
			"count":1880,
			"max":[
				-0.6000000834465027,
				0.7471824288368225,
				2.069999933242798
			],
			"min":[
				-2.220710277557373,
				-0.750000536441803,
				-2.630000114440918
			],
			"type":"VEC3"
		},
		{
			"bufferView":1,
			"componentType":5126,
			"count":1880,
			"type":"VEC3"
		},
		{
			"bufferView":2,
			"componentType":5126,
			"count":1880,
			"type":"VEC2"
		},
		{
			"bufferView":3,
			"componentType":5121,
			"count":1880,
			"type":"VEC4"
		},
		{
			"bufferView":4,
			"componentType":5126,
			"count":1880,
			"type":"VEC4"
		},
		{
			"bufferView":5,
			"componentType":5123,
			"count":4665,
			"type":"SCALAR"
		},
		{
			"bufferView":6,
			"componentType":5126,
			"count":2,
			"type":"MAT4"
		},
		{
			"bufferView":7,
			"componentType":5126,
			"count":323,
			"max":[
				0.3500000536441803,
				0.6500000357627869,
				0.8399999737739563
			],
			"min":[
				-0.7500000596046448,
				-0.48500004410743713,
				-0.24000003933906555
			],
			"type":"VEC3"
		},
		{
			"bufferView":8,
			"componentType":5126,
			"count":323,
			"type":"VEC3"
		},
		{
			"bufferView":9,
			"componentType":5126,
			"count":323,
			"type":"VEC2"
		},
		{
			"bufferView":10,
			"componentType":5121,
			"count":323,
			"type":"VEC4"
		},
		{
			"bufferView":11,
			"componentType":5126,
			"count":323,
			"type":"VEC4"
		},
		{
			"bufferView":12,
			"componentType":5123,
			"count":642,
			"type":"SCALAR"
		},
		{
			"bufferView":13,
			"componentType":5126,
			"count":721,
			"max":[
				-1.0999995470046997,
				0.3000003695487976,
				3.4300010204315186
			],
			"min":[
				-1.7230268716812134,
				-0.30000030994415283,
				-4.64000129699707
			],
			"type":"VEC3"
		},
		{
			"bufferView":14,
			"componentType":5126,
			"count":721,
			"type":"VEC3"
		},
		{
			"bufferView":15,
			"componentType":5126,
			"count":721,
			"type":"VEC2"
		},
		{
			"bufferView":16,
			"componentType":5121,
			"count":721,
			"type":"VEC4"
		},
		{
			"bufferView":17,
			"componentType":5126,
			"count":721,
			"type":"VEC4"
		},
		{
			"bufferView":18,
			"componentType":5123,
			"count":2028,
			"type":"SCALAR"
		}
	],
	"bufferViews":[
		{
			"buffer":0,
			"byteLength":22560,
			"byteOffset":0,
			"target":34962
		},
		{
			"buffer":0,
			"byteLength":22560,
			"byteOffset":22560,
			"target":34962
		},
		{
			"buffer":0,
			"byteLength":15040,
			"byteOffset":45120,
			"target":34962
		},
		{
			"buffer":0,
			"byteLength":7520,
			"byteOffset":60160,
			"target":34962
		},
		{
			"buffer":0,
			"byteLength":30080,
			"byteOffset":67680,
			"target":34962
		},
		{
			"buffer":0,
			"byteLength":9330,
			"byteOffset":97760,
			"target":34963
		},
		{
			"buffer":0,
			"byteLength":128,
			"byteOffset":107092
		},
		{
			"buffer":0,
			"byteLength":3876,
			"byteOffset":107220,
			"target":34962
		},
		{
			"buffer":0,
			"byteLength":3876,
			"byteOffset":111096,
			"target":34962
		},
		{
			"buffer":0,
			"byteLength":2584,
			"byteOffset":114972,
			"target":34962
		},
		{
			"buffer":0,
			"byteLength":1292,
			"byteOffset":117556,
			"target":34962
		},
		{
			"buffer":0,
			"byteLength":5168,
			"byteOffset":118848,
			"target":34962
		},
		{
			"buffer":0,
			"byteLength":1284,
			"byteOffset":124016,
			"target":34963
		},
		{
			"buffer":0,
			"byteLength":8652,
			"byteOffset":125300,
			"target":34962
		},
		{
			"buffer":0,
			"byteLength":8652,
			"byteOffset":133952,
			"target":34962
		},
		{
			"buffer":0,
			"byteLength":5768,
			"byteOffset":142604,
			"target":34962
		},
		{
			"buffer":0,
			"byteLength":2884,
			"byteOffset":148372,
			"target":34962
		},
		{
			"buffer":0,
			"byteLength":11536,
			"byteOffset":151256,
			"target":34962
		},
		{
			"buffer":0,
			"byteLength":4056,
			"byteOffset":162792,
			"target":34963
		}
	],
	"buffers":[
		{
			"byteLength":166848,
			"uri":"PileBunker_R.bin"
		}
	]
}
