{
	"asset":{
		"generator":"Khronos glTF Blender I/O v3.5.30",
		"version":"2.0"
	},
	"scene":0,
	"scenes":[
		{
			"name":"Scene",
			"nodes":[
				0
			]
		}
	],
	"nodes":[
		{
			"mesh":0,
			"name":"Tree",
			"scale":[
				2.4199299812316895,
				2.4199299812316895,
				2.4199299812316895
			]
		}
	],
	"materials":[
		{
			"doubleSided":true,
			"name":"TreeMaterial",
			"pbrMetallicRoughness":{
				"baseColorTexture":{
					"index":0
				},
				"metallicFactor":0,
				"roughnessFactor":0.5
			}
		}
	],
	"meshes":[
		{
			"name":"\u7acb\u65b9\u4f53.2441",
			"primitives":[
				{
					"attributes":{
						"POSITION":0,
						"TEXCOORD_0":1,
						"NORMAL":2
					},
					"indices":3,
					"material":0
				}
			]
		}
	],
	"textures":[
		{
			"sampler":0,
			"source":0
		}
	],
	"images":[
		{
			"mimeType":"image/png",
			"name":"TreeTexture",
			"uri":"TreeTexture.png"
		}
	],
	"accessors":[
		{
			"bufferView":0,
			"componentType":5126,
			"count":534,
			"max":[
				4.530465126037598,
				8.6577730178833,
				5.170064926147461
			],
			"min":[
				-5.296679496765137,
				-6.724606513977051,
				-4.766816139221191
			],
			"type":"VEC3"
		},
		{
			"bufferView":1,
			"componentType":5126,
			"count":534,
			"type":"VEC2"
		},
		{
			"bufferView":2,
			"componentType":5126,
			"count":534,
			"type":"VEC3"
		},
		{
			"bufferView":3,
			"componentType":5123,
			"count":1056,
			"type":"SCALAR"
		}
	],
	"bufferViews":[
		{
			"buffer":0,
			"byteLength":6408,
			"byteOffset":0,
			"target":34962
		},
		{
			"buffer":0,
			"byteLength":4272,
			"byteOffset":6408,
			"target":34962
		},
		{
			"buffer":0,
			"byteLength":6408,
			"byteOffset":10680,
			"target":34962
		},
		{
			"buffer":0,
			"byteLength":2112,
			"byteOffset":17088,
			"target":34963
		}
	],
	"samplers":[
		{
			"magFilter":9729,
			"minFilter":9987
		}
	],
	"buffers":[
		{
			"byteLength":19200,
			"uri":"Tree.bin"
		}
	]
}
