{
	"asset":{
		"generator":"Khronos glTF Blender I/O v4.3.47",
		"version":"2.0"
	},
	"scene":0,
	"scenes":[
		{
			"name":"Scene",
			"nodes":[
				6
			]
		}
	],
	"nodes":[
		{
			"name":"Muzzle",
			"rotation":[
				0.7071067690849304,
				-1.9949601437474485e-07,
				-1.9949601437474485e-07,
				0.7071067690849304
			],
			"translation":[
				0,
				0.6481639742851257,
				3.4964699745178223
			]
		},
		{
			"children":[
				0
			],
			"name":"Grip"
		},
		{
			"mesh":0,
			"name":"Barrel",
			"skin":0
		},
		{
			"mesh":1,
			"name":"Body",
			"skin":0
		},
		{
			"mesh":2,
			"name":"Grip",
			"skin":0
		},
		{
			"mesh":3,
			"name":"LazerPointer",
			"skin":0
		},
		{
			"children":[
				2,
				3,
				4,
				5,
				1
			],
			"name":"Pistol"
		}
	],
	"materials":[
		{
			"doubleSided":true,
			"name":"GunMaterial",
			"pbrMetallicRoughness":{
				"baseColorTexture":{
					"index":0
				},
				"metallicFactor":0,
				"roughnessFactor":0.5
			}
		}
	],
	"meshes":[
		{
			"name":"Cylinder",
			"primitives":[
				{
					"attributes":{
						"POSITION":0,
						"NORMAL":1,
						"TEXCOORD_0":2,
						"JOINTS_0":3,
						"WEIGHTS_0":4
					},
					"indices":5,
					"material":0
				}
			]
		},
		{
			"name":"Cube.003",
			"primitives":[
				{
					"attributes":{
						"POSITION":7,
						"NORMAL":8,
						"TEXCOORD_0":9,
						"JOINTS_0":10,
						"WEIGHTS_0":11
					},
					"indices":12,
					"material":0
				}
			]
		},
		{
			"name":"Cube.002",
			"primitives":[
				{
					"attributes":{
						"POSITION":13,
						"NORMAL":14,
						"TEXCOORD_0":15,
						"JOINTS_0":16,
						"WEIGHTS_0":17
					},
					"indices":18,
					"material":0
				}
			]
		},
		{
			"name":"Cylinder.001",
			"primitives":[
				{
					"attributes":{
						"POSITION":19,
						"NORMAL":20,
						"TEXCOORD_0":21,
						"JOINTS_0":22,
						"WEIGHTS_0":23
					},
					"indices":24,
					"material":0
				}
			]
		}
	],
	"textures":[
		{
			"sampler":0,
			"source":0
		}
	],
	"images":[
		{
			"mimeType":"image/png",
			"name":"PistolTex",
			"uri":"PistolTex.png"
		}
	],
	"skins":[
		{
			"inverseBindMatrices":6,
			"joints":[
				1,
				0
			],
			"name":"Pistol"
		}
	],
	"accessors":[
		{
			"bufferView":0,
			"componentType":5126,
			"count":160,
			"max":[
				0.11500002443790436,
				0.7631638050079346,
				3.614999771118164
			],
			"min":[
				-0.11500002443790436,
				0.533163845539093,
				3.385000228881836
			],
			"type":"VEC3"
		},
		{
			"bufferView":1,
			"componentType":5126,
			"count":160,
			"type":"VEC3"
		},
		{
			"bufferView":2,
			"componentType":5126,
			"count":160,
			"type":"VEC2"
		},
		{
			"bufferView":3,
			"componentType":5121,
			"count":160,
			"type":"VEC4"
		},
		{
			"bufferView":4,
			"componentType":5126,
			"count":160,
			"type":"VEC4"
		},
		{
			"bufferView":5,
			"componentType":5123,
			"count":468,
			"type":"SCALAR"
		},
		{
			"bufferView":6,
			"componentType":5126,
			"count":2,
			"type":"MAT4"
		},
		{
			"bufferView":7,
			"componentType":5126,
			"count":2229,
			"max":[
				0.18999983370304108,
				0.9950000047683716,
				3.648591995239258
			],
			"min":[
				-0.18999983370304108,
				0.11036577820777893,
				-0.4000000059604645
			],
			"type":"VEC3"
		},
		{
			"bufferView":8,
			"componentType":5126,
			"count":2229,
			"type":"VEC3"
		},
		{
			"bufferView":9,
			"componentType":5126,
			"count":2229,
			"type":"VEC2"
		},
		{
			"bufferView":10,
			"componentType":5121,
			"count":2229,
			"type":"VEC4"
		},
		{
			"bufferView":11,
			"componentType":5126,
			"count":2229,
			"type":"VEC4"
		},
		{
			"bufferView":12,
			"componentType":5123,
			"count":5838,
			"type":"SCALAR"
		},
		{
			"bufferView":13,
			"componentType":5126,
			"count":168,
			"max":[
				0.12000005692243576,
				0.3999999761581421,
				0.3503333330154419
			],
			"min":[
				-0.12000005692243576,
				-0.47499996423721313,
				-0.25866663455963135
			],
			"type":"VEC3"
		},
		{
			"bufferView":14,
			"componentType":5126,
			"count":168,
			"type":"VEC3"
		},
		{
			"bufferView":15,
			"componentType":5126,
			"count":168,
			"type":"VEC2"
		},
		{
			"bufferView":16,
			"componentType":5121,
			"count":168,
			"type":"VEC4"
		},
		{
			"bufferView":17,
			"componentType":5126,
			"count":168,
			"type":"VEC4"
		},
		{
			"bufferView":18,
			"componentType":5123,
			"count":276,
			"type":"SCALAR"
		},
		{
			"bufferView":19,
			"componentType":5126,
			"count":366,
			"max":[
				0.07750001549720764,
				1.0570329427719116,
				0.23000000417232513
			],
			"min":[
				-0.07750001549720764,
				0.8812573552131653,
				-0.14000001549720764
			],
			"type":"VEC3"
		},
		{
			"bufferView":20,
			"componentType":5126,
			"count":366,
			"type":"VEC3"
		},
		{
			"bufferView":21,
			"componentType":5126,
			"count":366,
			"type":"VEC2"
		},
		{
			"bufferView":22,
			"componentType":5121,
			"count":366,
			"type":"VEC4"
		},
		{
			"bufferView":23,
			"componentType":5126,
			"count":366,
			"type":"VEC4"
		},
		{
			"bufferView":24,
			"componentType":5123,
			"count":828,
			"type":"SCALAR"
		}
	],
	"bufferViews":[
		{
			"buffer":0,
			"byteLength":1920,
			"byteOffset":0,
			"target":34962
		},
		{
			"buffer":0,
			"byteLength":1920,
			"byteOffset":1920,
			"target":34962
		},
		{
			"buffer":0,
			"byteLength":1280,
			"byteOffset":3840,
			"target":34962
		},
		{
			"buffer":0,
			"byteLength":640,
			"byteOffset":5120,
			"target":34962
		},
		{
			"buffer":0,
			"byteLength":2560,
			"byteOffset":5760,
			"target":34962
		},
		{
			"buffer":0,
			"byteLength":936,
			"byteOffset":8320,
			"target":34963
		},
		{
			"buffer":0,
			"byteLength":128,
			"byteOffset":9256
		},
		{
			"buffer":0,
			"byteLength":26748,
			"byteOffset":9384,
			"target":34962
		},
		{
			"buffer":0,
			"byteLength":26748,
			"byteOffset":36132,
			"target":34962
		},
		{
			"buffer":0,
			"byteLength":17832,
			"byteOffset":62880,
			"target":34962
		},
		{
			"buffer":0,
			"byteLength":8916,
			"byteOffset":80712,
			"target":34962
		},
		{
			"buffer":0,
			"byteLength":35664,
			"byteOffset":89628,
			"target":34962
		},
		{
			"buffer":0,
			"byteLength":11676,
			"byteOffset":125292,
			"target":34963
		},
		{
			"buffer":0,
			"byteLength":2016,
			"byteOffset":136968,
			"target":34962
		},
		{
			"buffer":0,
			"byteLength":2016,
			"byteOffset":138984,
			"target":34962
		},
		{
			"buffer":0,
			"byteLength":1344,
			"byteOffset":141000,
			"target":34962
		},
		{
			"buffer":0,
			"byteLength":672,
			"byteOffset":142344,
			"target":34962
		},
		{
			"buffer":0,
			"byteLength":2688,
			"byteOffset":143016,
			"target":34962
		},
		{
			"buffer":0,
			"byteLength":552,
			"byteOffset":145704,
			"target":34963
		},
		{
			"buffer":0,
			"byteLength":4392,
			"byteOffset":146256,
			"target":34962
		},
		{
			"buffer":0,
			"byteLength":4392,
			"byteOffset":150648,
			"target":34962
		},
		{
			"buffer":0,
			"byteLength":2928,
			"byteOffset":155040,
			"target":34962
		},
		{
			"buffer":0,
			"byteLength":1464,
			"byteOffset":157968,
			"target":34962
		},
		{
			"buffer":0,
			"byteLength":5856,
			"byteOffset":159432,
			"target":34962
		},
		{
			"buffer":0,
			"byteLength":1656,
			"byteOffset":165288,
			"target":34963
		}
	],
	"samplers":[
		{
			"magFilter":9729,
			"minFilter":9987
		}
	],
	"buffers":[
		{
			"byteLength":166944,
			"uri":"Pistol.bin"
		}
	]
}
