{
	"asset":{
		"generator":"Khronos glTF Blender I/O v4.3.47",
		"version":"2.0"
	},
	"scene":0,
	"scenes":[
		{
			"name":"Scene",
			"nodes":[
				13
			]
		}
	],
	"nodes":[
		{
			"name":"Muzzle",
			"rotation":[
				0.7071067690849304,
				-1.1520231879558196e-07,
				-1.1520231879558196e-07,
				0.7071067690849304
			],
			"translation":[
				0,
				0.33618399500846863,
				7.903820037841797
			]
		},
		{
			"children":[
				0
			],
			"name":"Grip"
		},
		{
			"name":"neutral_bone",
			"rotation":[
				-0.7071067690849304,
				0,
				0,
				0.7071067690849304
			]
		},
		{
			"mesh":0,
			"name":"Barrel",
			"skin":0
		},
		{
			"mesh":1,
			"name":"BarrelParts",
			"skin":0
		},
		{
			"mesh":2,
			"name":"Cube",
			"skin":0
		},
		{
			"mesh":3,
			"name":"Grip",
			"skin":0
		},
		{
			"mesh":4,
			"name":"GripParts",
			"skin":0
		},
		{
			"mesh":5,
			"name":"GripParts.001",
			"skin":0
		},
		{
			"mesh":6,
			"name":"GripParts.002",
			"skin":0
		},
		{
			"mesh":7,
			"name":"GripParts.003",
			"skin":0
		},
		{
			"mesh":8,
			"name":"Lazer",
			"skin":0
		},
		{
			"mesh":9,
			"name":"Scope",
			"skin":0
		},
		{
			"children":[
				3,
				4,
				5,
				6,
				7,
				8,
				9,
				10,
				11,
				12,
				1,
				2
			],
			"name":"Rifle"
		}
	],
	"materials":[
		{
			"doubleSided":true,
			"name":"GunMaterial",
			"pbrMetallicRoughness":{
				"baseColorTexture":{
					"index":0
				},
				"metallicFactor":0,
				"roughnessFactor":0.5
			}
		}
	],
	"meshes":[
		{
			"name":"Cylinder.003",
			"primitives":[
				{
					"attributes":{
						"POSITION":0,
						"NORMAL":1,
						"TEXCOORD_0":2,
						"JOINTS_0":3,
						"WEIGHTS_0":4
					},
					"indices":5,
					"material":0
				}
			]
		},
		{
			"name":"Cube.004",
			"primitives":[
				{
					"attributes":{
						"POSITION":7,
						"NORMAL":8,
						"TEXCOORD_0":9,
						"JOINTS_0":10,
						"WEIGHTS_0":11
					},
					"indices":12,
					"material":0
				}
			]
		},
		{
			"name":"Cube.005",
			"primitives":[
				{
					"attributes":{
						"POSITION":13,
						"NORMAL":14,
						"TEXCOORD_0":15,
						"JOINTS_0":16,
						"WEIGHTS_0":17
					},
					"indices":18,
					"material":0
				}
			]
		},
		{
			"name":"Cube",
			"primitives":[
				{
					"attributes":{
						"POSITION":19,
						"NORMAL":20,
						"TEXCOORD_0":21,
						"JOINTS_0":22,
						"WEIGHTS_0":23
					},
					"indices":24,
					"material":0
				}
			]
		},
		{
			"name":"Cube.001",
			"primitives":[
				{
					"attributes":{
						"POSITION":25,
						"NORMAL":26,
						"TEXCOORD_0":27,
						"JOINTS_0":28,
						"WEIGHTS_0":29
					},
					"indices":30,
					"material":0
				}
			]
		},
		{
			"name":"Cylinder.001",
			"primitives":[
				{
					"attributes":{
						"POSITION":31,
						"NORMAL":32,
						"TEXCOORD_0":33,
						"COLOR_0":34,
						"COLOR_1":35,
						"JOINTS_0":36,
						"WEIGHTS_0":37
					},
					"indices":38,
					"material":0
				}
			]
		},
		{
			"name":"Cylinder",
			"primitives":[
				{
					"attributes":{
						"POSITION":39,
						"NORMAL":40,
						"TEXCOORD_0":41,
						"JOINTS_0":42,
						"WEIGHTS_0":43
					},
					"indices":44,
					"material":0
				}
			]
		},
		{
			"name":"Cube.002",
			"primitives":[
				{
					"attributes":{
						"POSITION":45,
						"NORMAL":46,
						"TEXCOORD_0":47,
						"JOINTS_0":48,
						"WEIGHTS_0":49
					},
					"indices":50,
					"material":0
				}
			]
		},
		{
			"name":"Cylinder.002",
			"primitives":[
				{
					"attributes":{
						"POSITION":51,
						"NORMAL":52,
						"TEXCOORD_0":53,
						"JOINTS_0":54,
						"WEIGHTS_0":55
					},
					"indices":56,
					"material":0
				}
			]
		},
		{
			"name":"Cube.003",
			"primitives":[
				{
					"attributes":{
						"POSITION":57,
						"NORMAL":58,
						"TEXCOORD_0":59,
						"JOINTS_0":60,
						"WEIGHTS_0":61
					},
					"indices":62,
					"material":0
				}
			]
		}
	],
	"textures":[
		{
			"sampler":0,
			"source":0
		}
	],
	"images":[
		{
			"mimeType":"image/png",
			"name":"RifleTex",
			"uri":"RifleTex.png"
		}
	],
	"skins":[
		{
			"inverseBindMatrices":6,
			"joints":[
				1,
				0,
				2
			],
			"name":"Rifle"
		}
	],
	"accessors":[
		{
			"bufferView":0,
			"componentType":5126,
			"count":224,
			"max":[
				0.08897687494754791,
				0.6973649859428406,
				8.042045593261719
			],
			"min":[
				-0.08897687494754791,
				0.24720695614814758,
				7.639561653137207
			],
			"type":"VEC3"
		},
		{
			"bufferView":1,
			"componentType":5126,
			"count":224,
			"type":"VEC3"
		},
		{
			"bufferView":2,
			"componentType":5126,
			"count":224,
			"type":"VEC2"
		},
		{
			"bufferView":3,
			"componentType":5121,
			"count":224,
			"type":"VEC4"
		},
		{
			"bufferView":4,
			"componentType":5126,
			"count":224,
			"type":"VEC4"
		},
		{
			"bufferView":5,
			"componentType":5123,
			"count":648,
			"type":"SCALAR"
		},
		{
			"bufferView":6,
			"componentType":5126,
			"count":3,
			"type":"MAT4"
		},
		{
			"bufferView":7,
			"componentType":5126,
			"count":72,
			"max":[
				0.10000002384185791,
				0.4618465304374695,
				1.8000000715255737
			],
			"min":[
				-0.10000002384185791,
				0.19999998807907104,
				1.0999997854232788
			],
			"type":"VEC3"
		},
		{
			"bufferView":8,
			"componentType":5126,
			"count":72,
			"type":"VEC3"
		},
		{
			"bufferView":9,
			"componentType":5126,
			"count":72,
			"type":"VEC2"
		},
		{
			"bufferView":10,
			"componentType":5121,
			"count":72,
			"type":"VEC4"
		},
		{
			"bufferView":11,
			"componentType":5126,
			"count":72,
			"type":"VEC4"
		},
		{
			"bufferView":12,
			"componentType":5123,
			"count":132,
			"type":"SCALAR"
		},
		{
			"bufferView":13,
			"componentType":5126,
			"count":1113,
			"max":[
				0.18694207072257996,
				0.8569855093955994,
				7.825000286102295
			],
			"min":[
				-0.18694207072257996,
				-0.5789220333099365,
				0.12999999523162842
			],
			"type":"VEC3"
		},
		{
			"bufferView":14,
			"componentType":5126,
			"count":1113,
			"type":"VEC3"
		},
		{
			"bufferView":15,
			"componentType":5126,
			"count":1113,
			"type":"VEC2"
		},
		{
			"bufferView":16,
			"componentType":5121,
			"count":1113,
			"type":"VEC4"
		},
		{
			"bufferView":17,
			"componentType":5126,
			"count":1113,
			"type":"VEC4"
		},
		{
			"bufferView":18,
			"componentType":5123,
			"count":2673,
			"type":"SCALAR"
		},
		{
			"bufferView":19,
			"componentType":5126,
			"count":228,
			"max":[
				0.16071070730686188,
				0.3999999463558197,
				0.24260079860687256
			],
			"min":[
				-0.16071070730686188,
				-0.6677350401878357,
				-0.3326009213924408
			],
			"type":"VEC3"
		},
		{
			"bufferView":20,
			"componentType":5126,
			"count":228,
			"type":"VEC3"
		},
		{
			"bufferView":21,
			"componentType":5126,
			"count":228,
			"type":"VEC2"
		},
		{
			"bufferView":22,
			"componentType":5121,
			"count":228,
			"type":"VEC4"
		},
		{
			"bufferView":23,
			"componentType":5126,
			"count":228,
			"type":"VEC4"
		},
		{
			"bufferView":24,
			"componentType":5123,
			"count":420,
			"type":"SCALAR"
		},
		{
			"bufferView":25,
			"componentType":5126,
			"count":304,
			"max":[
				0.15500004589557648,
				0.7097777724266052,
				0.5000000596046448
			],
			"min":[
				-0.15500004589557648,
				0.38977766036987305,
				-0.8999999761581421
			],
			"type":"VEC3"
		},
		{
			"bufferView":26,
			"componentType":5126,
			"count":304,
			"type":"VEC3"
		},
		{
			"bufferView":27,
			"componentType":5126,
			"count":304,
			"type":"VEC2"
		},
		{
			"bufferView":28,
			"componentType":5121,
			"count":304,
			"type":"VEC4"
		},
		{
			"bufferView":29,
			"componentType":5126,
			"count":304,
			"type":"VEC4"
		},
		{
			"bufferView":30,
			"componentType":5123,
			"count":612,
			"type":"SCALAR"
		},
		{
			"bufferView":31,
			"componentType":5126,
			"count":128,
			"max":[
				0.1373099684715271,
				0.7364662885665894,
				1.7400003671646118
			],
			"min":[
				-0.1373099684715271,
				0.4618465304374695,
				1.0999993085861206
			],
			"type":"VEC3"
		},
		{
			"bufferView":32,
			"componentType":5126,
			"count":128,
			"type":"VEC3"
		},
		{
			"bufferView":33,
			"componentType":5126,
			"count":128,
			"type":"VEC2"
		},
		{
			"bufferView":34,
			"componentType":5121,
			"count":128,
			"normalized":true,
			"type":"VEC4"
		},
		{
			"bufferView":35,
			"componentType":5123,
			"count":128,
			"normalized":true,
			"type":"VEC4"
		},
		{
			"bufferView":36,
			"componentType":5121,
			"count":128,
			"type":"VEC4"
		},
		{
			"bufferView":37,
			"componentType":5126,
			"count":128,
			"type":"VEC4"
		},
		{
			"bufferView":38,
			"componentType":5123,
			"count":372,
			"type":"SCALAR"
		},
		{
			"bufferView":39,
			"componentType":5126,
			"count":64,
			"max":[
				0.1373099684715271,
				0.9634934067726135,
				0.5000000596046448
			],
			"min":[
				-0.1373099684715271,
				0.6888735890388489,
				-0.8520002365112305
			],
			"type":"VEC3"
		},
		{
			"bufferView":40,
			"componentType":5126,
			"count":64,
			"type":"VEC3"
		},
		{
			"bufferView":41,
			"componentType":5126,
			"count":64,
			"type":"VEC2"
		},
		{
			"bufferView":42,
			"componentType":5121,
			"count":64,
			"type":"VEC4"
		},
		{
			"bufferView":43,
			"componentType":5126,
			"count":64,
			"type":"VEC4"
		},
		{
			"bufferView":44,
			"componentType":5123,
			"count":180,
			"type":"SCALAR"
		},
		{
			"bufferView":45,
			"componentType":5126,
			"count":706,
			"max":[
				0.15337598323822021,
				1.105757713317871,
				3.1000001430511475
			],
			"min":[
				-0.15337598323822021,
				0.3999999761581421,
				0.2628166973590851
			],
			"type":"VEC3"
		},
		{
			"bufferView":46,
			"componentType":5126,
			"count":706,
			"type":"VEC3"
		},
		{
			"bufferView":47,
			"componentType":5126,
			"count":706,
			"type":"VEC2"
		},
		{
			"bufferView":48,
			"componentType":5121,
			"count":706,
			"type":"VEC4"
		},
		{
			"bufferView":49,
			"componentType":5126,
			"count":706,
			"type":"VEC4"
		},
		{
			"bufferView":50,
			"componentType":5123,
			"count":1860,
			"type":"SCALAR"
		},
		{
			"bufferView":51,
			"componentType":5126,
			"count":288,
			"max":[
				0.05389583110809326,
				1.0889678001403809,
				3.1873061656951904
			],
			"min":[
				-0.05389581620693207,
				0.9811762571334839,
				3.075103521347046
			],
			"type":"VEC3"
		},
		{
			"bufferView":52,
			"componentType":5126,
			"count":288,
			"type":"VEC3"
		},
		{
			"bufferView":53,
			"componentType":5126,
			"count":288,
			"type":"VEC2"
		},
		{
			"bufferView":54,
			"componentType":5121,
			"count":288,
			"type":"VEC4"
		},
		{
			"bufferView":55,
			"componentType":5126,
			"count":288,
			"type":"VEC4"
		},
		{
			"bufferView":56,
			"componentType":5123,
			"count":852,
			"type":"SCALAR"
		},
		{
			"bufferView":57,
			"componentType":5126,
			"count":596,
			"max":[
				0.14730995893478394,
				1.3090057373046875,
				0.2824999690055847
			],
			"min":[
				-0.14730995893478394,
				0.7034934163093567,
				-1.21999990940094
			],
			"type":"VEC3"
		},
		{
			"bufferView":58,
			"componentType":5126,
			"count":596,
			"type":"VEC3"
		},
		{
			"bufferView":59,
			"componentType":5126,
			"count":596,
			"type":"VEC2"
		},
		{
			"bufferView":60,
			"componentType":5121,
			"count":596,
			"type":"VEC4"
		},
		{
			"bufferView":61,
			"componentType":5126,
			"count":596,
			"type":"VEC4"
		},
		{
			"bufferView":62,
			"componentType":5123,
			"count":1602,
			"type":"SCALAR"
		}
	],
	"bufferViews":[
		{
			"buffer":0,
			"byteLength":2688,
			"byteOffset":0,
			"target":34962
		},
		{
			"buffer":0,
			"byteLength":2688,
			"byteOffset":2688,
			"target":34962
		},
		{
			"buffer":0,
			"byteLength":1792,
			"byteOffset":5376,
			"target":34962
		},
		{
			"buffer":0,
			"byteLength":896,
			"byteOffset":7168,
			"target":34962
		},
		{
			"buffer":0,
			"byteLength":3584,
			"byteOffset":8064,
			"target":34962
		},
		{
			"buffer":0,
			"byteLength":1296,
			"byteOffset":11648,
			"target":34963
		},
		{
			"buffer":0,
			"byteLength":192,
			"byteOffset":12944
		},
		{
			"buffer":0,
			"byteLength":864,
			"byteOffset":13136,
			"target":34962
		},
		{
			"buffer":0,
			"byteLength":864,
			"byteOffset":14000,
			"target":34962
		},
		{
			"buffer":0,
			"byteLength":576,
			"byteOffset":14864,
			"target":34962
		},
		{
			"buffer":0,
			"byteLength":288,
			"byteOffset":15440,
			"target":34962
		},
		{
			"buffer":0,
			"byteLength":1152,
			"byteOffset":15728,
			"target":34962
		},
		{
			"buffer":0,
			"byteLength":264,
			"byteOffset":16880,
			"target":34963
		},
		{
			"buffer":0,
			"byteLength":13356,
			"byteOffset":17144,
			"target":34962
		},
		{
			"buffer":0,
			"byteLength":13356,
			"byteOffset":30500,
			"target":34962
		},
		{
			"buffer":0,
			"byteLength":8904,
			"byteOffset":43856,
			"target":34962
		},
		{
			"buffer":0,
			"byteLength":4452,
			"byteOffset":52760,
			"target":34962
		},
		{
			"buffer":0,
			"byteLength":17808,
			"byteOffset":57212,
			"target":34962
		},
		{
			"buffer":0,
			"byteLength":5346,
			"byteOffset":75020,
			"target":34963
		},
		{
			"buffer":0,
			"byteLength":2736,
			"byteOffset":80368,
			"target":34962
		},
		{
			"buffer":0,
			"byteLength":2736,
			"byteOffset":83104,
			"target":34962
		},
		{
			"buffer":0,
			"byteLength":1824,
			"byteOffset":85840,
			"target":34962
		},
		{
			"buffer":0,
			"byteLength":912,
			"byteOffset":87664,
			"target":34962
		},
		{
			"buffer":0,
			"byteLength":3648,
			"byteOffset":88576,
			"target":34962
		},
		{
			"buffer":0,
			"byteLength":840,
			"byteOffset":92224,
			"target":34963
		},
		{
			"buffer":0,
			"byteLength":3648,
			"byteOffset":93064,
			"target":34962
		},
		{
			"buffer":0,
			"byteLength":3648,
			"byteOffset":96712,
			"target":34962
		},
		{
			"buffer":0,
			"byteLength":2432,
			"byteOffset":100360,
			"target":34962
		},
		{
			"buffer":0,
			"byteLength":1216,
			"byteOffset":102792,
			"target":34962
		},
		{
			"buffer":0,
			"byteLength":4864,
			"byteOffset":104008,
			"target":34962
		},
		{
			"buffer":0,
			"byteLength":1224,
			"byteOffset":108872,
			"target":34963
		},
		{
			"buffer":0,
			"byteLength":1536,
			"byteOffset":110096,
			"target":34962
		},
		{
			"buffer":0,
			"byteLength":1536,
			"byteOffset":111632,
			"target":34962
		},
		{
			"buffer":0,
			"byteLength":1024,
			"byteOffset":113168,
			"target":34962
		},
		{
			"buffer":0,
			"byteLength":512,
			"byteOffset":114192,
			"target":34962
		},
		{
			"buffer":0,
			"byteLength":1024,
			"byteOffset":114704,
			"target":34962
		},
		{
			"buffer":0,
			"byteLength":512,
			"byteOffset":115728,
			"target":34962
		},
		{
			"buffer":0,
			"byteLength":2048,
			"byteOffset":116240,
			"target":34962
		},
		{
			"buffer":0,
			"byteLength":744,
			"byteOffset":118288,
			"target":34963
		},
		{
			"buffer":0,
			"byteLength":768,
			"byteOffset":119032,
			"target":34962
		},
		{
			"buffer":0,
			"byteLength":768,
			"byteOffset":119800,
			"target":34962
		},
		{
			"buffer":0,
			"byteLength":512,
			"byteOffset":120568,
			"target":34962
		},
		{
			"buffer":0,
			"byteLength":256,
			"byteOffset":121080,
			"target":34962
		},
		{
			"buffer":0,
			"byteLength":1024,
			"byteOffset":121336,
			"target":34962
		},
		{
			"buffer":0,
			"byteLength":360,
			"byteOffset":122360,
			"target":34963
		},
		{
			"buffer":0,
			"byteLength":8472,
			"byteOffset":122720,
			"target":34962
		},
		{
			"buffer":0,
			"byteLength":8472,
			"byteOffset":131192,
			"target":34962
		},
		{
			"buffer":0,
			"byteLength":5648,
			"byteOffset":139664,
			"target":34962
		},
		{
			"buffer":0,
			"byteLength":2824,
			"byteOffset":145312,
			"target":34962
		},
		{
			"buffer":0,
			"byteLength":11296,
			"byteOffset":148136,
			"target":34962
		},
		{
			"buffer":0,
			"byteLength":3720,
			"byteOffset":159432,
			"target":34963
		},
		{
			"buffer":0,
			"byteLength":3456,
			"byteOffset":163152,
			"target":34962
		},
		{
			"buffer":0,
			"byteLength":3456,
			"byteOffset":166608,
			"target":34962
		},
		{
			"buffer":0,
			"byteLength":2304,
			"byteOffset":170064,
			"target":34962
		},
		{
			"buffer":0,
			"byteLength":1152,
			"byteOffset":172368,
			"target":34962
		},
		{
			"buffer":0,
			"byteLength":4608,
			"byteOffset":173520,
			"target":34962
		},
		{
			"buffer":0,
			"byteLength":1704,
			"byteOffset":178128,
			"target":34963
		},
		{
			"buffer":0,
			"byteLength":7152,
			"byteOffset":179832,
			"target":34962
		},
		{
			"buffer":0,
			"byteLength":7152,
			"byteOffset":186984,
			"target":34962
		},
		{
			"buffer":0,
			"byteLength":4768,
			"byteOffset":194136,
			"target":34962
		},
		{
			"buffer":0,
			"byteLength":2384,
			"byteOffset":198904,
			"target":34962
		},
		{
			"buffer":0,
			"byteLength":9536,
			"byteOffset":201288,
			"target":34962
		},
		{
			"buffer":0,
			"byteLength":3204,
			"byteOffset":210824,
			"target":34963
		}
	],
	"samplers":[
		{
			"magFilter":9729,
			"minFilter":9987
		}
	],
	"buffers":[
		{
			"byteLength":214028,
			"uri":"Rifle.bin"
		}
	]
}
