{
	"asset":{
		"generator":"Khronos glTF Blender I/O v3.5.30",
		"version":"2.0"
	},
	"scene":0,
	"scenes":[
		{
			"name":"Scene",
			"nodes":[
				0
			]
		}
	],
	"nodes":[
		{
			"mesh":0,
			"name":"LineBuilding",
			"translation":[
				3.647744655609131,
				0,
				-60.265357971191406
			]
		}
	],
	"meshes":[
		{
			"name":"\u7acb\u65b9\u4f53.003",
			"primitives":[
				{
					"attributes":{
						"POSITION":0,
						"TEXCOORD_0":1,
						"NORMAL":2
					},
					"indices":3
				}
			]
		}
	],
	"accessors":[
		{
			"bufferView":0,
			"componentType":5126,
			"count":684775,
			"max":[
				1.8788964748382568,
				10.699999809265137,
				2.0919189453125
			],
			"min":[
				-6.125461578369141,
				0,
				-164.98260498046875
			],
			"type":"VEC3"
		},
		{
			"bufferView":1,
			"componentType":5126,
			"count":684775,
			"type":"VEC2"
		},
		{
			"bufferView":2,
			"componentType":5126,
			"count":684775,
			"type":"VEC3"
		},
		{
			"bufferView":3,
			"componentType":5125,
			"count":1063680,
			"type":"SCALAR"
		}
	],
	"bufferViews":[
		{
			"buffer":0,
			"byteLength":8217300,
			"byteOffset":0,
			"target":34962
		},
		{
			"buffer":0,
			"byteLength":5478200,
			"byteOffset":8217300,
			"target":34962
		},
		{
			"buffer":0,
			"byteLength":8217300,
			"byteOffset":13695500,
			"target":34962
		},
		{
			"buffer":0,
			"byteLength":4254720,
			"byteOffset":21912800,
			"target":34963
		}
	],
	"buffers":[
		{
			"byteLength":26167520,
			"uri":"LineBuilding.bin"
		}
	]
}
