{
	"asset":{
		"generator":"Khronos glTF Blender I/O v4.3.47",
		"version":"2.0"
	},
	"scene":0,
	"scenes":[
		{
			"name":"Scene",
			"nodes":[
				12
			]
		}
	],
	"nodes":[
		{
			"name":"PropellerFront.L",
			"translation":[
				1.5,
				0,
				1.5
			]
		},
		{
			"name":"PropellerBack.L",
			"translation":[
				1.5,
				0,
				-1.5
			]
		},
		{
			"name":"PropellerFront.R",
			"translation":[
				-1.5,
				0,
				1.5
			]
		},
		{
			"name":"PropellerBack.R",
			"translation":[
				-1.5,
				0,
				-1.5
			]
		},
		{
			"name":"LockOnAnchor",
			"translation":[
				0,
				0.09999996423721313,
				0
			]
		},
		{
			"name":"WeaponAnchor",
			"rotation":[
				-0.7071067690849304,
				1.994959717421807e-07,
				1.9949591489876184e-07,
				0.7071067690849304
			],
			"translation":[
				1.179273567686323e-09,
				-0.3953380584716797,
				0.0020900964736938477
			]
		},
		{
			"children":[
				5
			],
			"name":"WeaponJoint",
			"rotation":[
				0.7071067094802856,
				-1.9949595753132598e-07,
				-1.9949595753132598e-07,
				0.7071068286895752
			],
			"scale":[
				1,
				0.9999999403953552,
				0.9999999403953552
			],
			"translation":[
				0,
				-1.597909927368164,
				-0.004662000108510256
			]
		},
		{
			"children":[
				0,
				1,
				2,
				3,
				4,
				6
			],
			"name":"Root"
		},
		{
			"mesh":0,
			"name":"Body",
			"skin":0
		},
		{
			"mesh":1,
			"name":"Propeller",
			"skin":0
		},
		{
			"mesh":2,
			"name":"WeaponJoint",
			"skin":0
		},
		{
			"mesh":3,
			"name":"WeaponLod",
			"skin":0
		},
		{
			"children":[
				8,
				9,
				10,
				11,
				7
			],
			"name":"Drone"
		}
	],
	"materials":[
		{
			"doubleSided":true,
			"name":"DroneMaterial",
			"pbrMetallicRoughness":{
				"baseColorFactor":[
					0.800000011920929,
					0.800000011920929,
					0.800000011920929,
					1
				],
				"metallicFactor":0,
				"roughnessFactor":0.5
			}
		}
	],
	"meshes":[
		{
			"name":"Cylinder.002",
			"primitives":[
				{
					"attributes":{
						"POSITION":0,
						"NORMAL":1,
						"TEXCOORD_0":2,
						"JOINTS_0":3,
						"WEIGHTS_0":4
					},
					"indices":5,
					"material":0
				}
			]
		},
		{
			"name":"Cylinder.003",
			"primitives":[
				{
					"attributes":{
						"POSITION":7,
						"NORMAL":8,
						"TEXCOORD_0":9,
						"JOINTS_0":10,
						"WEIGHTS_0":11
					},
					"indices":12,
					"material":0
				}
			]
		},
		{
			"name":"WeaponJoint.002",
			"primitives":[
				{
					"attributes":{
						"POSITION":13,
						"NORMAL":14,
						"TEXCOORD_0":15,
						"JOINTS_0":16,
						"WEIGHTS_0":17
					},
					"indices":18,
					"material":0
				}
			]
		},
		{
			"name":"WeaponJoint.001",
			"primitives":[
				{
					"attributes":{
						"POSITION":19,
						"NORMAL":20,
						"TEXCOORD_0":21,
						"JOINTS_0":22,
						"WEIGHTS_0":23
					},
					"indices":24,
					"material":0
				}
			]
		}
	],
	"skins":[
		{
			"inverseBindMatrices":6,
			"joints":[
				7,
				0,
				1,
				2,
				3,
				4,
				6,
				5
			],
			"name":"Drone"
		}
	],
	"accessors":[
		{
			"bufferView":0,
			"componentType":5126,
			"count":2988,
			"max":[
				2.6548495292663574,
				0.8499999642372131,
				2.6548495292663574
			],
			"min":[
				-2.6548495292663574,
				-0.44999998807907104,
				-2.6548495292663574
			],
			"type":"VEC3"
		},
		{
			"bufferView":1,
			"componentType":5126,
			"count":2988,
			"type":"VEC3"
		},
		{
			"bufferView":2,
			"componentType":5126,
			"count":2988,
			"type":"VEC2"
		},
		{
			"bufferView":3,
			"componentType":5121,
			"count":2988,
			"type":"VEC4"
		},
		{
			"bufferView":4,
			"componentType":5126,
			"count":2988,
			"type":"VEC4"
		},
		{
			"bufferView":5,
			"componentType":5123,
			"count":6276,
			"type":"SCALAR"
		},
		{
			"bufferView":6,
			"componentType":5126,
			"count":8,
			"type":"MAT4"
		},
		{
			"bufferView":7,
			"componentType":5126,
			"count":968,
			"max":[
				1.6662981510162354,
				0.2121666520833969,
				2.1162984371185303
			],
			"min":[
				-1.6662981510162354,
				-0.03500000014901161,
				-2.1162984371185303
			],
			"type":"VEC3"
		},
		{
			"bufferView":8,
			"componentType":5126,
			"count":968,
			"type":"VEC3"
		},
		{
			"bufferView":9,
			"componentType":5126,
			"count":968,
			"type":"VEC2"
		},
		{
			"bufferView":10,
			"componentType":5121,
			"count":968,
			"type":"VEC4"
		},
		{
			"bufferView":11,
			"componentType":5126,
			"count":968,
			"type":"VEC4"
		},
		{
			"bufferView":12,
			"componentType":5123,
			"count":1680,
			"type":"SCALAR"
		},
		{
			"bufferView":13,
			"componentType":5126,
			"count":419,
			"max":[
				0.3011937439441681,
				-1.2327321767807007,
				0.4351494014263153
			],
			"min":[
				-0.300810307264328,
				-1.9315263032913208,
				-0.5271106362342834
			],
			"type":"VEC3"
		},
		{
			"bufferView":14,
			"componentType":5126,
			"count":419,
			"type":"VEC3"
		},
		{
			"bufferView":15,
			"componentType":5126,
			"count":419,
			"type":"VEC2"
		},
		{
			"bufferView":16,
			"componentType":5121,
			"count":419,
			"type":"VEC4"
		},
		{
			"bufferView":17,
			"componentType":5126,
			"count":419,
			"type":"VEC4"
		},
		{
			"bufferView":18,
			"componentType":5123,
			"count":1308,
			"type":"SCALAR"
		},
		{
			"bufferView":19,
			"componentType":5126,
			"count":272,
			"max":[
				0.6594081521034241,
				-0.42536020278930664,
				0.2749497592449188
			],
			"min":[
				-0.6605940461158752,
				-1.8357455730438232,
				-0.2793786823749542
			],
			"type":"VEC3"
		},
		{
			"bufferView":20,
			"componentType":5126,
			"count":272,
			"type":"VEC3"
		},
		{
			"bufferView":21,
			"componentType":5126,
			"count":272,
			"type":"VEC2"
		},
		{
			"bufferView":22,
			"componentType":5121,
			"count":272,
			"type":"VEC4"
		},
		{
			"bufferView":23,
			"componentType":5126,
			"count":272,
			"type":"VEC4"
		},
		{
			"bufferView":24,
			"componentType":5123,
			"count":552,
			"type":"SCALAR"
		}
	],
	"bufferViews":[
		{
			"buffer":0,
			"byteLength":35856,
			"byteOffset":0,
			"target":34962
		},
		{
			"buffer":0,
			"byteLength":35856,
			"byteOffset":35856,
			"target":34962
		},
		{
			"buffer":0,
			"byteLength":23904,
			"byteOffset":71712,
			"target":34962
		},
		{
			"buffer":0,
			"byteLength":11952,
			"byteOffset":95616,
			"target":34962
		},
		{
			"buffer":0,
			"byteLength":47808,
			"byteOffset":107568,
			"target":34962
		},
		{
			"buffer":0,
			"byteLength":12552,
			"byteOffset":155376,
			"target":34963
		},
		{
			"buffer":0,
			"byteLength":512,
			"byteOffset":167928
		},
		{
			"buffer":0,
			"byteLength":11616,
			"byteOffset":168440,
			"target":34962
		},
		{
			"buffer":0,
			"byteLength":11616,
			"byteOffset":180056,
			"target":34962
		},
		{
			"buffer":0,
			"byteLength":7744,
			"byteOffset":191672,
			"target":34962
		},
		{
			"buffer":0,
			"byteLength":3872,
			"byteOffset":199416,
			"target":34962
		},
		{
			"buffer":0,
			"byteLength":15488,
			"byteOffset":203288,
			"target":34962
		},
		{
			"buffer":0,
			"byteLength":3360,
			"byteOffset":218776,
			"target":34963
		},
		{
			"buffer":0,
			"byteLength":5028,
			"byteOffset":222136,
			"target":34962
		},
		{
			"buffer":0,
			"byteLength":5028,
			"byteOffset":227164,
			"target":34962
		},
		{
			"buffer":0,
			"byteLength":3352,
			"byteOffset":232192,
			"target":34962
		},
		{
			"buffer":0,
			"byteLength":1676,
			"byteOffset":235544,
			"target":34962
		},
		{
			"buffer":0,
			"byteLength":6704,
			"byteOffset":237220,
			"target":34962
		},
		{
			"buffer":0,
			"byteLength":2616,
			"byteOffset":243924,
			"target":34963
		},
		{
			"buffer":0,
			"byteLength":3264,
			"byteOffset":246540,
			"target":34962
		},
		{
			"buffer":0,
			"byteLength":3264,
			"byteOffset":249804,
			"target":34962
		},
		{
			"buffer":0,
			"byteLength":2176,
			"byteOffset":253068,
			"target":34962
		},
		{
			"buffer":0,
			"byteLength":1088,
			"byteOffset":255244,
			"target":34962
		},
		{
			"buffer":0,
			"byteLength":4352,
			"byteOffset":256332,
			"target":34962
		},
		{
			"buffer":0,
			"byteLength":1104,
			"byteOffset":260684,
			"target":34963
		}
	],
	"buffers":[
		{
			"byteLength":261788,
			"uri":"Drone.bin"
		}
	]
}
