{
	"asset":{
		"generator":"Khronos glTF Blender I/O v3.5.30",
		"version":"2.0"
	},
	"scene":0,
	"scenes":[
		{
			"name":"Scene",
			"nodes":[
				0
			]
		}
	],
	"nodes":[
		{
			"mesh":0,
			"name":"Building",
			"rotation":[
				0,
				-0.7071068286895752,
				0,
				0.7071068286895752
			],
			"translation":[
				-60.50035095214844,
				0,
				2.7901687622070312
			]
		}
	],
	"meshes":[
		{
			"name":"\u7acb\u65b9\u4f53.006",
			"primitives":[
				{
					"attributes":{
						"POSITION":0,
						"TEXCOORD_0":1,
						"NORMAL":2
					},
					"indices":3
				}
			]
		}
	],
	"accessors":[
		{
			"bufferView":0,
			"componentType":5126,
			"count":393079,
			"max":[
				55.51948547363281,
				10.700002670288086,
				-2.4030990600585938
			],
			"min":[
				-61.096065521240234,
				-1.1920928955078125e-07,
				-118.45809936523438
			],
			"type":"VEC3"
		},
		{
			"bufferView":1,
			"componentType":5126,
			"count":393079,
			"type":"VEC2"
		},
		{
			"bufferView":2,
			"componentType":5126,
			"count":393079,
			"type":"VEC3"
		},
		{
			"bufferView":3,
			"componentType":5125,
			"count":478656,
			"type":"SCALAR"
		}
	],
	"bufferViews":[
		{
			"buffer":0,
			"byteLength":4716948,
			"byteOffset":0,
			"target":34962
		},
		{
			"buffer":0,
			"byteLength":3144632,
			"byteOffset":4716948,
			"target":34962
		},
		{
			"buffer":0,
			"byteLength":4716948,
			"byteOffset":7861580,
			"target":34962
		},
		{
			"buffer":0,
			"byteLength":1914624,
			"byteOffset":12578528,
			"target":34963
		}
	],
	"buffers":[
		{
			"byteLength":14493152,
			"uri":"CircleBuilding.bin"
		}
	]
}
