# Blender 4.3.2
# www.blender.org
mtllib MachinGunBulletCase.mtl
o BulletCase_MachineGun
v -0.000000 0.152990 -0.062500
v 0.044194 0.152990 -0.044194
v 0.062500 0.152990 0.000000
v 0.044194 0.152990 0.044194
v -0.000000 0.152990 0.062500
v -0.044194 0.152990 0.044194
v -0.062500 0.152990 0.000000
v -0.044194 0.152990 -0.044194
v -0.000000 0.166289 -0.043750
v 0.030936 0.166289 -0.030936
v 0.043750 0.166289 0.000000
v 0.030936 0.166289 0.030936
v -0.000000 0.166289 0.043750
v -0.030936 0.166289 0.030936
v -0.043750 0.166289 0.000000
v -0.030936 0.166289 -0.030936
v 0.044194 -0.168824 -0.044194
v 0.044194 -0.180646 -0.044194
v 0.062500 -0.168824 0.000000
v 0.062500 -0.180646 0.000000
v 0.044194 -0.168824 0.044194
v 0.044194 -0.180646 0.044194
v -0.000000 -0.168824 0.062500
v -0.000000 -0.180646 0.062500
v -0.044194 -0.168824 0.044194
v -0.044194 -0.180646 0.044194
v -0.062500 -0.168824 0.000000
v -0.062500 -0.180646 0.000000
v -0.044194 -0.168824 -0.044194
v -0.044194 -0.180646 -0.044194
v -0.000000 -0.180646 -0.062500
v -0.000000 -0.168824 -0.062500
v 0.033588 -0.168824 -0.033588
v 0.033588 -0.180646 -0.033588
v 0.047500 -0.168824 0.000000
v 0.047500 -0.180646 0.000000
v 0.033588 -0.168824 0.033588
v 0.033588 -0.180646 0.033588
v -0.000000 -0.168824 0.047500
v -0.000000 -0.180646 0.047500
v -0.033588 -0.168824 0.033588
v -0.033588 -0.180646 0.033588
v -0.047500 -0.168824 0.000000
v -0.047500 -0.180646 0.000000
v -0.033588 -0.168824 -0.033588
v -0.033588 -0.180646 -0.033588
v -0.000000 -0.180646 -0.047500
v -0.000000 -0.168824 -0.047500
v 0.030936 0.228350 -0.030936
v -0.000000 0.228350 -0.043750
v 0.043750 0.228350 0.000000
v 0.030936 0.228350 0.030936
v -0.000000 0.228350 0.043750
v -0.030936 0.228350 0.030936
v -0.043750 0.228350 0.000000
v -0.030936 0.228350 -0.030936
v -0.000000 -0.201649 -0.062500
v 0.044194 -0.201649 -0.044194
v 0.062500 -0.201649 0.000000
v 0.044194 -0.201649 0.044194
v -0.000000 -0.201649 0.062500
v -0.044194 -0.201649 0.044194
v -0.062500 -0.201649 0.000000
v -0.044194 -0.201649 -0.044194
vn 0.3827 -0.0000 -0.9239
vn 0.9239 -0.0000 -0.3827
vn 0.9239 -0.0000 0.3827
vn 0.3827 -0.0000 0.9239
vn -0.3827 -0.0000 0.9239
vn -0.9239 -0.0000 0.3827
vn -0.9239 -0.0000 -0.3827
vn -0.3827 -0.0000 -0.9239
vn -0.2330 0.7932 -0.5626
vn -0.5626 0.7932 -0.2330
vn -0.5626 0.7932 0.2330
vn -0.2330 0.7932 0.5626
vn 0.2330 0.7932 0.5626
vn 0.5626 0.7932 0.2330
vn 0.5626 0.7932 -0.2330
vn 0.2330 0.7932 -0.5626
vn -0.0000 -1.0000 -0.0000
vn -0.0000 1.0000 -0.0000
vt 0.894569 0.882792
vt 0.888783 0.952594
vt 0.852176 0.952594
vt 0.853972 0.882792
vt 0.814896 0.952594
vt 0.813648 0.882792
vt 0.778065 0.952594
vt 0.773088 0.882792
vt 0.741600 0.952594
vt 0.733382 0.882792
vt 0.706310 0.952594
vt 0.693122 0.882792
vt 0.670084 0.952594
vt 0.658652 0.882792
vt 0.972512 0.882792
vt 0.958635 0.952594
vt 0.924708 0.952594
vt 0.935465 0.882792
vt 0.950276 0.588901
vt 0.940224 0.860154
vt 0.896860 0.860154
vt 0.905308 0.588901
vt 0.991600 0.588901
vt 0.988079 0.860154
vt 0.681406 0.588901
vt 0.688503 0.860154
vt 0.645288 0.860154
vt 0.637102 0.588901
vt 0.726848 0.588901
vt 0.730839 0.860154
vt 0.771733 0.588901
vt 0.772059 0.860154
vt 0.816332 0.588901
vt 0.813501 0.860154
vt 0.861041 0.588901
vt 0.854705 0.860154
vt 0.907312 0.528202
vt 0.907312 0.549536
vt 0.861380 0.549536
vt 0.861380 0.528202
vt 0.725790 0.575017
vt 0.771182 0.575017
vt 0.815607 0.549536
vt 0.816152 0.528202
vt 0.951822 0.549536
vt 0.949521 0.563199
vt 0.906236 0.563199
vt 0.769438 0.549536
vt 0.769438 0.528202
vt 0.723198 0.549536
vt 0.770016 0.563199
vt 0.724563 0.563199
vt 0.723198 0.528202
vt 0.949401 0.575017
vt 0.986380 0.575017
vt 0.677093 0.549536
vt 0.677093 0.528202
vt 0.816168 0.575017
vt 0.633587 0.549536
vt 0.633587 0.528202
vt 0.993355 0.549536
vt 0.986973 0.563199
vt 0.993355 0.528202
vt 0.951822 0.528202
vt 0.815742 0.563199
vt 0.642036 0.575017
vt 0.681655 0.575017
vt 0.905957 0.575017
vt 0.861342 0.575017
vt 0.861078 0.563199
vt 0.679942 0.563199
vt 0.641030 0.563199
vt 0.605148 0.972363
vt 0.565000 0.988992
vt 0.524852 0.972363
vt 0.508223 0.932215
vt 0.524852 0.892067
vt 0.565000 0.875438
vt 0.605148 0.892067
vt 0.621777 0.932215
vt 0.565000 0.744540
vt 0.604216 0.760784
vt 0.620460 0.800000
vt 0.604216 0.839216
vt 0.565000 0.855460
vt 0.525784 0.839216
vt 0.509540 0.800000
vt 0.525784 0.760784
s 0
usemtl BulletCaseMaterial
f 9/1/1 50/2/1 49/3/1 10/4/1
f 10/4/2 49/3/2 51/5/2 11/6/2
f 11/6/3 51/5/3 52/7/3 12/8/3
f 12/8/4 52/7/4 53/9/4 13/10/4
f 13/10/5 53/9/5 54/11/5 14/12/5
f 14/12/6 54/11/6 55/13/6 15/14/6
f 15/15/7 55/16/7 56/17/7 16/18/7
f 16/18/8 56/17/8 50/2/8 9/1/8
f 29/19/8 8/20/8 1/21/8 32/22/8
f 27/23/7 7/24/7 8/20/7 29/19/7
f 25/25/6 6/26/6 7/27/6 27/28/6
f 23/29/5 5/30/5 6/26/5 25/25/5
f 21/31/4 4/32/4 5/30/4 23/29/4
f 19/33/3 3/34/3 4/32/3 21/31/3
f 17/35/2 2/36/2 3/34/2 19/33/2
f 32/22/1 1/21/1 2/36/1 17/35/1
f 8/20/9 16/18/9 9/1/9 1/21/9
f 7/24/10 15/15/10 16/18/10 8/20/10
f 6/26/11 14/12/11 15/14/11 7/27/11
f 5/30/12 13/10/12 14/12/12 6/26/12
f 4/32/13 12/8/13 13/10/13 5/30/13
f 3/34/14 11/6/14 12/8/14 4/32/14
f 2/36/15 10/4/15 11/6/15 3/34/15
f 1/21/16 9/1/16 10/4/16 2/36/16
f 57/37/1 31/38/1 18/39/1 58/40/1
f 21/31/17 23/29/17 39/41/17 37/42/17
f 58/40/2 18/39/2 20/43/2 59/44/2
f 31/38/18 30/45/18 46/46/18 47/47/18
f 59/44/3 20/43/3 22/48/3 60/49/3
f 24/50/18 22/48/18 38/51/18 40/52/18
f 60/49/4 22/48/4 24/50/4 61/53/4
f 27/23/17 29/19/17 45/54/17 43/55/17
f 61/53/5 24/50/5 26/56/5 62/57/5
f 19/33/17 21/31/17 37/42/17 35/58/17
f 62/57/6 26/56/6 28/59/6 63/60/6
f 30/45/18 28/61/18 44/62/18 46/46/18
f 63/63/7 28/61/7 30/45/7 64/64/7
f 22/48/18 20/43/18 36/65/18 38/51/18
f 64/64/8 30/45/8 31/38/8 57/37/8
f 25/25/17 27/28/17 43/66/17 41/67/17
f 47/47/1 48/68/1 33/69/1 34/70/1
f 34/70/2 33/69/2 35/58/2 36/65/2
f 36/65/3 35/58/3 37/42/3 38/51/3
f 38/51/4 37/42/4 39/41/4 40/52/4
f 40/52/5 39/41/5 41/67/5 42/71/5
f 42/71/6 41/67/6 43/66/6 44/72/6
f 44/62/7 43/55/7 45/54/7 46/46/7
f 46/46/8 45/54/8 48/68/8 47/47/8
f 18/39/18 31/38/18 47/47/18 34/70/18
f 29/19/17 32/22/17 48/68/17 45/54/17
f 26/56/18 24/50/18 40/52/18 42/71/18
f 32/22/17 17/35/17 33/69/17 48/68/17
f 23/29/17 25/25/17 41/67/17 39/41/17
f 20/43/18 18/39/18 34/70/18 36/65/18
f 28/59/18 26/56/18 42/71/18 44/72/18
f 17/35/17 19/33/17 35/58/17 33/69/17
f 49/73/18 50/74/18 56/75/18 55/76/18 54/77/18 53/78/18 52/79/18 51/80/18
f 57/81/17 58/82/17 59/83/17 60/84/17 61/85/17 62/86/17 63/87/17 64/88/17
