# Blender 4.3.2
# www.blender.org
mtllib ShotGunBulletCase.mtl
o BulletCase_ShotGun
v -0.000000 -0.194400 -0.087500
v 0.061872 -0.194400 -0.061872
v 0.087500 -0.194400 0.000000
v 0.061872 -0.194400 0.061872
v -0.000000 -0.194400 0.087500
v -0.061872 -0.194400 0.061872
v -0.087500 -0.194400 0.000000
v -0.061872 -0.194400 -0.061872
v 0.068943 -0.194400 -0.068943
v 0.097500 -0.194400 0.000000
v 0.068943 -0.194400 0.068943
v -0.000000 -0.194400 0.097500
v -0.068943 -0.194400 0.068943
v -0.097500 -0.194400 0.000000
v -0.068943 -0.194400 -0.068943
v -0.000000 -0.194400 -0.097500
v -0.000000 0.208500 -0.087500
v 0.061872 0.208500 -0.061872
v 0.087500 0.208500 0.000000
v 0.061872 0.208500 0.061872
v -0.000000 0.208500 0.087500
v -0.061872 0.208500 0.061872
v -0.087500 0.208500 0.000000
v -0.061872 0.208500 -0.061872
v -0.000000 0.216000 -0.079382
v 0.056132 0.216000 -0.056132
v 0.079382 0.216000 0.000000
v 0.056132 0.216000 0.056132
v -0.000000 0.216000 0.079382
v -0.056132 0.216000 0.056132
v -0.079382 0.216000 0.000000
v -0.056132 0.216000 -0.056132
v -0.000000 -0.216000 -0.097500
v 0.068943 -0.216000 -0.068943
v 0.097500 -0.216000 0.000000
v 0.068943 -0.216000 0.068943
v -0.000000 -0.216000 0.097500
v -0.068943 -0.216000 0.068943
v -0.097500 -0.216000 0.000000
v -0.068943 -0.216000 -0.068943
vn -0.3827 -0.0000 -0.9239
vn 0.9239 -0.0000 0.3827
vn 0.3827 -0.0000 0.9239
vn -0.3827 -0.0000 0.9239
vn -0.9239 -0.0000 0.3827
vn -0.9239 -0.0000 -0.3827
vn 0.3827 -0.0000 -0.9239
vn -0.0000 1.0000 -0.0000
vn 0.9239 -0.0000 -0.3827
vn 0.2706 0.7071 -0.6533
vn 0.6533 0.7071 -0.2706
vn 0.6533 0.7071 0.2706
vn 0.2706 0.7071 0.6533
vn -0.2706 0.7071 0.6533
vn -0.6533 0.7071 0.2706
vn -0.6533 0.7071 -0.2706
vn -0.2706 0.7071 -0.6533
vn -0.0000 -1.0000 -0.0000
vt 0.279880 0.636198
vt 0.281132 0.871942
vt 0.242179 0.872266
vt 0.240725 0.636258
vt 0.162377 0.636310
vt 0.163882 0.872992
vt 0.124645 0.873294
vt 0.123033 0.636211
vt 0.085421 0.873645
vt 0.083465 0.636068
vt 0.046205 0.874125
vt 0.043548 0.636043
vt 0.006787 0.874951
vt 0.003569 0.636542
vt 0.318763 0.636310
vt 0.320260 0.871979
vt 0.203139 0.872722
vt 0.201582 0.636333
vt 0.201573 0.631232
vt 0.240683 0.631132
vt 0.162391 0.631193
vt 0.123086 0.631072
vt 0.083535 0.630861
vt 0.279914 0.619395
vt 0.279903 0.630986
vt 0.240619 0.619781
vt 0.320820 0.619395
vt 0.320820 0.631236
vt 0.043523 0.618692
vt 0.043517 0.630651
vt 0.001122 0.631107
vt 0.000878 0.618557
vt 0.083649 0.619324
vt 0.123151 0.619665
vt 0.162421 0.619840
vt 0.201561 0.619907
vt 0.242290 0.878728
vt 0.203325 0.879347
vt 0.163927 0.879517
vt 0.124697 0.879809
vt 0.085483 0.880142
vt 0.046377 0.880510
vt 0.008866 0.881443
vt 0.318325 0.878465
vt 0.281118 0.878280
vt 0.415000 0.724386
vt 0.457860 0.742140
vt 0.475614 0.785000
vt 0.457860 0.827860
vt 0.415000 0.845614
vt 0.372140 0.827860
vt 0.354386 0.785000
vt 0.372140 0.742140
vt 0.459757 0.969757
vt 0.415000 0.988297
vt 0.370243 0.969757
vt 0.351703 0.925000
vt 0.370243 0.880243
vt 0.415000 0.861703
vt 0.459757 0.880243
vt 0.478297 0.925000
s 0
usemtl BulletCaseMaterial
f 8/1/1 24/2/1 17/3/1 1/4/1
f 3/5/2 19/6/2 20/7/2 4/8/2
f 4/8/3 20/7/3 21/9/3 5/10/3
f 5/10/4 21/9/4 22/11/4 6/12/4
f 6/12/5 22/11/5 23/13/5 7/14/5
f 7/15/6 23/16/6 24/2/6 8/1/6
f 1/4/7 17/3/7 18/17/7 2/18/7
f 1/4/8 2/18/8 9/19/8 16/20/8
f 2/18/8 3/5/8 10/21/8 9/19/8
f 3/5/8 4/8/8 11/22/8 10/21/8
f 4/8/8 5/10/8 12/23/8 11/22/8
f 40/24/1 15/25/1 16/20/1 33/26/1
f 39/27/6 14/28/6 15/25/6 40/24/6
f 38/29/5 13/30/5 14/31/5 39/32/5
f 37/33/4 12/23/4 13/30/4 38/29/4
f 36/34/3 11/22/3 12/23/3 37/33/3
f 35/35/2 10/21/2 11/22/2 36/34/2
f 34/36/9 9/19/9 10/21/9 35/35/9
f 33/26/7 16/20/7 9/19/7 34/36/7
f 8/1/8 1/4/8 16/20/8 15/25/8
f 7/15/8 8/1/8 15/25/8 14/28/8
f 6/12/8 7/14/8 14/31/8 13/30/8
f 5/10/8 6/12/8 13/30/8 12/23/8
f 18/17/10 17/3/10 25/37/10 26/38/10
f 19/6/11 18/17/11 26/38/11 27/39/11
f 20/7/12 19/6/12 27/39/12 28/40/12
f 21/9/13 20/7/13 28/40/13 29/41/13
f 22/11/14 21/9/14 29/41/14 30/42/14
f 23/13/15 22/11/15 30/42/15 31/43/15
f 24/2/16 23/16/16 31/44/16 32/45/16
f 17/3/17 24/2/17 32/45/17 25/37/17
f 33/46/18 34/47/18 35/48/18 36/49/18 37/50/18 38/51/18 39/52/18 40/53/18
f 2/18/9 18/17/9 19/6/9 3/5/9
f 26/54/8 25/55/8 32/56/8 31/57/8 30/58/8 29/59/8 28/60/8 27/61/8
