{
	"asset":{
		"generator":"Khronos glTF Blender I/O v4.3.47",
		"version":"2.0"
	},
	"scene":0,
	"scenes":[
		{
			"name":"Scene",
			"nodes":[
				4
			]
		}
	],
	"nodes":[
		{
			"name":"Bone"
		},
		{
			"mesh":0,
			"name":"Base",
			"skin":0
		},
		{
			"mesh":1,
			"name":"Pillar",
			"skin":0
		},
		{
			"mesh":2,
			"name":"Shatter",
			"skin":0
		},
		{
			"children":[
				1,
				2,
				3,
				0
			],
			"name":"Garage1"
		}
	],
	"materials":[
		{
			"doubleSided":true,
			"name":"GarageMaterial",
			"pbrMetallicRoughness":{
				"baseColorTexture":{
					"index":0
				},
				"metallicFactor":0,
				"roughnessFactor":0.5
			}
		}
	],
	"meshes":[
		{
			"name":"Cube.001",
			"primitives":[
				{
					"attributes":{
						"POSITION":0,
						"NORMAL":1,
						"TEXCOORD_0":2,
						"JOINTS_0":3,
						"WEIGHTS_0":4
					},
					"indices":5,
					"material":0
				}
			]
		},
		{
			"name":"Cube.002",
			"primitives":[
				{
					"attributes":{
						"POSITION":7,
						"NORMAL":8,
						"TEXCOORD_0":9,
						"JOINTS_0":10,
						"WEIGHTS_0":11
					},
					"indices":12,
					"material":0
				}
			]
		},
		{
			"name":"Cube.003",
			"primitives":[
				{
					"attributes":{
						"POSITION":13,
						"NORMAL":14,
						"TEXCOORD_0":15,
						"JOINTS_0":16,
						"WEIGHTS_0":17
					},
					"indices":18,
					"material":0
				}
			]
		}
	],
	"textures":[
		{
			"sampler":0,
			"source":0
		}
	],
	"images":[
		{
			"mimeType":"image/png",
			"name":"GarageTex",
			"uri":"GarageTex.png"
		}
	],
	"skins":[
		{
			"inverseBindMatrices":6,
			"joints":[
				0
			],
			"name":"Garage1"
		}
	],
	"accessors":[
		{
			"bufferView":0,
			"componentType":5126,
			"count":282,
			"max":[
				16.313247680664062,
				15.870712280273438,
				20.641422271728516
			],
			"min":[
				-16.313247680664062,
				0,
				-20.641422271728516
			],
			"type":"VEC3"
		},
		{
			"bufferView":1,
			"componentType":5126,
			"count":282,
			"type":"VEC3"
		},
		{
			"bufferView":2,
			"componentType":5126,
			"count":282,
			"type":"VEC2"
		},
		{
			"bufferView":3,
			"componentType":5121,
			"count":282,
			"type":"VEC4"
		},
		{
			"bufferView":4,
			"componentType":5126,
			"count":282,
			"type":"VEC4"
		},
		{
			"bufferView":5,
			"componentType":5123,
			"count":612,
			"type":"SCALAR"
		},
		{
			"bufferView":6,
			"componentType":5126,
			"count":1,
			"type":"MAT4"
		},
		{
			"bufferView":7,
			"componentType":5126,
			"count":312,
			"max":[
				16.296777725219727,
				9.75,
				20.3267765045166
			],
			"min":[
				-16.296777725219727,
				0,
				-20.3267765045166
			],
			"type":"VEC3"
		},
		{
			"bufferView":8,
			"componentType":5126,
			"count":312,
			"type":"VEC3"
		},
		{
			"bufferView":9,
			"componentType":5126,
			"count":312,
			"type":"VEC2"
		},
		{
			"bufferView":10,
			"componentType":5121,
			"count":312,
			"type":"VEC4"
		},
		{
			"bufferView":11,
			"componentType":5126,
			"count":312,
			"type":"VEC4"
		},
		{
			"bufferView":12,
			"componentType":5123,
			"count":648,
			"type":"SCALAR"
		},
		{
			"bufferView":13,
			"componentType":5126,
			"count":1374,
			"max":[
				13.199999809265137,
				9,
				20.25
			],
			"min":[
				-13.199999809265137,
				0,
				19.75
			],
			"type":"VEC3"
		},
		{
			"bufferView":14,
			"componentType":5126,
			"count":1374,
			"type":"VEC3"
		},
		{
			"bufferView":15,
			"componentType":5126,
			"count":1374,
			"type":"VEC2"
		},
		{
			"bufferView":16,
			"componentType":5121,
			"count":1374,
			"type":"VEC4"
		},
		{
			"bufferView":17,
			"componentType":5126,
			"count":1374,
			"type":"VEC4"
		},
		{
			"bufferView":18,
			"componentType":5123,
			"count":4440,
			"type":"SCALAR"
		}
	],
	"bufferViews":[
		{
			"buffer":0,
			"byteLength":3384,
			"byteOffset":0,
			"target":34962
		},
		{
			"buffer":0,
			"byteLength":3384,
			"byteOffset":3384,
			"target":34962
		},
		{
			"buffer":0,
			"byteLength":2256,
			"byteOffset":6768,
			"target":34962
		},
		{
			"buffer":0,
			"byteLength":1128,
			"byteOffset":9024,
			"target":34962
		},
		{
			"buffer":0,
			"byteLength":4512,
			"byteOffset":10152,
			"target":34962
		},
		{
			"buffer":0,
			"byteLength":1224,
			"byteOffset":14664,
			"target":34963
		},
		{
			"buffer":0,
			"byteLength":64,
			"byteOffset":15888
		},
		{
			"buffer":0,
			"byteLength":3744,
			"byteOffset":15952,
			"target":34962
		},
		{
			"buffer":0,
			"byteLength":3744,
			"byteOffset":19696,
			"target":34962
		},
		{
			"buffer":0,
			"byteLength":2496,
			"byteOffset":23440,
			"target":34962
		},
		{
			"buffer":0,
			"byteLength":1248,
			"byteOffset":25936,
			"target":34962
		},
		{
			"buffer":0,
			"byteLength":4992,
			"byteOffset":27184,
			"target":34962
		},
		{
			"buffer":0,
			"byteLength":1296,
			"byteOffset":32176,
			"target":34963
		},
		{
			"buffer":0,
			"byteLength":16488,
			"byteOffset":33472,
			"target":34962
		},
		{
			"buffer":0,
			"byteLength":16488,
			"byteOffset":49960,
			"target":34962
		},
		{
			"buffer":0,
			"byteLength":10992,
			"byteOffset":66448,
			"target":34962
		},
		{
			"buffer":0,
			"byteLength":5496,
			"byteOffset":77440,
			"target":34962
		},
		{
			"buffer":0,
			"byteLength":21984,
			"byteOffset":82936,
			"target":34962
		},
		{
			"buffer":0,
			"byteLength":8880,
			"byteOffset":104920,
			"target":34963
		}
	],
	"samplers":[
		{
			"magFilter":9729,
			"minFilter":9987
		}
	],
	"buffers":[
		{
			"byteLength":113800,
			"uri":"Garage1.bin"
		}
	]
}
