{
	"asset":{
		"generator":"Khronos glTF Blender I/O v4.3.47",
		"version":"2.0"
	},
	"scene":0,
	"scenes":[
		{
			"name":"Scene",
			"nodes":[
				6
			]
		}
	],
	"nodes":[
		{
			"name":"Muzzle",
			"rotation":[
				0.7071067690849304,
				-1.1520231879558196e-07,
				-1.1520231879558196e-07,
				0.7071067690849304
			],
			"translation":[
				-0.714739978313446,
				0.4522149860858917,
				6.768499851226807
			]
		},
		{
			"children":[
				0
			],
			"name":"Grip"
		},
		{
			"mesh":0,
			"name":"Body",
			"skin":0
		},
		{
			"mesh":1,
			"name":"Grip",
			"skin":0
		},
		{
			"mesh":2,
			"name":"LauncherBarrel",
			"skin":0
		},
		{
			"mesh":3,
			"name":"LazerUnit",
			"skin":0
		},
		{
			"children":[
				2,
				3,
				4,
				5,
				1
			],
			"name":"Launcher"
		}
	],
	"materials":[
		{
			"doubleSided":true,
			"name":"GunMaterial",
			"pbrMetallicRoughness":{
				"baseColorTexture":{
					"index":0
				},
				"metallicFactor":0,
				"roughnessFactor":0.5
			}
		}
	],
	"meshes":[
		{
			"name":"Cube.001",
			"primitives":[
				{
					"attributes":{
						"POSITION":0,
						"NORMAL":1,
						"TEXCOORD_0":2,
						"JOINTS_0":3,
						"WEIGHTS_0":4
					},
					"indices":5,
					"material":0
				}
			]
		},
		{
			"name":"Cube",
			"primitives":[
				{
					"attributes":{
						"POSITION":7,
						"NORMAL":8,
						"TEXCOORD_0":9,
						"JOINTS_0":10,
						"WEIGHTS_0":11
					},
					"indices":12,
					"material":0
				}
			]
		},
		{
			"name":"Cylinder",
			"primitives":[
				{
					"attributes":{
						"POSITION":13,
						"NORMAL":14,
						"TEXCOORD_0":15,
						"JOINTS_0":16,
						"WEIGHTS_0":17
					},
					"indices":18,
					"material":0
				}
			]
		},
		{
			"name":"Cube.002",
			"primitives":[
				{
					"attributes":{
						"POSITION":19,
						"NORMAL":20,
						"TEXCOORD_0":21,
						"JOINTS_0":22,
						"WEIGHTS_0":23
					},
					"indices":24,
					"material":0
				}
			]
		}
	],
	"textures":[
		{
			"sampler":0,
			"source":0
		}
	],
	"images":[
		{
			"mimeType":"image/png",
			"name":"LauncherTex",
			"uri":"LauncherTex.png"
		}
	],
	"skins":[
		{
			"inverseBindMatrices":6,
			"joints":[
				1,
				0
			],
			"name":"Launcher"
		}
	],
	"accessors":[
		{
			"bufferView":0,
			"componentType":5126,
			"count":50,
			"max":[
				0.18720002472400665,
				0.6500000357627869,
				0.8399999737739563
			],
			"min":[
				-0.18720002472400665,
				0.30999991297721863,
				-0.19999992847442627
			],
			"type":"VEC3"
		},
		{
			"bufferView":1,
			"componentType":5126,
			"count":50,
			"type":"VEC3"
		},
		{
			"bufferView":2,
			"componentType":5126,
			"count":50,
			"type":"VEC2"
		},
		{
			"bufferView":3,
			"componentType":5121,
			"count":50,
			"type":"VEC4"
		},
		{
			"bufferView":4,
			"componentType":5126,
			"count":50,
			"type":"VEC4"
		},
		{
			"bufferView":5,
			"componentType":5123,
			"count":96,
			"type":"SCALAR"
		},
		{
			"bufferView":6,
			"componentType":5126,
			"count":2,
			"type":"MAT4"
		},
		{
			"bufferView":7,
			"componentType":5126,
			"count":272,
			"max":[
				0.08640000224113464,
				0.3400000035762787,
				0.7561990022659302
			],
			"min":[
				-0.08640000224113464,
				-0.47999998927116394,
				-0.13180099427700043
			],
			"type":"VEC3"
		},
		{
			"bufferView":8,
			"componentType":5126,
			"count":272,
			"type":"VEC3"
		},
		{
			"bufferView":9,
			"componentType":5126,
			"count":272,
			"type":"VEC2"
		},
		{
			"bufferView":10,
			"componentType":5121,
			"count":272,
			"type":"VEC4"
		},
		{
			"bufferView":11,
			"componentType":5126,
			"count":272,
			"type":"VEC4"
		},
		{
			"bufferView":12,
			"componentType":5123,
			"count":708,
			"type":"SCALAR"
		},
		{
			"bufferView":13,
			"componentType":5126,
			"count":1842,
			"max":[
				-0.3503381609916687,
				0.821933925151825,
				6.768503189086914
			],
			"min":[
				-1.0344769954681396,
				-0.10573729127645493,
				-0.4884999692440033
			],
			"type":"VEC3"
		},
		{
			"bufferView":14,
			"componentType":5126,
			"count":1842,
			"type":"VEC3"
		},
		{
			"bufferView":15,
			"componentType":5126,
			"count":1842,
			"type":"VEC2"
		},
		{
			"bufferView":16,
			"componentType":5121,
			"count":1842,
			"type":"VEC4"
		},
		{
			"bufferView":17,
			"componentType":5126,
			"count":1842,
			"type":"VEC4"
		},
		{
			"bufferView":18,
			"componentType":5123,
			"count":5322,
			"type":"SCALAR"
		},
		{
			"bufferView":19,
			"componentType":5126,
			"count":2591,
			"max":[
				0.3849073052406311,
				0.8255530595779419,
				4.562750339508057
			],
			"min":[
				-0.5757259726524353,
				-0.2862715423107147,
				0.7662508487701416
			],
			"type":"VEC3"
		},
		{
			"bufferView":20,
			"componentType":5126,
			"count":2591,
			"type":"VEC3"
		},
		{
			"bufferView":21,
			"componentType":5126,
			"count":2591,
			"type":"VEC2"
		},
		{
			"bufferView":22,
			"componentType":5121,
			"count":2591,
			"type":"VEC4"
		},
		{
			"bufferView":23,
			"componentType":5126,
			"count":2591,
			"type":"VEC4"
		},
		{
			"bufferView":24,
			"componentType":5123,
			"count":6534,
			"type":"SCALAR"
		}
	],
	"bufferViews":[
		{
			"buffer":0,
			"byteLength":600,
			"byteOffset":0,
			"target":34962
		},
		{
			"buffer":0,
			"byteLength":600,
			"byteOffset":600,
			"target":34962
		},
		{
			"buffer":0,
			"byteLength":400,
			"byteOffset":1200,
			"target":34962
		},
		{
			"buffer":0,
			"byteLength":200,
			"byteOffset":1600,
			"target":34962
		},
		{
			"buffer":0,
			"byteLength":800,
			"byteOffset":1800,
			"target":34962
		},
		{
			"buffer":0,
			"byteLength":192,
			"byteOffset":2600,
			"target":34963
		},
		{
			"buffer":0,
			"byteLength":128,
			"byteOffset":2792
		},
		{
			"buffer":0,
			"byteLength":3264,
			"byteOffset":2920,
			"target":34962
		},
		{
			"buffer":0,
			"byteLength":3264,
			"byteOffset":6184,
			"target":34962
		},
		{
			"buffer":0,
			"byteLength":2176,
			"byteOffset":9448,
			"target":34962
		},
		{
			"buffer":0,
			"byteLength":1088,
			"byteOffset":11624,
			"target":34962
		},
		{
			"buffer":0,
			"byteLength":4352,
			"byteOffset":12712,
			"target":34962
		},
		{
			"buffer":0,
			"byteLength":1416,
			"byteOffset":17064,
			"target":34963
		},
		{
			"buffer":0,
			"byteLength":22104,
			"byteOffset":18480,
			"target":34962
		},
		{
			"buffer":0,
			"byteLength":22104,
			"byteOffset":40584,
			"target":34962
		},
		{
			"buffer":0,
			"byteLength":14736,
			"byteOffset":62688,
			"target":34962
		},
		{
			"buffer":0,
			"byteLength":7368,
			"byteOffset":77424,
			"target":34962
		},
		{
			"buffer":0,
			"byteLength":29472,
			"byteOffset":84792,
			"target":34962
		},
		{
			"buffer":0,
			"byteLength":10644,
			"byteOffset":114264,
			"target":34963
		},
		{
			"buffer":0,
			"byteLength":31092,
			"byteOffset":124908,
			"target":34962
		},
		{
			"buffer":0,
			"byteLength":31092,
			"byteOffset":156000,
			"target":34962
		},
		{
			"buffer":0,
			"byteLength":20728,
			"byteOffset":187092,
			"target":34962
		},
		{
			"buffer":0,
			"byteLength":10364,
			"byteOffset":207820,
			"target":34962
		},
		{
			"buffer":0,
			"byteLength":41456,
			"byteOffset":218184,
			"target":34962
		},
		{
			"buffer":0,
			"byteLength":13068,
			"byteOffset":259640,
			"target":34963
		}
	],
	"samplers":[
		{
			"magFilter":9729,
			"minFilter":9987
		}
	],
	"buffers":[
		{
			"byteLength":272708,
			"uri":"Launcher_R.bin"
		}
	]
}
