{
	"asset":{
		"generator":"Khronos glTF Blender I/O v4.3.47",
		"version":"2.0"
	},
	"scene":0,
	"scenes":[
		{
			"name":"Scene",
			"nodes":[
				6
			]
		}
	],
	"nodes":[
		{
			"name":"Muzzle",
			"rotation":[
				0.7071067690849304,
				-1.1520231879558196e-07,
				-1.1520231879558196e-07,
				0.7071067690849304
			],
			"translation":[
				0.7147409915924072,
				0.4522149860858917,
				6.768499851226807
			]
		},
		{
			"children":[
				0
			],
			"name":"Grip"
		},
		{
			"mesh":0,
			"name":"Body",
			"skin":0
		},
		{
			"mesh":1,
			"name":"Grip",
			"skin":0
		},
		{
			"mesh":2,
			"name":"Launcher",
			"skin":0
		},
		{
			"mesh":3,
			"name":"LazerUnit",
			"skin":0
		},
		{
			"children":[
				2,
				3,
				4,
				5,
				1
			],
			"name":"Launcher1"
		}
	],
	"materials":[
		{
			"doubleSided":true,
			"name":"GunMaterial",
			"pbrMetallicRoughness":{
				"baseColorFactor":[
					0.800000011920929,
					0.800000011920929,
					0.800000011920929,
					1
				],
				"metallicFactor":0,
				"roughnessFactor":0.5
			}
		}
	],
	"meshes":[
		{
			"name":"Cube.001",
			"primitives":[
				{
					"attributes":{
						"POSITION":0,
						"NORMAL":1,
						"TEXCOORD_0":2,
						"JOINTS_0":3,
						"WEIGHTS_0":4
					},
					"indices":5,
					"material":0
				}
			]
		},
		{
			"name":"Cube",
			"primitives":[
				{
					"attributes":{
						"POSITION":7,
						"NORMAL":8,
						"TEXCOORD_0":9,
						"JOINTS_0":10,
						"WEIGHTS_0":11
					},
					"indices":12,
					"material":0
				}
			]
		},
		{
			"name":"Cylinder",
			"primitives":[
				{
					"attributes":{
						"POSITION":13,
						"NORMAL":14,
						"TEXCOORD_0":15,
						"JOINTS_0":16,
						"WEIGHTS_0":17
					},
					"indices":18,
					"material":0
				}
			]
		},
		{
			"name":"Cube.002",
			"primitives":[
				{
					"attributes":{
						"POSITION":19,
						"NORMAL":20,
						"TEXCOORD_0":21,
						"JOINTS_0":22,
						"WEIGHTS_0":23
					},
					"indices":24,
					"material":0
				}
			]
		}
	],
	"skins":[
		{
			"inverseBindMatrices":6,
			"joints":[
				1,
				0
			],
			"name":"Launcher1"
		}
	],
	"accessors":[
		{
			"bufferView":0,
			"componentType":5126,
			"count":50,
			"max":[
				0.18720002472400665,
				0.6500000357627869,
				0.8399999737739563
			],
			"min":[
				-0.18720002472400665,
				0.30999991297721863,
				-0.19999992847442627
			],
			"type":"VEC3"
		},
		{
			"bufferView":1,
			"componentType":5126,
			"count":50,
			"type":"VEC3"
		},
		{
			"bufferView":2,
			"componentType":5126,
			"count":50,
			"type":"VEC2"
		},
		{
			"bufferView":3,
			"componentType":5121,
			"count":50,
			"type":"VEC4"
		},
		{
			"bufferView":4,
			"componentType":5126,
			"count":50,
			"type":"VEC4"
		},
		{
			"bufferView":5,
			"componentType":5123,
			"count":96,
			"type":"SCALAR"
		},
		{
			"bufferView":6,
			"componentType":5126,
			"count":2,
			"type":"MAT4"
		},
		{
			"bufferView":7,
			"componentType":5126,
			"count":305,
			"max":[
				0.08640000224113464,
				0.3400000035762787,
				0.7561990022659302
			],
			"min":[
				-0.08640000224113464,
				-0.47999998927116394,
				-0.13180099427700043
			],
			"type":"VEC3"
		},
		{
			"bufferView":8,
			"componentType":5126,
			"count":305,
			"type":"VEC3"
		},
		{
			"bufferView":9,
			"componentType":5126,
			"count":305,
			"type":"VEC2"
		},
		{
			"bufferView":10,
			"componentType":5121,
			"count":305,
			"type":"VEC4"
		},
		{
			"bufferView":11,
			"componentType":5126,
			"count":305,
			"type":"VEC4"
		},
		{
			"bufferView":12,
			"componentType":5123,
			"count":708,
			"type":"SCALAR"
		},
		{
			"bufferView":13,
			"componentType":5126,
			"count":1855,
			"max":[
				1.0344769954681396,
				0.821933925151825,
				6.768503189086914
			],
			"min":[
				0.3503381609916687,
				-0.10573729127645493,
				-0.4884999692440033
			],
			"type":"VEC3"
		},
		{
			"bufferView":14,
			"componentType":5126,
			"count":1855,
			"type":"VEC3"
		},
		{
			"bufferView":15,
			"componentType":5126,
			"count":1855,
			"type":"VEC2"
		},
		{
			"bufferView":16,
			"componentType":5121,
			"count":1855,
			"type":"VEC4"
		},
		{
			"bufferView":17,
			"componentType":5126,
			"count":1855,
			"type":"VEC4"
		},
		{
			"bufferView":18,
			"componentType":5123,
			"count":5322,
			"type":"SCALAR"
		},
		{
			"bufferView":19,
			"componentType":5126,
			"count":2602,
			"max":[
				0.5793765187263489,
				0.8255530595779419,
				4.562750339508057
			],
			"min":[
				-0.3849073052406311,
				-0.2862715423107147,
				0.7662508487701416
			],
			"type":"VEC3"
		},
		{
			"bufferView":20,
			"componentType":5126,
			"count":2602,
			"type":"VEC3"
		},
		{
			"bufferView":21,
			"componentType":5126,
			"count":2602,
			"type":"VEC2"
		},
		{
			"bufferView":22,
			"componentType":5121,
			"count":2602,
			"type":"VEC4"
		},
		{
			"bufferView":23,
			"componentType":5126,
			"count":2602,
			"type":"VEC4"
		},
		{
			"bufferView":24,
			"componentType":5123,
			"count":6525,
			"type":"SCALAR"
		}
	],
	"bufferViews":[
		{
			"buffer":0,
			"byteLength":600,
			"byteOffset":0,
			"target":34962
		},
		{
			"buffer":0,
			"byteLength":600,
			"byteOffset":600,
			"target":34962
		},
		{
			"buffer":0,
			"byteLength":400,
			"byteOffset":1200,
			"target":34962
		},
		{
			"buffer":0,
			"byteLength":200,
			"byteOffset":1600,
			"target":34962
		},
		{
			"buffer":0,
			"byteLength":800,
			"byteOffset":1800,
			"target":34962
		},
		{
			"buffer":0,
			"byteLength":192,
			"byteOffset":2600,
			"target":34963
		},
		{
			"buffer":0,
			"byteLength":128,
			"byteOffset":2792
		},
		{
			"buffer":0,
			"byteLength":3660,
			"byteOffset":2920,
			"target":34962
		},
		{
			"buffer":0,
			"byteLength":3660,
			"byteOffset":6580,
			"target":34962
		},
		{
			"buffer":0,
			"byteLength":2440,
			"byteOffset":10240,
			"target":34962
		},
		{
			"buffer":0,
			"byteLength":1220,
			"byteOffset":12680,
			"target":34962
		},
		{
			"buffer":0,
			"byteLength":4880,
			"byteOffset":13900,
			"target":34962
		},
		{
			"buffer":0,
			"byteLength":1416,
			"byteOffset":18780,
			"target":34963
		},
		{
			"buffer":0,
			"byteLength":22260,
			"byteOffset":20196,
			"target":34962
		},
		{
			"buffer":0,
			"byteLength":22260,
			"byteOffset":42456,
			"target":34962
		},
		{
			"buffer":0,
			"byteLength":14840,
			"byteOffset":64716,
			"target":34962
		},
		{
			"buffer":0,
			"byteLength":7420,
			"byteOffset":79556,
			"target":34962
		},
		{
			"buffer":0,
			"byteLength":29680,
			"byteOffset":86976,
			"target":34962
		},
		{
			"buffer":0,
			"byteLength":10644,
			"byteOffset":116656,
			"target":34963
		},
		{
			"buffer":0,
			"byteLength":31224,
			"byteOffset":127300,
			"target":34962
		},
		{
			"buffer":0,
			"byteLength":31224,
			"byteOffset":158524,
			"target":34962
		},
		{
			"buffer":0,
			"byteLength":20816,
			"byteOffset":189748,
			"target":34962
		},
		{
			"buffer":0,
			"byteLength":10408,
			"byteOffset":210564,
			"target":34962
		},
		{
			"buffer":0,
			"byteLength":41632,
			"byteOffset":220972,
			"target":34962
		},
		{
			"buffer":0,
			"byteLength":13050,
			"byteOffset":262604,
			"target":34963
		}
	],
	"buffers":[
		{
			"byteLength":275656,
			"uri":"Launcher1.bin"
		}
	]
}
