{
	"asset":{
		"generator":"Khronos glTF Blender I/O v4.3.47",
		"version":"2.0"
	},
	"scene":0,
	"scenes":[
		{
			"name":"Scene",
			"nodes":[
				10
			]
		}
	],
	"nodes":[
		{
			"name":"WeaponAnchor",
			"rotation":[
				-0.7071067690849304,
				3.0908619663705394e-08,
				3.0908619663705394e-08,
				0.7071067690849304
			],
			"translation":[
				0,
				-0.4328915774822235,
				0
			]
		},
		{
			"children":[
				0
			],
			"name":"WeaponJoint",
			"rotation":[
				0.7071067690849304,
				-3.0908619663705394e-08,
				-3.0908619663705394e-08,
				0.7071067690849304
			],
			"translation":[
				0,
				1.1754801273345947,
				0
			]
		},
		{
			"children":[
				1
			],
			"name":"FortBase",
			"translation":[
				0,
				2.7086598873138428,
				-0.4000000059604645
			]
		},
		{
			"name":"LockOnAnchor",
			"translation":[
				0,
				1.600000023841858,
				-0.5
			]
		},
		{
			"children":[
				2,
				3
			],
			"name":"Root"
		},
		{
			"mesh":0,
			"name":"Body",
			"skin":0
		},
		{
			"mesh":1,
			"name":"FortBase",
			"skin":0
		},
		{
			"mesh":2,
			"name":"HoverTire_Back",
			"skin":0
		},
		{
			"mesh":3,
			"name":"HoverTire_Front",
			"skin":0
		},
		{
			"mesh":4,
			"name":"WeaponJoint",
			"skin":0
		},
		{
			"children":[
				5,
				6,
				7,
				8,
				9,
				4
			],
			"name":"HoverTank"
		}
	],
	"materials":[
		{
			"doubleSided":true,
			"name":"EnemyMaterial",
			"pbrMetallicRoughness":{
				"baseColorFactor":[
					0.800000011920929,
					0.800000011920929,
					0.800000011920929,
					1
				],
				"metallicFactor":0,
				"roughnessFactor":0.5
			}
		}
	],
	"meshes":[
		{
			"name":"Cube",
			"primitives":[
				{
					"attributes":{
						"POSITION":0,
						"NORMAL":1,
						"TEXCOORD_0":2,
						"JOINTS_0":3,
						"WEIGHTS_0":4
					},
					"indices":5,
					"material":0
				}
			]
		},
		{
			"name":"Cylinder",
			"primitives":[
				{
					"attributes":{
						"POSITION":7,
						"NORMAL":8,
						"TEXCOORD_0":9,
						"COLOR_0":10,
						"JOINTS_0":11,
						"WEIGHTS_0":12
					},
					"indices":13
				}
			]
		},
		{
			"name":"Cylinder.008",
			"primitives":[
				{
					"attributes":{
						"POSITION":14,
						"NORMAL":15,
						"TEXCOORD_0":16,
						"JOINTS_0":17,
						"WEIGHTS_0":18
					},
					"indices":19,
					"material":0
				}
			]
		},
		{
			"name":"Cylinder.007",
			"primitives":[
				{
					"attributes":{
						"POSITION":20,
						"NORMAL":21,
						"TEXCOORD_0":22,
						"JOINTS_0":23,
						"WEIGHTS_0":24
					},
					"indices":25,
					"material":0
				}
			]
		},
		{
			"name":"Cylinder.006",
			"primitives":[
				{
					"attributes":{
						"POSITION":26,
						"NORMAL":27,
						"TEXCOORD_0":28,
						"JOINTS_0":29,
						"WEIGHTS_0":30
					},
					"indices":31,
					"material":0
				}
			]
		}
	],
	"skins":[
		{
			"inverseBindMatrices":6,
			"joints":[
				4,
				2,
				1,
				0,
				3
			],
			"name":"HoverTank"
		}
	],
	"accessors":[
		{
			"bufferView":0,
			"componentType":5126,
			"count":1820,
			"max":[
				2.0460002422332764,
				2.5677363872528076,
				3.349126100540161
			],
			"min":[
				-2.0460002422332764,
				0.23314785957336426,
				-3.4800002574920654
			],
			"type":"VEC3"
		},
		{
			"bufferView":1,
			"componentType":5126,
			"count":1820,
			"type":"VEC3"
		},
		{
			"bufferView":2,
			"componentType":5126,
			"count":1820,
			"type":"VEC2"
		},
		{
			"bufferView":3,
			"componentType":5121,
			"count":1820,
			"type":"VEC4"
		},
		{
			"bufferView":4,
			"componentType":5126,
			"count":1820,
			"type":"VEC4"
		},
		{
			"bufferView":5,
			"componentType":5123,
			"count":3504,
			"type":"SCALAR"
		},
		{
			"bufferView":6,
			"componentType":5126,
			"count":5,
			"type":"MAT4"
		},
		{
			"bufferView":7,
			"componentType":5126,
			"count":640,
			"max":[
				1.119999885559082,
				4.154903411865234,
				0.7199999094009399
			],
			"min":[
				-1.119999885559082,
				2.353787899017334,
				-1.5199998617172241
			],
			"type":"VEC3"
		},
		{
			"bufferView":8,
			"componentType":5126,
			"count":640,
			"type":"VEC3"
		},
		{
			"bufferView":9,
			"componentType":5126,
			"count":640,
			"type":"VEC2"
		},
		{
			"bufferView":10,
			"componentType":5123,
			"count":640,
			"normalized":true,
			"type":"VEC4"
		},
		{
			"bufferView":11,
			"componentType":5121,
			"count":640,
			"type":"VEC4"
		},
		{
			"bufferView":12,
			"componentType":5126,
			"count":640,
			"type":"VEC4"
		},
		{
			"bufferView":13,
			"componentType":5123,
			"count":1518,
			"type":"SCALAR"
		},
		{
			"bufferView":14,
			"componentType":5126,
			"count":2844,
			"max":[
				2.5350093841552734,
				0.8759564757347107,
				0.35690951347351074
			],
			"min":[
				-2.5350093841552734,
				0.13231194019317627,
				-3.134908437728882
			],
			"type":"VEC3"
		},
		{
			"bufferView":15,
			"componentType":5126,
			"count":2844,
			"type":"VEC3"
		},
		{
			"bufferView":16,
			"componentType":5126,
			"count":2844,
			"type":"VEC2"
		},
		{
			"bufferView":17,
			"componentType":5121,
			"count":2844,
			"type":"VEC4"
		},
		{
			"bufferView":18,
			"componentType":5126,
			"count":2844,
			"type":"VEC4"
		},
		{
			"bufferView":19,
			"componentType":5123,
			"count":7044,
			"type":"SCALAR"
		},
		{
			"bufferView":20,
			"componentType":5126,
			"count":1422,
			"max":[
				2.5350093841552734,
				0.8759564757347107,
				3.456909656524658
			],
			"min":[
				-2.5350093841552734,
				0.13231194019317627,
				1.904990553855896
			],
			"type":"VEC3"
		},
		{
			"bufferView":21,
			"componentType":5126,
			"count":1422,
			"type":"VEC3"
		},
		{
			"bufferView":22,
			"componentType":5126,
			"count":1422,
			"type":"VEC2"
		},
		{
			"bufferView":23,
			"componentType":5121,
			"count":1422,
			"type":"VEC4"
		},
		{
			"bufferView":24,
			"componentType":5126,
			"count":1422,
			"type":"VEC4"
		},
		{
			"bufferView":25,
			"componentType":5123,
			"count":3522,
			"type":"SCALAR"
		},
		{
			"bufferView":26,
			"componentType":5126,
			"count":442,
			"max":[
				0.2973838448524475,
				4.249321460723877,
				0.037363775074481964
			],
			"min":[
				-0.2982415556907654,
				3.5505268573760986,
				-0.9248964786529541
			],
			"type":"VEC3"
		},
		{
			"bufferView":27,
			"componentType":5126,
			"count":442,
			"type":"VEC3"
		},
		{
			"bufferView":28,
			"componentType":5126,
			"count":442,
			"type":"VEC2"
		},
		{
			"bufferView":29,
			"componentType":5121,
			"count":442,
			"type":"VEC4"
		},
		{
			"bufferView":30,
			"componentType":5126,
			"count":442,
			"type":"VEC4"
		},
		{
			"bufferView":31,
			"componentType":5123,
			"count":1278,
			"type":"SCALAR"
		}
	],
	"bufferViews":[
		{
			"buffer":0,
			"byteLength":21840,
			"byteOffset":0,
			"target":34962
		},
		{
			"buffer":0,
			"byteLength":21840,
			"byteOffset":21840,
			"target":34962
		},
		{
			"buffer":0,
			"byteLength":14560,
			"byteOffset":43680,
			"target":34962
		},
		{
			"buffer":0,
			"byteLength":7280,
			"byteOffset":58240,
			"target":34962
		},
		{
			"buffer":0,
			"byteLength":29120,
			"byteOffset":65520,
			"target":34962
		},
		{
			"buffer":0,
			"byteLength":7008,
			"byteOffset":94640,
			"target":34963
		},
		{
			"buffer":0,
			"byteLength":320,
			"byteOffset":101648
		},
		{
			"buffer":0,
			"byteLength":7680,
			"byteOffset":101968,
			"target":34962
		},
		{
			"buffer":0,
			"byteLength":7680,
			"byteOffset":109648,
			"target":34962
		},
		{
			"buffer":0,
			"byteLength":5120,
			"byteOffset":117328,
			"target":34962
		},
		{
			"buffer":0,
			"byteLength":5120,
			"byteOffset":122448,
			"target":34962
		},
		{
			"buffer":0,
			"byteLength":2560,
			"byteOffset":127568,
			"target":34962
		},
		{
			"buffer":0,
			"byteLength":10240,
			"byteOffset":130128,
			"target":34962
		},
		{
			"buffer":0,
			"byteLength":3036,
			"byteOffset":140368,
			"target":34963
		},
		{
			"buffer":0,
			"byteLength":34128,
			"byteOffset":143404,
			"target":34962
		},
		{
			"buffer":0,
			"byteLength":34128,
			"byteOffset":177532,
			"target":34962
		},
		{
			"buffer":0,
			"byteLength":22752,
			"byteOffset":211660,
			"target":34962
		},
		{
			"buffer":0,
			"byteLength":11376,
			"byteOffset":234412,
			"target":34962
		},
		{
			"buffer":0,
			"byteLength":45504,
			"byteOffset":245788,
			"target":34962
		},
		{
			"buffer":0,
			"byteLength":14088,
			"byteOffset":291292,
			"target":34963
		},
		{
			"buffer":0,
			"byteLength":17064,
			"byteOffset":305380,
			"target":34962
		},
		{
			"buffer":0,
			"byteLength":17064,
			"byteOffset":322444,
			"target":34962
		},
		{
			"buffer":0,
			"byteLength":11376,
			"byteOffset":339508,
			"target":34962
		},
		{
			"buffer":0,
			"byteLength":5688,
			"byteOffset":350884,
			"target":34962
		},
		{
			"buffer":0,
			"byteLength":22752,
			"byteOffset":356572,
			"target":34962
		},
		{
			"buffer":0,
			"byteLength":7044,
			"byteOffset":379324,
			"target":34963
		},
		{
			"buffer":0,
			"byteLength":5304,
			"byteOffset":386368,
			"target":34962
		},
		{
			"buffer":0,
			"byteLength":5304,
			"byteOffset":391672,
			"target":34962
		},
		{
			"buffer":0,
			"byteLength":3536,
			"byteOffset":396976,
			"target":34962
		},
		{
			"buffer":0,
			"byteLength":1768,
			"byteOffset":400512,
			"target":34962
		},
		{
			"buffer":0,
			"byteLength":7072,
			"byteOffset":402280,
			"target":34962
		},
		{
			"buffer":0,
			"byteLength":2556,
			"byteOffset":409352,
			"target":34963
		}
	],
	"buffers":[
		{
			"byteLength":411908,
			"uri":"HoverTank.bin"
		}
	]
}
