{
	"asset":{
		"generator":"Khronos glTF Blender I/O v4.3.47",
		"version":"2.0"
	},
	"scene":0,
	"scenes":[
		{
			"name":"Scene",
			"nodes":[
				9
			]
		}
	],
	"nodes":[
		{
			"name":"WeaponAnchor",
			"rotation":[
				-0.7071067690849304,
				3.0908619663705394e-08,
				3.0908619663705394e-08,
				0.7071067690849304
			],
			"translation":[
				0,
				-0.4328915774822235,
				0
			]
		},
		{
			"children":[
				0
			],
			"name":"WeaponJoint",
			"rotation":[
				0.7071067690849304,
				-3.0908619663705394e-08,
				-3.0908619663705394e-08,
				0.7071067690849304
			],
			"translation":[
				0,
				1.1754801273345947,
				0
			]
		},
		{
			"children":[
				1
			],
			"name":"FortBase",
			"translation":[
				0,
				2.7086598873138428,
				-0.4000000059604645
			]
		},
		{
			"children":[
				2
			],
			"name":"Root",
			"translation":[
				0,
				-1.600000023841858,
				0.5
			]
		},
		{
			"children":[
				3
			],
			"name":"LockOnAnchor",
			"translation":[
				0,
				1.600000023841858,
				-0.5
			]
		},
		{
			"mesh":0,
			"name":"Body",
			"skin":0
		},
		{
			"mesh":1,
			"name":"Emission",
			"skin":0
		},
		{
			"mesh":2,
			"name":"HoverTire",
			"skin":0
		},
		{
			"mesh":3,
			"name":"WeaponJoint",
			"skin":0
		},
		{
			"children":[
				5,
				6,
				7,
				8,
				4
			],
			"name":"HoverTank"
		}
	],
	"animations":[
		{
			"channels":[
				{
					"sampler":0,
					"target":{
						"node":4,
						"path":"translation"
					}
				},
				{
					"sampler":1,
					"target":{
						"node":4,
						"path":"rotation"
					}
				},
				{
					"sampler":2,
					"target":{
						"node":4,
						"path":"scale"
					}
				},
				{
					"sampler":3,
					"target":{
						"node":3,
						"path":"translation"
					}
				},
				{
					"sampler":4,
					"target":{
						"node":3,
						"path":"rotation"
					}
				},
				{
					"sampler":5,
					"target":{
						"node":3,
						"path":"scale"
					}
				}
			],
			"name":"Idle",
			"samplers":[
				{
					"input":27,
					"interpolation":"STEP",
					"output":28
				},
				{
					"input":27,
					"interpolation":"STEP",
					"output":29
				},
				{
					"input":27,
					"interpolation":"STEP",
					"output":30
				},
				{
					"input":31,
					"interpolation":"LINEAR",
					"output":32
				},
				{
					"input":27,
					"interpolation":"STEP",
					"output":33
				},
				{
					"input":27,
					"interpolation":"STEP",
					"output":34
				}
			]
		}
	],
	"materials":[
		{
			"doubleSided":true,
			"name":"EnemyMaterial",
			"pbrMetallicRoughness":{
				"baseColorTexture":{
					"index":0
				},
				"metallicFactor":0,
				"roughnessFactor":0.5
			}
		},
		{
			"doubleSided":true,
			"name":"EmissionMaterial",
			"pbrMetallicRoughness":{
				"baseColorFactor":[
					1,
					0.040915120393037796,
					0.030713489279150963,
					1
				],
				"metallicFactor":0,
				"roughnessFactor":0.5
			}
		}
	],
	"meshes":[
		{
			"name":"Cube",
			"primitives":[
				{
					"attributes":{
						"POSITION":0,
						"NORMAL":1,
						"TEXCOORD_0":2,
						"JOINTS_0":3,
						"WEIGHTS_0":4
					},
					"indices":5,
					"material":0
				}
			]
		},
		{
			"name":"Cylinder.001",
			"primitives":[
				{
					"attributes":{
						"POSITION":7,
						"NORMAL":8,
						"TEXCOORD_0":9,
						"JOINTS_0":10,
						"WEIGHTS_0":11
					},
					"indices":12,
					"material":1
				}
			]
		},
		{
			"name":"Cylinder.007",
			"primitives":[
				{
					"attributes":{
						"POSITION":13,
						"NORMAL":14,
						"TEXCOORD_0":15,
						"JOINTS_0":16,
						"WEIGHTS_0":17
					},
					"indices":18,
					"material":0
				}
			]
		},
		{
			"name":"Cylinder.006",
			"primitives":[
				{
					"attributes":{
						"POSITION":19,
						"NORMAL":20,
						"TEXCOORD_0":21,
						"COLOR_0":22,
						"COLOR_1":23,
						"JOINTS_0":24,
						"WEIGHTS_0":25
					},
					"indices":26,
					"material":0
				}
			]
		}
	],
	"textures":[
		{
			"sampler":0,
			"source":0
		}
	],
	"images":[
		{
			"mimeType":"image/png",
			"name":"TankTex",
			"uri":"TankTex.png"
		}
	],
	"skins":[
		{
			"inverseBindMatrices":6,
			"joints":[
				4,
				3,
				2,
				1,
				0
			],
			"name":"HoverTank"
		}
	],
	"accessors":[
		{
			"bufferView":0,
			"componentType":5126,
			"count":1677,
			"max":[
				2.0460002422332764,
				2.5677363872528076,
				3.349126100540161
			],
			"min":[
				-2.0460002422332764,
				0.23314785957336426,
				-3.4800002574920654
			],
			"type":"VEC3"
		},
		{
			"bufferView":1,
			"componentType":5126,
			"count":1677,
			"type":"VEC3"
		},
		{
			"bufferView":2,
			"componentType":5126,
			"count":1677,
			"type":"VEC2"
		},
		{
			"bufferView":3,
			"componentType":5121,
			"count":1677,
			"type":"VEC4"
		},
		{
			"bufferView":4,
			"componentType":5126,
			"count":1677,
			"type":"VEC4"
		},
		{
			"bufferView":5,
			"componentType":5123,
			"count":3270,
			"type":"SCALAR"
		},
		{
			"bufferView":6,
			"componentType":5126,
			"count":5,
			"type":"MAT4"
		},
		{
			"bufferView":7,
			"componentType":5126,
			"count":452,
			"max":[
				2.4227468967437744,
				2.3580002784729004,
				3.1827471256256104
			],
			"min":[
				-2.4227468967437744,
				0.2038118839263916,
				-3.380000352859497
			],
			"type":"VEC3"
		},
		{
			"bufferView":8,
			"componentType":5126,
			"count":452,
			"type":"VEC3"
		},
		{
			"bufferView":9,
			"componentType":5126,
			"count":452,
			"type":"VEC2"
		},
		{
			"bufferView":10,
			"componentType":5121,
			"count":452,
			"type":"VEC4"
		},
		{
			"bufferView":11,
			"componentType":5126,
			"count":452,
			"type":"VEC4"
		},
		{
			"bufferView":12,
			"componentType":5123,
			"count":1560,
			"type":"SCALAR"
		},
		{
			"bufferView":13,
			"componentType":5126,
			"count":3354,
			"max":[
				2.5350093841552734,
				0.8759564757347107,
				3.456909656524658
			],
			"min":[
				-2.5350093841552734,
				0.13231194019317627,
				-3.134908437728882
			],
			"type":"VEC3"
		},
		{
			"bufferView":14,
			"componentType":5126,
			"count":3354,
			"type":"VEC3"
		},
		{
			"bufferView":15,
			"componentType":5126,
			"count":3354,
			"type":"VEC2"
		},
		{
			"bufferView":16,
			"componentType":5121,
			"count":3354,
			"type":"VEC4"
		},
		{
			"bufferView":17,
			"componentType":5126,
			"count":3354,
			"type":"VEC4"
		},
		{
			"bufferView":18,
			"componentType":5123,
			"count":9162,
			"type":"SCALAR"
		},
		{
			"bufferView":19,
			"componentType":5126,
			"count":1153,
			"max":[
				1.119999885559082,
				4.249321460723877,
				0.7199999094009399
			],
			"min":[
				-1.119999885559082,
				2.353787899017334,
				-1.5199998617172241
			],
			"type":"VEC3"
		},
		{
			"bufferView":20,
			"componentType":5126,
			"count":1153,
			"type":"VEC3"
		},
		{
			"bufferView":21,
			"componentType":5126,
			"count":1153,
			"type":"VEC2"
		},
		{
			"bufferView":22,
			"componentType":5121,
			"count":1153,
			"normalized":true,
			"type":"VEC4"
		},
		{
			"bufferView":23,
			"componentType":5123,
			"count":1153,
			"normalized":true,
			"type":"VEC4"
		},
		{
			"bufferView":24,
			"componentType":5121,
			"count":1153,
			"type":"VEC4"
		},
		{
			"bufferView":25,
			"componentType":5126,
			"count":1153,
			"type":"VEC4"
		},
		{
			"bufferView":26,
			"componentType":5123,
			"count":2712,
			"type":"SCALAR"
		},
		{
			"bufferView":27,
			"componentType":5126,
			"count":2,
			"max":[
				2
			],
			"min":[
				0
			],
			"type":"SCALAR"
		},
		{
			"bufferView":28,
			"componentType":5126,
			"count":2,
			"type":"VEC3"
		},
		{
			"bufferView":29,
			"componentType":5126,
			"count":2,
			"type":"VEC4"
		},
		{
			"bufferView":30,
			"componentType":5126,
			"count":2,
			"type":"VEC3"
		},
		{
			"bufferView":31,
			"componentType":5126,
			"count":121,
			"max":[
				2
			],
			"min":[
				0
			],
			"type":"SCALAR"
		},
		{
			"bufferView":32,
			"componentType":5126,
			"count":121,
			"type":"VEC3"
		},
		{
			"bufferView":33,
			"componentType":5126,
			"count":2,
			"type":"VEC4"
		},
		{
			"bufferView":34,
			"componentType":5126,
			"count":2,
			"type":"VEC3"
		}
	],
	"bufferViews":[
		{
			"buffer":0,
			"byteLength":20124,
			"byteOffset":0,
			"target":34962
		},
		{
			"buffer":0,
			"byteLength":20124,
			"byteOffset":20124,
			"target":34962
		},
		{
			"buffer":0,
			"byteLength":13416,
			"byteOffset":40248,
			"target":34962
		},
		{
			"buffer":0,
			"byteLength":6708,
			"byteOffset":53664,
			"target":34962
		},
		{
			"buffer":0,
			"byteLength":26832,
			"byteOffset":60372,
			"target":34962
		},
		{
			"buffer":0,
			"byteLength":6540,
			"byteOffset":87204,
			"target":34963
		},
		{
			"buffer":0,
			"byteLength":320,
			"byteOffset":93744
		},
		{
			"buffer":0,
			"byteLength":5424,
			"byteOffset":94064,
			"target":34962
		},
		{
			"buffer":0,
			"byteLength":5424,
			"byteOffset":99488,
			"target":34962
		},
		{
			"buffer":0,
			"byteLength":3616,
			"byteOffset":104912,
			"target":34962
		},
		{
			"buffer":0,
			"byteLength":1808,
			"byteOffset":108528,
			"target":34962
		},
		{
			"buffer":0,
			"byteLength":7232,
			"byteOffset":110336,
			"target":34962
		},
		{
			"buffer":0,
			"byteLength":3120,
			"byteOffset":117568,
			"target":34963
		},
		{
			"buffer":0,
			"byteLength":40248,
			"byteOffset":120688,
			"target":34962
		},
		{
			"buffer":0,
			"byteLength":40248,
			"byteOffset":160936,
			"target":34962
		},
		{
			"buffer":0,
			"byteLength":26832,
			"byteOffset":201184,
			"target":34962
		},
		{
			"buffer":0,
			"byteLength":13416,
			"byteOffset":228016,
			"target":34962
		},
		{
			"buffer":0,
			"byteLength":53664,
			"byteOffset":241432,
			"target":34962
		},
		{
			"buffer":0,
			"byteLength":18324,
			"byteOffset":295096,
			"target":34963
		},
		{
			"buffer":0,
			"byteLength":13836,
			"byteOffset":313420,
			"target":34962
		},
		{
			"buffer":0,
			"byteLength":13836,
			"byteOffset":327256,
			"target":34962
		},
		{
			"buffer":0,
			"byteLength":9224,
			"byteOffset":341092,
			"target":34962
		},
		{
			"buffer":0,
			"byteLength":4612,
			"byteOffset":350316,
			"target":34962
		},
		{
			"buffer":0,
			"byteLength":9224,
			"byteOffset":354928,
			"target":34962
		},
		{
			"buffer":0,
			"byteLength":4612,
			"byteOffset":364152,
			"target":34962
		},
		{
			"buffer":0,
			"byteLength":18448,
			"byteOffset":368764,
			"target":34962
		},
		{
			"buffer":0,
			"byteLength":5424,
			"byteOffset":387212,
			"target":34963
		},
		{
			"buffer":0,
			"byteLength":8,
			"byteOffset":392636
		},
		{
			"buffer":0,
			"byteLength":24,
			"byteOffset":392644
		},
		{
			"buffer":0,
			"byteLength":32,
			"byteOffset":392668
		},
		{
			"buffer":0,
			"byteLength":24,
			"byteOffset":392700
		},
		{
			"buffer":0,
			"byteLength":484,
			"byteOffset":392724
		},
		{
			"buffer":0,
			"byteLength":1452,
			"byteOffset":393208
		},
		{
			"buffer":0,
			"byteLength":32,
			"byteOffset":394660
		},
		{
			"buffer":0,
			"byteLength":24,
			"byteOffset":394692
		}
	],
	"samplers":[
		{
			"magFilter":9729,
			"minFilter":9987
		}
	],
	"buffers":[
		{
			"byteLength":394716,
			"uri":"HoverTank.bin"
		}
	]
}
