{
	"asset":{
		"generator":"Khronos glTF Blender I/O v4.3.47",
		"version":"2.0"
	},
	"scene":0,
	"scenes":[
		{
			"name":"Scene",
			"nodes":[
				11
			]
		}
	],
	"nodes":[
		{
			"name":"MapUnit",
			"translation":[
				0,
				-0.8991779685020447,
				1.5878100395202637
			]
		},
		{
			"name":"LowerMonitor.R",
			"rotation":[
				0,
				7.105427357601002e-15,
				0,
				1
			],
			"translation":[
				-0.25833097100257874,
				0.6276439428329468,
				-0.15932011604309082
			]
		},
		{
			"name":"UpperMonitor.R",
			"rotation":[
				0,
				7.105427357601002e-15,
				0,
				1
			],
			"translation":[
				-0.3108079433441162,
				0.8241078853607178,
				-0.16334010660648346
			]
		},
		{
			"children":[
				1,
				2
			],
			"name":"MonitorArm.R",
			"rotation":[
				0,
				1.1920928244535389e-07,
				0,
				1
			],
			"translation":[
				-0.22439999878406525,
				-1.0006799697875977,
				1.6290600299835205
			]
		},
		{
			"name":"LowerMonitor.L",
			"rotation":[
				0,
				-7.105427357601002e-15,
				0,
				1
			],
			"translation":[
				0.25833097100257874,
				0.6276439428329468,
				-0.15932011604309082
			]
		},
		{
			"name":"UpperMonitor.L",
			"rotation":[
				0,
				-7.105427357601002e-15,
				0,
				1
			],
			"translation":[
				0.3108079433441162,
				0.8241078853607178,
				-0.16334010660648346
			]
		},
		{
			"children":[
				4,
				5
			],
			"name":"MonitorArm.L",
			"rotation":[
				0,
				-1.1920928244535389e-07,
				0,
				1
			],
			"translation":[
				0.22439999878406525,
				-1.0006799697875977,
				1.6290600299835205
			]
		},
		{
			"children":[
				0,
				3,
				6
			],
			"name":"Root"
		},
		{
			"mesh":0,
			"name":"MapUnit",
			"skin":0
		},
		{
			"mesh":1,
			"name":"WeaponMonitor",
			"skin":0
		},
		{
			"mesh":2,
			"name":"WeaponMonitorArm",
			"skin":0
		},
		{
			"children":[
				8,
				9,
				10,
				7
			],
			"name":"Cockpit"
		}
	],
	"materials":[
		{
			"doubleSided":true,
			"name":"MapUnitMaterial",
			"pbrMetallicRoughness":{
				"baseColorFactor":[
					0.800000011920929,
					0.800000011920929,
					0.800000011920929,
					1
				],
				"metallicFactor":0,
				"roughnessFactor":0.5
			}
		},
		{
			"doubleSided":true,
			"name":"MonitorMaterial",
			"pbrMetallicRoughness":{
				"baseColorFactor":[
					0.800000011920929,
					0.800000011920929,
					0.800000011920929,
					1
				],
				"metallicFactor":0,
				"roughnessFactor":0.5
			}
		},
		{
			"doubleSided":true,
			"name":"MonitorArmMaterial",
			"pbrMetallicRoughness":{
				"baseColorFactor":[
					0.800000011920929,
					0.800000011920929,
					0.800000011920929,
					1
				],
				"metallicFactor":0,
				"roughnessFactor":0.5
			}
		}
	],
	"meshes":[
		{
			"name":"Cylinder",
			"primitives":[
				{
					"attributes":{
						"POSITION":0,
						"NORMAL":1,
						"TEXCOORD_0":2,
						"JOINTS_0":3,
						"WEIGHTS_0":4
					},
					"indices":5,
					"material":0
				}
			]
		},
		{
			"name":"Cube",
			"primitives":[
				{
					"attributes":{
						"POSITION":7,
						"NORMAL":8,
						"TEXCOORD_0":9,
						"JOINTS_0":10,
						"WEIGHTS_0":11
					},
					"indices":12,
					"material":1
				}
			]
		},
		{
			"name":"Cylinder.001",
			"primitives":[
				{
					"attributes":{
						"POSITION":13,
						"NORMAL":14,
						"TEXCOORD_0":15,
						"JOINTS_0":16,
						"WEIGHTS_0":17
					},
					"indices":18,
					"material":2
				}
			]
		}
	],
	"skins":[
		{
			"inverseBindMatrices":6,
			"joints":[
				7,
				0,
				3,
				1,
				2,
				6,
				4,
				5
			],
			"name":"Cockpit"
		}
	],
	"accessors":[
		{
			"bufferView":0,
			"componentType":5126,
			"count":2480,
			"max":[
				0.2674776613712311,
				-0.13222599029541016,
				1.8104196786880493
			],
			"min":[
				-0.2674776613712311,
				-0.8991782069206238,
				1.444098711013794
			],
			"type":"VEC3"
		},
		{
			"bufferView":1,
			"componentType":5126,
			"count":2480,
			"type":"VEC3"
		},
		{
			"bufferView":2,
			"componentType":5126,
			"count":2480,
			"type":"VEC2"
		},
		{
			"bufferView":3,
			"componentType":5121,
			"count":2480,
			"type":"VEC4"
		},
		{
			"bufferView":4,
			"componentType":5126,
			"count":2480,
			"type":"VEC4"
		},
		{
			"bufferView":5,
			"componentType":5123,
			"count":6678,
			"type":"SCALAR"
		},
		{
			"bufferView":6,
			"componentType":5126,
			"count":8,
			"type":"MAT4"
		},
		{
			"bufferView":7,
			"componentType":5126,
			"count":874,
			"max":[
				0.6469938158988953,
				-0.08542510867118835,
				1.5051859617233276
			],
			"min":[
				-0.6469938158988953,
				-0.4502657353878021,
				1.3650261163711548
			],
			"type":"VEC3"
		},
		{
			"bufferView":8,
			"componentType":5126,
			"count":874,
			"type":"VEC3"
		},
		{
			"bufferView":9,
			"componentType":5126,
			"count":874,
			"type":"VEC2"
		},
		{
			"bufferView":10,
			"componentType":5121,
			"count":874,
			"type":"VEC4"
		},
		{
			"bufferView":11,
			"componentType":5126,
			"count":874,
			"type":"VEC4"
		},
		{
			"bufferView":12,
			"componentType":5123,
			"count":1536,
			"type":"SCALAR"
		},
		{
			"bufferView":13,
			"componentType":5126,
			"count":2612,
			"max":[
				0.5558860898017883,
				-0.06360539048910141,
				1.6591004133224487
			],
			"min":[
				-0.5558860898017883,
				-1.000679850578308,
				1.445043921470642
			],
			"type":"VEC3"
		},
		{
			"bufferView":14,
			"componentType":5126,
			"count":2612,
			"type":"VEC3"
		},
		{
			"bufferView":15,
			"componentType":5126,
			"count":2612,
			"type":"VEC2"
		},
		{
			"bufferView":16,
			"componentType":5121,
			"count":2612,
			"type":"VEC4"
		},
		{
			"bufferView":17,
			"componentType":5126,
			"count":2612,
			"type":"VEC4"
		},
		{
			"bufferView":18,
			"componentType":5123,
			"count":7392,
			"type":"SCALAR"
		}
	],
	"bufferViews":[
		{
			"buffer":0,
			"byteLength":29760,
			"byteOffset":0,
			"target":34962
		},
		{
			"buffer":0,
			"byteLength":29760,
			"byteOffset":29760,
			"target":34962
		},
		{
			"buffer":0,
			"byteLength":19840,
			"byteOffset":59520,
			"target":34962
		},
		{
			"buffer":0,
			"byteLength":9920,
			"byteOffset":79360,
			"target":34962
		},
		{
			"buffer":0,
			"byteLength":39680,
			"byteOffset":89280,
			"target":34962
		},
		{
			"buffer":0,
			"byteLength":13356,
			"byteOffset":128960,
			"target":34963
		},
		{
			"buffer":0,
			"byteLength":512,
			"byteOffset":142316
		},
		{
			"buffer":0,
			"byteLength":10488,
			"byteOffset":142828,
			"target":34962
		},
		{
			"buffer":0,
			"byteLength":10488,
			"byteOffset":153316,
			"target":34962
		},
		{
			"buffer":0,
			"byteLength":6992,
			"byteOffset":163804,
			"target":34962
		},
		{
			"buffer":0,
			"byteLength":3496,
			"byteOffset":170796,
			"target":34962
		},
		{
			"buffer":0,
			"byteLength":13984,
			"byteOffset":174292,
			"target":34962
		},
		{
			"buffer":0,
			"byteLength":3072,
			"byteOffset":188276,
			"target":34963
		},
		{
			"buffer":0,
			"byteLength":31344,
			"byteOffset":191348,
			"target":34962
		},
		{
			"buffer":0,
			"byteLength":31344,
			"byteOffset":222692,
			"target":34962
		},
		{
			"buffer":0,
			"byteLength":20896,
			"byteOffset":254036,
			"target":34962
		},
		{
			"buffer":0,
			"byteLength":10448,
			"byteOffset":274932,
			"target":34962
		},
		{
			"buffer":0,
			"byteLength":41792,
			"byteOffset":285380,
			"target":34962
		},
		{
			"buffer":0,
			"byteLength":14784,
			"byteOffset":327172,
			"target":34963
		}
	],
	"buffers":[
		{
			"byteLength":341956,
			"uri":"Cockpit.bin"
		}
	]
}
