{
	"asset":{
		"generator":"Khronos glTF Blender I/O v4.3.47",
		"version":"2.0"
	},
	"scene":0,
	"scenes":[
		{
			"name":"Scene",
			"nodes":[
				11
			]
		}
	],
	"nodes":[
		{
			"name":"MapUnit_Bone",
			"rotation":[
				3.266480064212374e-08,
				-1.7114274442064925e-08,
				4.144525328772595e-16,
				1
			],
			"translation":[
				-5.4348429756601035e-08,
				-0.8991780281066895,
				1.5878099203109741
			]
		},
		{
			"name":"LowerMonitor.R",
			"rotation":[
				1.0686796336756288e-08,
				5.363147225880674e-23,
				2.3665827156630354e-30,
				1
			],
			"translation":[
				-0.25833097100257874,
				0.6276440620422363,
				-0.15932013094425201
			]
		},
		{
			"name":"UpperMonitor.R",
			"rotation":[
				2.1373590897155736e-08,
				1.4210854715202004e-14,
				5.029258124322408e-22,
				1
			],
			"translation":[
				-0.3108079433441162,
				0.8241081237792969,
				-0.16334034502506256
			]
		},
		{
			"children":[
				1,
				2
			],
			"name":"MonitorArm.R",
			"rotation":[
				4.733165431326071e-30,
				1.0209501510871632e-07,
				2.3665827156630354e-30,
				1
			],
			"scale":[
				1,
				0.9999999403953552,
				1
			],
			"translation":[
				-0.22440005838871002,
				-1.0006799697875977,
				1.629059910774231
			]
		},
		{
			"name":"LowerMonitor.L",
			"rotation":[
				1.0686796336756288e-08,
				-3.3580496070712185e-23,
				-2.3665827156630354e-30,
				1
			],
			"translation":[
				0.25833097100257874,
				0.6276441216468811,
				-0.15932013094425201
			]
		},
		{
			"name":"UpperMonitor.L",
			"rotation":[
				2.1373590897155736e-08,
				-1.4210854715202004e-14,
				-5.029258124322408e-22,
				1
			],
			"translation":[
				0.3108079433441162,
				0.8241081237792969,
				-0.16334034502506256
			]
		},
		{
			"children":[
				4,
				5
			],
			"name":"MonitorArm.L",
			"rotation":[
				-1.5777218104420236e-30,
				-1.3632356399284618e-07,
				-2.3665827156630354e-30,
				1
			],
			"scale":[
				1,
				0.9999999403953552,
				1
			],
			"translation":[
				0.22439993917942047,
				-1.0006799697875977,
				1.629059910774231
			]
		},
		{
			"children":[
				0,
				3,
				6
			],
			"name":"Root",
			"rotation":[
				-8.557137221032463e-09,
				1.7114274442064925e-08,
				-2.928983815672615e-16,
				1
			]
		},
		{
			"mesh":0,
			"name":"MapUnit",
			"skin":0
		},
		{
			"mesh":1,
			"name":"WeaponMonitor",
			"skin":0
		},
		{
			"mesh":2,
			"name":"WeaponMonitorArm",
			"skin":0
		},
		{
			"children":[
				8,
				9,
				10,
				7
			],
			"name":"Cockpit"
		}
	],
	"materials":[
		{
			"doubleSided":true,
			"name":"MapUnitMaterial",
			"pbrMetallicRoughness":{
				"baseColorFactor":[
					0.800000011920929,
					0.800000011920929,
					0.800000011920929,
					1
				],
				"metallicFactor":0,
				"roughnessFactor":0.5
			}
		},
		{
			"doubleSided":true,
			"name":"MonitorMaterial",
			"pbrMetallicRoughness":{
				"baseColorFactor":[
					0.800000011920929,
					0.800000011920929,
					0.800000011920929,
					1
				],
				"metallicFactor":0,
				"roughnessFactor":0.5
			}
		},
		{
			"doubleSided":true,
			"name":"MonitorArmMaterial",
			"pbrMetallicRoughness":{
				"baseColorFactor":[
					0.800000011920929,
					0.800000011920929,
					0.800000011920929,
					1
				],
				"metallicFactor":0,
				"roughnessFactor":0.5
			}
		}
	],
	"meshes":[
		{
			"name":"Cylinder",
			"primitives":[
				{
					"attributes":{
						"POSITION":0,
						"NORMAL":1,
						"TEXCOORD_0":2,
						"JOINTS_0":3,
						"WEIGHTS_0":4
					},
					"indices":5,
					"material":0
				}
			]
		},
		{
			"name":"Cube",
			"primitives":[
				{
					"attributes":{
						"POSITION":7,
						"NORMAL":8,
						"TEXCOORD_0":9,
						"JOINTS_0":10,
						"WEIGHTS_0":11
					},
					"indices":12,
					"material":1
				}
			]
		},
		{
			"name":"Cylinder.001",
			"primitives":[
				{
					"attributes":{
						"POSITION":13,
						"NORMAL":14,
						"TEXCOORD_0":15,
						"JOINTS_0":16,
						"WEIGHTS_0":17
					},
					"indices":18,
					"material":2
				}
			]
		}
	],
	"skins":[
		{
			"inverseBindMatrices":6,
			"joints":[
				7,
				0,
				3,
				1,
				2,
				6,
				4,
				5
			],
			"name":"Cockpit"
		}
	],
	"accessors":[
		{
			"bufferView":0,
			"componentType":5126,
			"count":2838,
			"max":[
				0.2674776613712311,
				-0.13222599029541016,
				1.8104196786880493
			],
			"min":[
				-0.2674776613712311,
				-0.8991782069206238,
				1.444098711013794
			],
			"type":"VEC3"
		},
		{
			"bufferView":1,
			"componentType":5126,
			"count":2838,
			"type":"VEC3"
		},
		{
			"bufferView":2,
			"componentType":5126,
			"count":2838,
			"type":"VEC2"
		},
		{
			"bufferView":3,
			"componentType":5121,
			"count":2838,
			"type":"VEC4"
		},
		{
			"bufferView":4,
			"componentType":5126,
			"count":2838,
			"type":"VEC4"
		},
		{
			"bufferView":5,
			"componentType":5123,
			"count":6678,
			"type":"SCALAR"
		},
		{
			"bufferView":6,
			"componentType":5126,
			"count":8,
			"type":"MAT4"
		},
		{
			"bufferView":7,
			"componentType":5126,
			"count":1012,
			"max":[
				0.6469938158988953,
				-0.08542510867118835,
				1.5051859617233276
			],
			"min":[
				-0.6469938158988953,
				-0.4502657353878021,
				1.3650261163711548
			],
			"type":"VEC3"
		},
		{
			"bufferView":8,
			"componentType":5126,
			"count":1012,
			"type":"VEC3"
		},
		{
			"bufferView":9,
			"componentType":5126,
			"count":1012,
			"type":"VEC2"
		},
		{
			"bufferView":10,
			"componentType":5121,
			"count":1012,
			"type":"VEC4"
		},
		{
			"bufferView":11,
			"componentType":5126,
			"count":1012,
			"type":"VEC4"
		},
		{
			"bufferView":12,
			"componentType":5123,
			"count":1536,
			"type":"SCALAR"
		},
		{
			"bufferView":13,
			"componentType":5126,
			"count":2788,
			"max":[
				0.5558860898017883,
				-0.06360539048910141,
				1.6591004133224487
			],
			"min":[
				-0.5558860898017883,
				-1.000679850578308,
				1.445043921470642
			],
			"type":"VEC3"
		},
		{
			"bufferView":14,
			"componentType":5126,
			"count":2788,
			"type":"VEC3"
		},
		{
			"bufferView":15,
			"componentType":5126,
			"count":2788,
			"type":"VEC2"
		},
		{
			"bufferView":16,
			"componentType":5121,
			"count":2788,
			"type":"VEC4"
		},
		{
			"bufferView":17,
			"componentType":5126,
			"count":2788,
			"type":"VEC4"
		},
		{
			"bufferView":18,
			"componentType":5123,
			"count":7392,
			"type":"SCALAR"
		}
	],
	"bufferViews":[
		{
			"buffer":0,
			"byteLength":34056,
			"byteOffset":0,
			"target":34962
		},
		{
			"buffer":0,
			"byteLength":34056,
			"byteOffset":34056,
			"target":34962
		},
		{
			"buffer":0,
			"byteLength":22704,
			"byteOffset":68112,
			"target":34962
		},
		{
			"buffer":0,
			"byteLength":11352,
			"byteOffset":90816,
			"target":34962
		},
		{
			"buffer":0,
			"byteLength":45408,
			"byteOffset":102168,
			"target":34962
		},
		{
			"buffer":0,
			"byteLength":13356,
			"byteOffset":147576,
			"target":34963
		},
		{
			"buffer":0,
			"byteLength":512,
			"byteOffset":160932
		},
		{
			"buffer":0,
			"byteLength":12144,
			"byteOffset":161444,
			"target":34962
		},
		{
			"buffer":0,
			"byteLength":12144,
			"byteOffset":173588,
			"target":34962
		},
		{
			"buffer":0,
			"byteLength":8096,
			"byteOffset":185732,
			"target":34962
		},
		{
			"buffer":0,
			"byteLength":4048,
			"byteOffset":193828,
			"target":34962
		},
		{
			"buffer":0,
			"byteLength":16192,
			"byteOffset":197876,
			"target":34962
		},
		{
			"buffer":0,
			"byteLength":3072,
			"byteOffset":214068,
			"target":34963
		},
		{
			"buffer":0,
			"byteLength":33456,
			"byteOffset":217140,
			"target":34962
		},
		{
			"buffer":0,
			"byteLength":33456,
			"byteOffset":250596,
			"target":34962
		},
		{
			"buffer":0,
			"byteLength":22304,
			"byteOffset":284052,
			"target":34962
		},
		{
			"buffer":0,
			"byteLength":11152,
			"byteOffset":306356,
			"target":34962
		},
		{
			"buffer":0,
			"byteLength":44608,
			"byteOffset":317508,
			"target":34962
		},
		{
			"buffer":0,
			"byteLength":14784,
			"byteOffset":362116,
			"target":34963
		}
	],
	"buffers":[
		{
			"byteLength":376900,
			"uri":"Cockpit.bin"
		}
	]
}
