{
	"asset":{
		"generator":"Khronos glTF Blender I/O v4.3.47",
		"version":"2.0"
	},
	"scene":0,
	"scenes":[
		{
			"name":"Scene",
			"nodes":[
				12
			]
		}
	],
	"nodes":[
		{
			"name":"MapUnitAnchor",
			"translation":[
				0,
				-0.8641780018806458,
				1.5878100395202637
			]
		},
		{
			"name":"LowerMonitor.R",
			"rotation":[
				0,
				7.105427357601002e-15,
				0,
				1
			],
			"translation":[
				-0.25833097100257874,
				0.5926438570022583,
				-0.15932059288024902
			]
		},
		{
			"name":"UpperMonitor.R",
			"rotation":[
				0,
				7.105427357601002e-15,
				0,
				1
			],
			"translation":[
				-0.3108079433441162,
				0.7891079187393188,
				-0.16334094107151031
			]
		},
		{
			"children":[
				1,
				2
			],
			"name":"MonitorArm.R",
			"rotation":[
				0,
				1.1920928244535389e-07,
				0,
				1
			],
			"translation":[
				-0.22439999878406525,
				-0.965679943561554,
				1.6290600299835205
			]
		},
		{
			"name":"LowerMonitor.L",
			"rotation":[
				0,
				-7.105427357601002e-15,
				0,
				1
			],
			"translation":[
				0.25833097100257874,
				0.5926438570022583,
				-0.15932059288024902
			]
		},
		{
			"name":"UpperMonitor.L",
			"rotation":[
				0,
				-7.105427357601002e-15,
				0,
				1
			],
			"translation":[
				0.3108079433441162,
				0.7891079187393188,
				-0.16334094107151031
			]
		},
		{
			"children":[
				4,
				5
			],
			"name":"MonitorArm.L",
			"rotation":[
				0,
				-1.1920928244535389e-07,
				0,
				1
			],
			"translation":[
				0.22439999878406525,
				-0.965679943561554,
				1.6290600299835205
			]
		},
		{
			"children":[
				0,
				3,
				6
			],
			"name":"Root"
		},
		{
			"mesh":0,
			"name":"MapEmission",
			"skin":0
		},
		{
			"mesh":1,
			"name":"MapUnit",
			"skin":0
		},
		{
			"mesh":2,
			"name":"MonitorEmission",
			"skin":0
		},
		{
			"mesh":3,
			"name":"WeaponMonitor",
			"skin":0
		},
		{
			"children":[
				8,
				9,
				10,
				11,
				7
			],
			"name":"Cockpit"
		}
	],
	"materials":[
		{
			"doubleSided":true,
			"name":"MapEmissionMaterial",
			"pbrMetallicRoughness":{
				"baseColorFactor":[
					0,
					0,
					0,
					1
				],
				"metallicFactor":0,
				"roughnessFactor":0.5
			}
		},
		{
			"doubleSided":true,
			"name":"MapUnitMaterial",
			"pbrMetallicRoughness":{
				"baseColorTexture":{
					"index":0
				},
				"metallicFactor":0,
				"roughnessFactor":0.5
			}
		},
		{
			"doubleSided":true,
			"name":"MonitorEmissionMaterial",
			"pbrMetallicRoughness":{
				"baseColorFactor":[
					0,
					0,
					0,
					1
				],
				"metallicFactor":0,
				"roughnessFactor":0.5
			}
		},
		{
			"doubleSided":true,
			"name":"MonitorMaterial",
			"pbrMetallicRoughness":{
				"baseColorTexture":{
					"index":1
				},
				"metallicFactor":0,
				"roughnessFactor":0.5
			}
		}
	],
	"meshes":[
		{
			"name":"Cylinder.002",
			"primitives":[
				{
					"attributes":{
						"POSITION":0,
						"NORMAL":1,
						"TEXCOORD_0":2,
						"JOINTS_0":3,
						"WEIGHTS_0":4
					},
					"indices":5,
					"material":0
				}
			]
		},
		{
			"name":"Cylinder",
			"primitives":[
				{
					"attributes":{
						"POSITION":7,
						"NORMAL":8,
						"TEXCOORD_0":9,
						"JOINTS_0":10,
						"WEIGHTS_0":11
					},
					"indices":12,
					"material":1
				}
			]
		},
		{
			"name":"Cylinder.003",
			"primitives":[
				{
					"attributes":{
						"POSITION":13,
						"NORMAL":14,
						"TEXCOORD_0":15,
						"JOINTS_0":16,
						"WEIGHTS_0":17
					},
					"indices":18,
					"material":2
				}
			]
		},
		{
			"name":"Cube",
			"primitives":[
				{
					"attributes":{
						"POSITION":19,
						"NORMAL":20,
						"TEXCOORD_0":21,
						"JOINTS_0":22,
						"WEIGHTS_0":23
					},
					"indices":24,
					"material":3
				}
			]
		}
	],
	"textures":[
		{
			"sampler":0,
			"source":0
		},
		{
			"sampler":0,
			"source":1
		}
	],
	"images":[
		{
			"mimeType":"image/png",
			"name":"MapUnitTex",
			"uri":"MapUnitTex.png"
		},
		{
			"mimeType":"image/png",
			"name":"MonitorTex",
			"uri":"MonitorTex.png"
		}
	],
	"skins":[
		{
			"inverseBindMatrices":6,
			"joints":[
				7,
				0,
				3,
				1,
				2,
				6,
				4,
				5
			],
			"name":"Cockpit"
		}
	],
	"accessors":[
		{
			"bufferView":0,
			"componentType":5126,
			"count":174,
			"max":[
				0.20176668465137482,
				-0.1907125562429428,
				1.6555129289627075
			],
			"min":[
				-0.20176668465137482,
				-0.49145182967185974,
				1.4452097415924072
			],
			"type":"VEC3"
		},
		{
			"bufferView":1,
			"componentType":5126,
			"count":174,
			"type":"VEC3"
		},
		{
			"bufferView":2,
			"componentType":5126,
			"count":174,
			"type":"VEC2"
		},
		{
			"bufferView":3,
			"componentType":5121,
			"count":174,
			"type":"VEC4"
		},
		{
			"bufferView":4,
			"componentType":5126,
			"count":174,
			"type":"VEC4"
		},
		{
			"bufferView":5,
			"componentType":5123,
			"count":444,
			"type":"SCALAR"
		},
		{
			"bufferView":6,
			"componentType":5126,
			"count":8,
			"type":"MAT4"
		},
		{
			"bufferView":7,
			"componentType":5126,
			"count":1928,
			"max":[
				0.2674776613712311,
				-0.13222597539424896,
				1.8104197978973389
			],
			"min":[
				-0.2674776613712311,
				-0.8991782665252686,
				1.444098711013794
			],
			"type":"VEC3"
		},
		{
			"bufferView":8,
			"componentType":5126,
			"count":1928,
			"type":"VEC3"
		},
		{
			"bufferView":9,
			"componentType":5126,
			"count":1928,
			"type":"VEC2"
		},
		{
			"bufferView":10,
			"componentType":5121,
			"count":1928,
			"type":"VEC4"
		},
		{
			"bufferView":11,
			"componentType":5126,
			"count":1928,
			"type":"VEC4"
		},
		{
			"bufferView":12,
			"componentType":5123,
			"count":5514,
			"type":"SCALAR"
		},
		{
			"bufferView":13,
			"componentType":5126,
			"count":32,
			"max":[
				0.6240341663360596,
				-0.10292492806911469,
				1.4805328845977783
			],
			"min":[
				-0.6240341663360596,
				-0.4327656626701355,
				1.3769909143447876
			],
			"type":"VEC3"
		},
		{
			"bufferView":14,
			"componentType":5126,
			"count":32,
			"type":"VEC3"
		},
		{
			"bufferView":15,
			"componentType":5126,
			"count":32,
			"type":"VEC2"
		},
		{
			"bufferView":16,
			"componentType":5121,
			"count":32,
			"type":"VEC4"
		},
		{
			"bufferView":17,
			"componentType":5126,
			"count":32,
			"type":"VEC4"
		},
		{
			"bufferView":18,
			"componentType":5123,
			"count":84,
			"type":"SCALAR"
		},
		{
			"bufferView":19,
			"componentType":5126,
			"count":3098,
			"max":[
				0.6469938158988953,
				-0.0636054053902626,
				1.6591002941131592
			],
			"min":[
				-0.6469938158988953,
				-1.0006799697875977,
				1.3650258779525757
			],
			"type":"VEC3"
		},
		{
			"bufferView":20,
			"componentType":5126,
			"count":3098,
			"type":"VEC3"
		},
		{
			"bufferView":21,
			"componentType":5126,
			"count":3098,
			"type":"VEC2"
		},
		{
			"bufferView":22,
			"componentType":5121,
			"count":3098,
			"type":"VEC4"
		},
		{
			"bufferView":23,
			"componentType":5126,
			"count":3098,
			"type":"VEC4"
		},
		{
			"bufferView":24,
			"componentType":5123,
			"count":8844,
			"type":"SCALAR"
		}
	],
	"bufferViews":[
		{
			"buffer":0,
			"byteLength":2088,
			"byteOffset":0,
			"target":34962
		},
		{
			"buffer":0,
			"byteLength":2088,
			"byteOffset":2088,
			"target":34962
		},
		{
			"buffer":0,
			"byteLength":1392,
			"byteOffset":4176,
			"target":34962
		},
		{
			"buffer":0,
			"byteLength":696,
			"byteOffset":5568,
			"target":34962
		},
		{
			"buffer":0,
			"byteLength":2784,
			"byteOffset":6264,
			"target":34962
		},
		{
			"buffer":0,
			"byteLength":888,
			"byteOffset":9048,
			"target":34963
		},
		{
			"buffer":0,
			"byteLength":512,
			"byteOffset":9936
		},
		{
			"buffer":0,
			"byteLength":23136,
			"byteOffset":10448,
			"target":34962
		},
		{
			"buffer":0,
			"byteLength":23136,
			"byteOffset":33584,
			"target":34962
		},
		{
			"buffer":0,
			"byteLength":15424,
			"byteOffset":56720,
			"target":34962
		},
		{
			"buffer":0,
			"byteLength":7712,
			"byteOffset":72144,
			"target":34962
		},
		{
			"buffer":0,
			"byteLength":30848,
			"byteOffset":79856,
			"target":34962
		},
		{
			"buffer":0,
			"byteLength":11028,
			"byteOffset":110704,
			"target":34963
		},
		{
			"buffer":0,
			"byteLength":384,
			"byteOffset":121732,
			"target":34962
		},
		{
			"buffer":0,
			"byteLength":384,
			"byteOffset":122116,
			"target":34962
		},
		{
			"buffer":0,
			"byteLength":256,
			"byteOffset":122500,
			"target":34962
		},
		{
			"buffer":0,
			"byteLength":128,
			"byteOffset":122756,
			"target":34962
		},
		{
			"buffer":0,
			"byteLength":512,
			"byteOffset":122884,
			"target":34962
		},
		{
			"buffer":0,
			"byteLength":168,
			"byteOffset":123396,
			"target":34963
		},
		{
			"buffer":0,
			"byteLength":37176,
			"byteOffset":123564,
			"target":34962
		},
		{
			"buffer":0,
			"byteLength":37176,
			"byteOffset":160740,
			"target":34962
		},
		{
			"buffer":0,
			"byteLength":24784,
			"byteOffset":197916,
			"target":34962
		},
		{
			"buffer":0,
			"byteLength":12392,
			"byteOffset":222700,
			"target":34962
		},
		{
			"buffer":0,
			"byteLength":49568,
			"byteOffset":235092,
			"target":34962
		},
		{
			"buffer":0,
			"byteLength":17688,
			"byteOffset":284660,
			"target":34963
		}
	],
	"samplers":[
		{
			"magFilter":9729,
			"minFilter":9987
		}
	],
	"buffers":[
		{
			"byteLength":302348,
			"uri":"Cockpit.bin"
		}
	]
}
